<svg width="36" height="36" viewBox="0 0 36 36" fill="none" xmlns="http://www.w3.org/2000/svg">
  <path
    d="M25.6239 10.8092C24.2217 10.1658 22.7181 9.69182 21.1459 9.42033C21.1173 9.41509 21.0887 9.42818 21.0739 9.45437C20.8805 9.79832 20.6663 10.247 20.5163 10.5997C18.8254 10.3466 17.1431 10.3466 15.4868 10.5997C15.3368 10.2392 15.1148 9.79832 14.9205 9.45437C14.9058 9.42906 14.8772 9.41596 14.8485 9.42033C13.2773 9.69095 11.7736 10.165 10.3705 10.8092C10.3584 10.8145 10.348 10.8232 10.3411 10.8346C7.48894 15.0955 6.70763 19.2518 7.09092 23.3565C7.09265 23.3766 7.10392 23.3958 7.11953 23.408C9.00128 24.79 10.8241 25.6289 12.613 26.185C12.6416 26.1937 12.672 26.1832 12.6902 26.1597C13.1134 25.5818 13.4906 24.9724 13.814 24.3316C13.8331 24.2941 13.8149 24.2496 13.7759 24.2348C13.1775 24.0078 12.6078 23.731 12.0598 23.4168C12.0164 23.3915 12.0129 23.3295 12.0528 23.2998C12.1681 23.2134 12.2835 23.1234 12.3936 23.0327C12.4135 23.0161 12.4413 23.0126 12.4647 23.023C16.0652 24.6669 19.9631 24.6669 23.521 23.023C23.5445 23.0117 23.5722 23.0152 23.593 23.0318C23.7032 23.1226 23.8185 23.2134 23.9347 23.2998C23.9746 23.3295 23.972 23.3915 23.9286 23.4168C23.3806 23.7371 22.8108 24.0078 22.2116 24.2339C22.1726 24.2487 22.1553 24.2941 22.1744 24.3316C22.5047 24.9715 22.882 25.5809 23.2973 26.1588C23.3147 26.1832 23.3459 26.1937 23.3745 26.185C25.1721 25.6289 26.9949 24.79 28.8766 23.408C28.8931 23.3958 28.9035 23.3775 28.9053 23.3574C29.364 18.6119 28.137 14.4897 25.6525 10.8354C25.6465 10.8232 25.6361 10.8145 25.6239 10.8092ZM14.3517 20.8572C13.2677 20.8572 12.3745 19.862 12.3745 18.6398C12.3745 17.4177 13.2504 16.4225 14.3517 16.4225C15.4616 16.4225 16.3462 17.4264 16.3288 18.6398C16.3288 19.862 15.453 20.8572 14.3517 20.8572ZM21.6619 20.8572C20.5779 20.8572 19.6847 19.862 19.6847 18.6398C19.6847 17.4177 20.5606 16.4225 21.6619 16.4225C22.7718 16.4225 23.6563 17.4264 23.639 18.6398C23.639 19.862 22.7718 20.8572 21.6619 20.8572Z"
    fill="white" />
</svg>
