<svg width="36" height="36" viewBox="0 0 36 36" fill="none" xmlns="http://www.w3.org/2000/svg">
  <g clip-path="url(#clip0_739_200)">
    <path fill-rule="evenodd" clip-rule="evenodd"
      d="M18.0091 7C11.9214 7 7 11.9576 7 18.0909C7 22.9936 10.1533 27.1435 14.5277 28.6124C15.0746 28.7228 15.275 28.3737 15.275 28.0801C15.275 27.823 15.2569 26.9416 15.2569 26.0233C12.1945 26.6845 11.5567 24.7012 11.5567 24.7012C11.0646 23.4159 10.3354 23.0855 10.3354 23.0855C9.33302 22.4061 10.4084 22.4061 10.4084 22.4061C11.5202 22.4795 12.1037 23.5445 12.1037 23.5445C13.0877 25.2337 14.6735 24.7564 15.3115 24.4626C15.4025 23.7464 15.6943 23.2507 16.0042 22.9753C13.5617 22.7182 10.9918 21.7634 10.9918 17.5032C10.9918 16.2913 11.429 15.2998 12.1217 14.5286C12.0124 14.2532 11.6295 13.1146 12.2312 11.5905C12.2312 11.5905 13.1608 11.2967 15.2567 12.729C16.1541 12.4862 17.0795 12.3627 18.0091 12.3617C18.9387 12.3617 19.8862 12.4904 20.7613 12.729C22.8574 11.2967 23.787 11.5905 23.787 11.5905C24.3887 13.1146 24.0056 14.2532 23.8963 14.5286C24.6073 15.2998 25.0264 16.2913 25.0264 17.5032C25.0264 21.7634 22.4565 22.6997 19.9958 22.9753C20.3969 23.3241 20.743 23.9851 20.743 25.0318C20.743 26.5191 20.725 27.7128 20.725 28.0799C20.725 28.3737 20.9255 28.7228 21.4722 28.6126C25.8467 27.1433 29 22.9936 29 18.0909C29.018 11.9576 24.0786 7 18.0091 7Z"
      fill="white" />
  </g>
  <defs>
    <clipPath id="clip0_739_200">
      <rect width="22" height="22" fill="white" transform="translate(7 7)" />
    </clipPath>
  </defs>
</svg>
