<svg width="1196" height="384" viewBox="0 0 1196 384" fill="none" xmlns="http://www.w3.org/2000/svg">
<path d="M240.907 208.264L304.305 225.252L340.168 91.4097L192.236 51.7717L175.248 115.171L259.782 137.821L240.907 208.264Z" fill="url(#paint0_linear_21_62)"/>
<path d="M127.274 175.279L63.8755 158.291L28.0127 292.133L175.945 331.772L192.932 268.373L108.399 245.722L127.274 175.279Z" fill="url(#paint1_linear_21_62)"/>
<path opacity="0.95" d="M453.348 215V53.8623H487.306V186.882H556.412V215H453.348ZM571.336 215V94.0927H604.753V215H571.336ZM587.99 78.6278C583.016 78.6278 578.762 76.9695 575.229 73.653C571.696 70.3366 569.93 66.3351 569.93 61.6488C569.93 56.9625 571.696 52.9971 575.229 49.7527C578.762 46.4363 583.016 44.778 587.99 44.778C593.037 44.778 597.327 46.4363 600.86 49.7527C604.392 52.9971 606.159 56.9625 606.159 61.6488C606.159 66.3351 604.392 70.3366 600.86 73.653C597.327 76.9695 593.037 78.6278 587.99 78.6278ZM759.834 53.8623V215H730.419L660.448 113.667H659.042V215H625.084V53.8623H654.933L724.471 155.195H725.877V53.8623H759.834ZM780.598 215V53.8623H889.177V81.9803H814.556V119.831H883.554V147.409H814.556V186.882H889.393V215H780.598ZM936.761 215H900.316L955.903 53.8623H999.811L1055.29 215H1018.95L978.506 90.632H977.208L936.761 215ZM934.599 151.626H1020.79V178.23H934.599V151.626ZM1067.4 215V53.8623H1130.88C1143.07 53.8623 1153.45 56.0252 1162.03 60.3511C1170.68 64.6769 1177.28 70.8052 1181.82 78.7359C1186.43 86.5945 1188.74 95.859 1188.74 106.529C1188.74 117.2 1186.43 126.392 1181.82 134.107C1177.21 141.821 1170.5 147.733 1161.71 151.843C1152.98 155.88 1142.42 157.899 1130.02 157.899H1087.52V130.538H1124.5C1131.06 130.538 1136.47 129.637 1140.72 127.834C1145.05 126.032 1148.26 123.364 1150.35 119.831C1152.51 116.299 1153.59 111.865 1153.59 106.529C1153.59 101.122 1152.51 96.6161 1150.35 93.0112C1148.26 89.3342 1145.05 86.5585 1140.72 84.6839C1136.4 82.7373 1130.96 81.764 1124.39 81.764H1101.36V215H1067.4ZM1156.84 215L1117.58 141.677H1154.35L1194.47 215H1156.84Z" fill="white"/>
<path opacity="0.95" d="M448.157 356.543V275.974H479.898C485.99 275.974 491.181 277.146 495.471 279.489C499.797 281.796 503.096 285.004 505.367 289.114C507.674 293.223 508.827 297.964 508.827 303.335C508.827 308.67 507.674 313.375 505.367 317.448C503.059 321.522 499.707 324.712 495.309 327.019C490.947 329.29 485.666 330.426 479.466 330.426H459.242V316.799H476.708C479.988 316.799 482.692 316.222 484.819 315.069C486.982 313.915 488.586 312.329 489.631 310.311C490.713 308.292 491.254 305.967 491.254 303.335C491.254 300.631 490.713 298.288 489.631 296.306C488.586 294.287 486.982 292.719 484.819 291.601C482.656 290.484 479.934 289.925 476.654 289.925H465.136V356.543H448.157ZM539.545 356.543V275.974H571.286C577.378 275.974 582.569 277.056 586.859 279.219C591.185 281.381 594.483 284.446 596.754 288.411C599.062 292.34 600.215 296.972 600.215 302.308C600.215 307.643 599.062 312.239 596.754 316.096C594.447 319.954 591.095 322.91 586.697 324.964C582.335 326.983 577.054 327.992 570.853 327.992H549.603V314.312H568.096C571.376 314.312 574.08 313.861 576.207 312.96C578.37 312.059 579.974 310.725 581.019 308.959C582.101 307.192 582.641 304.975 582.641 302.308C582.641 299.604 582.101 297.351 581.019 295.549C579.974 293.71 578.37 292.322 576.207 291.385C574.044 290.412 571.322 289.925 568.042 289.925H556.524V356.543H539.545ZM584.264 356.543L564.635 319.881H583.02L603.081 356.543H584.264ZM668.189 357.624C661.052 357.624 654.635 356.002 648.939 352.758C643.244 349.513 638.737 344.809 635.421 338.645C632.104 332.48 630.446 325.036 630.446 316.313C630.446 307.517 632.104 300.037 635.421 293.872C638.737 287.672 643.244 282.968 648.939 279.759C654.635 276.515 661.052 274.893 668.189 274.893C675.327 274.893 681.744 276.515 687.439 279.759C693.135 282.968 697.623 287.672 700.903 293.872C704.22 300.037 705.878 307.517 705.878 316.313C705.878 325.072 704.22 332.535 700.903 338.699C697.623 344.863 693.135 349.568 687.439 352.812C681.744 356.02 675.327 357.624 668.189 357.624ZM668.189 342.592C672.335 342.592 675.94 341.583 679.004 339.564C682.068 337.545 684.429 334.589 686.087 330.696C687.782 326.767 688.629 321.972 688.629 316.313C688.629 310.617 687.782 305.804 686.087 301.875C684.429 297.946 682.068 294.972 679.004 292.953C675.94 290.934 672.335 289.925 668.189 289.925C664.08 289.925 660.493 290.934 657.429 292.953C654.365 294.972 651.967 297.946 650.237 301.875C648.543 305.804 647.696 310.617 647.696 316.313C647.696 321.972 648.543 326.767 650.237 330.696C651.967 334.589 654.365 337.545 657.429 339.564C660.493 341.583 664.08 342.592 668.189 342.592ZM731.459 290.033V275.974H797.644V290.033H772.987V356.543H756.17V290.033H731.459ZM860.914 357.624C853.777 357.624 847.36 356.002 841.664 352.758C835.969 349.513 831.462 344.809 828.146 338.645C824.829 332.48 823.171 325.036 823.171 316.313C823.171 307.517 824.829 300.037 828.146 293.872C831.462 287.672 835.969 282.968 841.664 279.759C847.36 276.515 853.777 274.893 860.914 274.893C868.052 274.893 874.469 276.515 880.164 279.759C885.86 282.968 890.348 287.672 893.628 293.872C896.945 300.037 898.603 307.517 898.603 316.313C898.603 325.072 896.945 332.535 893.628 338.699C890.348 344.863 885.86 349.568 880.164 352.812C874.469 356.02 868.052 357.624 860.914 357.624ZM860.914 342.592C865.06 342.592 868.665 341.583 871.729 339.564C874.793 337.545 877.154 334.589 878.812 330.696C880.507 326.767 881.354 321.972 881.354 316.313C881.354 310.617 880.507 305.804 878.812 301.875C877.154 297.946 874.793 294.972 871.729 292.953C868.665 290.934 865.06 289.925 860.914 289.925C856.805 289.925 853.218 290.934 850.154 292.953C847.09 294.972 844.692 297.946 842.962 301.875C841.268 305.804 840.421 310.617 840.421 316.313C840.421 321.972 841.268 326.767 842.962 330.696C844.692 334.589 847.09 337.545 850.154 339.564C853.218 341.583 856.805 342.592 860.914 342.592ZM966.902 357.624C959.764 357.624 953.365 356.002 947.706 352.758C942.046 349.513 937.576 344.809 934.296 338.645C931.015 332.48 929.375 325.036 929.375 316.313C929.375 307.517 931.015 300.037 934.296 293.872C937.612 287.672 942.1 282.968 947.76 279.759C953.456 276.515 959.836 274.893 966.902 274.893C971.588 274.893 975.932 275.56 979.933 276.893C983.935 278.191 987.468 280.102 990.532 282.625C993.632 285.112 996.155 288.177 998.102 291.818C1000.05 295.422 1001.29 299.55 1001.83 304.2H984.638C984.313 302.001 983.664 300.019 982.691 298.252C981.754 296.486 980.51 294.99 978.96 293.764C977.446 292.538 975.698 291.601 973.715 290.952C971.768 290.267 969.623 289.925 967.28 289.925C963.171 289.925 959.548 290.97 956.412 293.061C953.311 295.116 950.896 298.108 949.166 302.037C947.472 305.931 946.624 310.689 946.624 316.313C946.624 322.044 947.49 326.875 949.22 330.804C950.95 334.697 953.365 337.635 956.466 339.618C959.566 341.601 963.153 342.592 967.226 342.592C969.497 342.592 971.606 342.286 973.553 341.673C975.499 341.06 977.23 340.177 978.744 339.023C980.258 337.87 981.52 336.464 982.529 334.806C983.574 333.111 984.277 331.183 984.638 329.02H1001.83C1001.4 332.733 1000.3 336.302 998.534 339.726C996.804 343.151 994.443 346.215 991.451 348.919C988.459 351.586 984.908 353.713 980.799 355.299C976.689 356.849 972.057 357.624 966.902 357.624ZM1070.08 357.624C1062.94 357.624 1056.52 356.002 1050.83 352.758C1045.13 349.513 1040.63 344.809 1037.31 338.645C1033.99 332.48 1032.33 325.036 1032.33 316.313C1032.33 307.517 1033.99 300.037 1037.31 293.872C1040.63 287.672 1045.13 282.968 1050.83 279.759C1056.52 276.515 1062.94 274.893 1070.08 274.893C1077.22 274.893 1083.63 276.515 1089.33 279.759C1095.02 282.968 1099.51 287.672 1102.79 293.872C1106.11 300.037 1107.77 307.517 1107.77 316.313C1107.77 325.072 1106.11 332.535 1102.79 338.699C1099.51 344.863 1095.02 349.568 1089.33 352.812C1083.63 356.02 1077.22 357.624 1070.08 357.624ZM1070.08 342.592C1074.22 342.592 1077.83 341.583 1080.89 339.564C1083.96 337.545 1086.32 334.589 1087.98 330.696C1089.67 326.767 1090.52 321.972 1090.52 316.313C1090.52 310.617 1089.67 305.804 1087.98 301.875C1086.32 297.946 1083.96 294.972 1080.89 292.953C1077.83 290.934 1074.22 289.925 1070.08 289.925C1065.97 289.925 1062.38 290.934 1059.32 292.953C1056.25 294.972 1053.86 297.946 1052.13 301.875C1050.43 305.804 1049.58 310.617 1049.58 316.313C1049.58 321.972 1050.43 326.767 1052.13 330.696C1053.86 334.589 1056.25 337.545 1059.32 339.564C1062.38 341.583 1065.97 342.592 1070.08 342.592ZM1140 356.543V275.974H1156.98V342.484H1191.53V356.543H1140Z" fill="url(#paint2_linear_21_62)"/>
<defs>
<linearGradient id="paint0_linear_21_62" x1="44.8403" y1="67.8955" x2="191.923" y2="258.232" gradientUnits="userSpaceOnUse">
<stop stop-color="#2FE6FF"/>
<stop offset="0.111111" stop-color="#00DDFF"/>
<stop offset="0.222222" stop-color="#00D3FF"/>
<stop offset="0.333333" stop-color="#44C7FF"/>
<stop offset="0.444444" stop-color="#73B9FF"/>
<stop offset="0.555556" stop-color="#9BA9FF"/>
<stop offset="0.666667" stop-color="#BF96FF"/>
<stop offset="0.777778" stop-color="#DC82EB"/>
<stop offset="0.888889" stop-color="#F26CCC"/>
<stop offset="1" stop-color="#FF58A8"/>
</linearGradient>
<linearGradient id="paint1_linear_21_62" x1="44.8403" y1="67.8955" x2="191.923" y2="258.232" gradientUnits="userSpaceOnUse">
<stop stop-color="#2FE6FF"/>
<stop offset="0.111111" stop-color="#00DDFF"/>
<stop offset="0.222222" stop-color="#00D3FF"/>
<stop offset="0.333333" stop-color="#44C7FF"/>
<stop offset="0.444444" stop-color="#73B9FF"/>
<stop offset="0.555556" stop-color="#9BA9FF"/>
<stop offset="0.666667" stop-color="#BF96FF"/>
<stop offset="0.777778" stop-color="#DC82EB"/>
<stop offset="0.888889" stop-color="#F26CCC"/>
<stop offset="1" stop-color="#FF58A8"/>
</linearGradient>
<linearGradient id="paint2_linear_21_62" x1="483.559" y1="257.259" x2="505.35" y2="399.402" gradientUnits="userSpaceOnUse">
<stop stop-color="#2FE6FF"/>
<stop offset="0.111111" stop-color="#00DDFF"/>
<stop offset="0.222222" stop-color="#00D3FF"/>
<stop offset="0.333333" stop-color="#44C7FF"/>
<stop offset="0.444444" stop-color="#73B9FF"/>
<stop offset="0.555556" stop-color="#9BA9FF"/>
<stop offset="0.666667" stop-color="#BF96FF"/>
<stop offset="0.777778" stop-color="#DC82EB"/>
<stop offset="0.888889" stop-color="#F26CCC"/>
<stop offset="1" stop-color="#FF58A8"/>
</linearGradient>
</defs>
</svg>
