<svg width="36" height="36" viewBox="0 0 36 36" fill="none" xmlns="http://www.w3.org/2000/svg">
  <g clip-path="url(#clip0_739_195)">
    <path
      d="M30 17.8277C30 21.007 29.4672 23.586 28.8097 23.586C28.1522 23.586 27.6196 21.0077 27.6196 17.8277C27.6196 14.6477 28.1525 12.0695 28.8097 12.0695C29.467 12.0695 30 14.6475 30 17.8277Z"
      fill="white" />
    <path
      d="M26.9627 17.8277C26.9627 21.377 25.4474 24.2554 23.5783 24.2554C21.7091 24.2554 20.1938 21.377 20.1938 17.8277C20.1938 14.2783 21.7089 11.3999 23.578 11.3999C25.4472 11.3999 26.9625 14.2774 26.9625 17.8277"
      fill="white" />
    <path
      d="M19.5374 17.8277C19.5374 21.5984 16.5069 24.6552 12.7688 24.6552C9.03073 24.6552 6 21.5977 6 17.8277C6 14.0577 9.0305 11 12.7688 11C16.5072 11 19.5374 14.057 19.5374 17.8277Z"
      fill="white" />
  </g>
  <defs>
    <clipPath id="clip0_739_195">
      <rect width="24" height="24" fill="white" transform="translate(6 6)" />
    </clipPath>
  </defs>
</svg>
