<svg width="158" height="26" viewBox="0 0 158 26" fill="none" xmlns="http://www.w3.org/2000/svg">
  <g clip-path="url(#clip0_1703_653)">
    <path d="M0.552002 4V22" stroke="white" stroke-opacity="0.1" />
    <path fill-rule="evenodd" clip-rule="evenodd"
      d="M16.8789 20.702C18.0071 21.9388 19.1418 23.1623 20.9897 23.261C20.86 23.3268 20.7692 23.3728 20.672 23.4189C20.5942 23.4584 20.4645 23.4649 20.458 23.5636C20.4515 23.6623 20.5358 23.6952 20.6136 23.7281C20.6331 23.7347 20.6525 23.7412 20.672 23.7544C22.643 24.7477 24.7373 25.1688 26.9029 24.9385C30.2291 24.5899 33.069 23.1755 35.2476 20.5178C37.4132 17.8733 38.3339 14.7947 37.9772 11.3476C37.6595 8.22287 36.3239 5.61126 34.0481 3.51276C32.479 2.0721 30.6635 1.15113 28.6146 0.710377C28.3618 0.657749 28.1932 0.578809 28.0505 0.335409C27.8366 -0.0395577 27.2984 -0.105341 26.9677 0.164372C26.6306 0.440663 26.5722 0.960354 26.851 1.29585C27.1298 1.63135 27.655 1.68397 27.9468 1.36821C28.1283 1.17086 28.3034 1.17744 28.5109 1.23007C32.2974 2.12473 34.9947 4.38768 36.6156 8.02552C36.8037 8.45312 36.9787 8.90044 37.0565 9.37409C36.7648 8.8215 36.46 8.2755 36.0775 7.78212C35.7014 7.28875 35.2994 6.8151 34.8261 6.40724C31.889 3.90089 28.6535 3.40093 25.1199 4.83501C24.9578 4.9008 24.8216 4.94027 24.6465 4.84817C24.2251 4.63108 23.7583 4.84159 23.5897 5.28892C23.4406 5.68362 23.661 6.15069 24.0565 6.28883C24.4974 6.44013 24.9383 6.20331 25.0485 5.72309C25.1004 5.47969 25.2301 5.3547 25.4376 5.26261C26.9548 4.61135 28.5303 4.40742 30.1448 4.69687C33.2376 5.24945 35.4486 7.02561 36.7388 9.98588C37.4326 11.5778 37.6466 13.2619 37.3094 14.9723C36.7583 17.8207 35.3383 20.1363 33.1079 21.8993C30.9034 23.6426 28.4655 23.9715 25.8914 22.9518C24.5169 22.4058 23.4406 21.4125 22.5717 20.1889C22.1892 19.6495 21.8909 19.064 21.6316 18.4259C21.7353 18.4522 21.7418 18.5246 21.7677 18.5706C22.1438 19.2811 22.5977 19.9389 23.1682 20.4981C24.8475 22.1361 26.8251 22.9189 29.1528 22.6887C32.6735 22.3335 35.5004 19.1759 35.5393 15.5117C35.5588 13.7619 35.0595 12.1765 34.0027 10.8016C33.873 10.6306 33.7952 10.4727 33.8276 10.2424C33.8924 9.74905 33.5553 9.36751 33.0885 9.35435C32.654 9.34119 32.2845 9.71616 32.3039 10.1503C32.3234 10.6306 32.6994 10.9792 33.1663 10.9134C33.3802 10.8805 33.4969 10.9595 33.6136 11.1174C34.5732 12.4199 35.0466 13.8803 35.0141 15.5249C34.9817 17.3142 34.3463 18.8404 33.1663 20.1231C31.9603 21.4257 30.456 22.1098 28.7184 22.2151C27.5707 22.2808 26.4555 22.0901 25.483 21.3993C24.0176 20.3534 23.4017 18.1759 24.1149 16.3866C25.1263 13.854 27.0261 12.512 29.6456 12.2423C30.255 12.1765 30.7802 12.4199 31.1952 12.9001C31.3962 13.1303 31.4805 13.4264 31.6296 13.7421C31.7333 13.5974 31.7463 13.479 31.7722 13.3606C32.064 11.7883 31.1952 10.2819 29.6974 9.76879C28.8027 9.45961 28.1478 8.88729 27.7847 7.98605C27.7523 7.91369 27.7458 7.82159 27.655 7.7887C27.5448 7.86106 27.5578 7.98605 27.5318 8.0913C27.3568 8.86755 27.3697 9.6438 27.5318 10.42C27.5837 10.6766 27.5253 10.7687 27.279 10.8147C26.5139 10.9726 25.7423 10.9989 24.9837 10.8147C22.6236 10.2556 20.8211 7.92684 20.7822 5.42706C20.7563 3.88115 21.262 2.56547 22.3383 1.48004C22.4485 1.36821 22.6041 1.27611 22.6625 1.07219C22.3253 1.13139 22.053 1.26296 21.7742 1.36821C19.9458 2.07868 18.3962 3.16411 17.3847 4.93369C16.3149 6.8151 16.1074 8.76888 17.0929 10.7753C17.0929 10.7819 17.0994 10.7884 17.1059 10.8016C17.1253 10.8345 17.1513 10.874 17.1059 10.9134C17.0281 10.8871 17.0021 10.8147 16.9632 10.7621C16.2111 9.61091 15.8091 8.34786 15.7832 6.95983C15.7832 6.94009 15.7832 6.91378 15.7832 6.88746C15.7897 6.80194 15.7961 6.70327 15.7183 6.68353C15.6146 6.65064 15.5822 6.74932 15.5498 6.83484C15.5433 6.86115 15.5303 6.88746 15.5173 6.9072C15.0959 7.73607 14.8041 8.60442 14.6485 9.53197C14.3827 11.1305 14.4929 12.6764 15.1932 14.15C15.5173 14.8276 15.9777 15.3999 16.5353 15.8932C15.5238 15.3078 14.7587 14.446 14.0844 13.3803C14.0779 13.4461 14.065 13.4921 14.065 13.525C14.0585 13.5842 14.052 13.6106 14.052 13.6434C14.1557 14.8539 14.3956 16.0314 14.8884 17.1431C15.5757 18.6956 16.5418 19.9324 18.2859 20.2679C17.7672 20.2942 17.2615 20.2152 16.7298 20.1297C16.6196 20.11 16.5029 20.0968 16.3927 20.0771C16.5159 20.3797 16.7039 20.5573 16.8725 20.7415L16.8789 20.702ZM30.3134 11.3081L29.4186 10.1964L29.3927 10.3477C29.3538 10.5845 29.4446 10.8279 29.6196 10.92L30.3134 11.3081Z"
      fill="url(#paint0_linear_1703_653)" />
    <path fill-rule="evenodd" clip-rule="evenodd"
      d="M27.6837 8.24862C27.7927 9.83664 27.9017 10.7092 28.0106 10.8662C26.6681 11.2545 25.3606 11.2545 24.0879 10.8662C22.1788 10.2838 18.5307 6.93981 21.597 1.70459C17.1556 3.88593 15.8632 7.15794 17.72 11.5206C16.517 11.1847 15.8284 9.96969 15.654 7.87561C14.0849 10.6677 14.6363 13.4729 17.3081 16.2912C16.7459 16.3916 15.848 15.8288 14.6145 14.6029C14.8194 17.6611 16.2185 19.5087 18.8118 20.1457C18.1885 20.3028 17.6263 20.366 17.1251 20.3355C17.8747 21.5701 18.8903 22.4099 20.1717 22.8549C20.1848 22.8549 20.1979 22.868 20.2175 22.868C21.512 23.3043 21.9718 20.811 21.597 15.3882L24.6502 15.1984C25.9403 13.1828 27.6576 12.1379 29.802 12.0638L27.6837 8.24862Z"
      fill="url(#paint1_linear_1703_653)" />
    <mask id="mask0_1703_653" style="mask-type:luminance" maskUnits="userSpaceOnUse" x="42" y="1" width="116"
      height="13">
      <path d="M157.052 1H42.052V14H157.052V1Z" fill="white" />
    </mask>
    <g mask="url(#mask0_1703_653)">
      <path
        d="M46.8356 1.68408C47.4024 1.68408 47.9278 1.79812 48.4394 2.01193C48.9371 2.24 49.3795 2.53934 49.7528 2.92421C50.1261 3.30908 50.4302 3.76522 50.6514 4.27838C50.8726 4.79154 50.9832 5.34746 50.9832 5.94614C50.9832 6.54483 50.8726 7.08649 50.6653 7.59965C50.444 8.12706 50.1537 8.5832 49.7804 8.96807C49.4071 9.35294 48.9647 9.66654 48.467 9.89461C47.9693 10.1227 47.4301 10.2367 46.8494 10.2367H44.5406V13.6435H42.052V1.68408H46.8356ZM46.5591 7.85623C46.808 7.85623 47.0568 7.79921 47.278 7.69943C47.4992 7.59965 47.6928 7.45711 47.8587 7.28605C48.0246 7.115 48.149 6.91544 48.2458 6.68737C48.3426 6.4593 48.3841 6.21697 48.3841 5.94614C48.3841 5.67531 48.3426 5.46149 48.2458 5.23342C48.149 5.00535 48.0246 4.80579 47.8587 4.63474C47.6928 4.46369 47.4992 4.32114 47.278 4.22136C47.0568 4.12158 46.8218 4.06456 46.5591 4.06456H44.5406V7.84198H46.5453L46.5591 7.85623Z"
        fill="white" />
      <path
        d="M57.08 4.60623C57.5778 4.60623 58.0478 4.70601 58.4764 4.89132C58.905 5.09088 59.2921 5.34746 59.6101 5.68956C59.9419 6.03167 60.1908 6.41654 60.3843 6.85842C60.5779 7.30031 60.6608 7.78496 60.6608 8.29812V13.6578H58.1723V8.79702C58.1723 8.54044 58.1169 8.31237 58.0202 8.0843C57.9234 7.85623 57.7851 7.65667 57.6192 7.48562C57.4533 7.31456 57.2598 7.18627 57.0386 7.08649C56.8174 6.98671 56.5823 6.94395 56.3473 6.94395C56.1123 6.94395 55.8496 7.00097 55.6284 7.10075C55.4072 7.20053 55.2136 7.34307 55.0477 7.51412C54.8818 7.68518 54.7435 7.88474 54.6468 8.11281C54.55 8.34088 54.4947 8.5832 54.4947 8.85404V13.672H52.0061V1.68408H54.4947V5.94614C54.8403 5.54702 55.2274 5.21917 55.6422 4.97684C56.0708 4.73452 56.5408 4.60623 57.0662 4.60623H57.08Z"
        fill="white" />
      <path
        d="M66.2462 14C65.5549 14 64.9189 13.8717 64.3244 13.6294C63.7299 13.387 63.2046 13.0449 62.7622 12.6173C62.3197 12.1897 61.9741 11.6908 61.7252 11.1206C61.4764 10.5504 61.3381 9.95171 61.3381 9.31027C61.3381 8.66882 61.4626 8.04163 61.7252 7.47145C61.9879 6.90128 62.3336 6.40237 62.7898 5.97474C63.2322 5.54711 63.7576 5.21926 64.3521 4.97694C64.9466 4.73461 65.5687 4.60632 66.2462 4.60632C66.9236 4.60632 67.5596 4.73461 68.1541 4.97694C68.7486 5.23352 69.2739 5.56137 69.7163 5.989C70.1588 6.41663 70.5044 6.91553 70.7533 7.48571C71.0021 8.05588 71.1404 8.65457 71.1404 9.29601C71.1404 9.93746 71.0159 10.5504 70.7533 11.1206C70.4906 11.6908 70.1449 12.1897 69.7025 12.603C69.2601 13.0307 68.7486 13.3585 68.1402 13.6008C67.5458 13.8432 66.9098 13.9715 66.2462 13.9715V14ZM66.2462 6.92979C65.8867 6.92979 65.5549 7.00106 65.2646 7.12935C64.9742 7.27189 64.7254 7.44294 64.518 7.67101C64.3106 7.89908 64.1585 8.15566 64.0341 8.44075C63.9097 8.72584 63.8544 9.01093 63.8544 9.29601C63.8544 9.5811 63.9097 9.88044 64.0064 10.1513C64.117 10.4364 64.2691 10.6787 64.4765 10.9068C64.6839 11.1348 64.9327 11.3201 65.2369 11.4484C65.5411 11.591 65.8729 11.648 66.2462 11.648C66.6194 11.648 66.9513 11.5767 67.2554 11.4484C67.5458 11.3059 67.7946 11.1348 68.002 10.9068C68.2094 10.6787 68.3615 10.4221 68.4721 10.1513C68.5827 9.88044 68.638 9.5811 68.638 9.29601C68.638 9.01093 68.5827 8.72584 68.4582 8.44075C68.3338 8.15566 68.1817 7.89908 67.9743 7.67101C67.767 7.44294 67.5181 7.25764 67.2278 7.12935C66.9374 6.9868 66.6056 6.92979 66.2462 6.92979Z"
        fill="white" />
      <path
        d="M76.3809 4.60632C77.0445 4.60632 77.6667 4.73461 78.2335 4.97694C78.8003 5.23352 79.2981 5.56137 79.7128 5.989C80.1276 6.41663 80.4594 6.91553 80.6944 7.48571C80.9295 8.05588 81.0539 8.65457 81.0539 9.29601C81.0539 9.4243 81.0539 9.55259 81.0401 9.69514C81.0262 9.83768 81.0124 9.96597 80.9848 10.0943H74.2656C74.4038 10.5219 74.6665 10.8925 75.026 11.2061C75.3855 11.5197 75.8417 11.6765 76.3947 11.6765C76.7956 11.6765 77.1828 11.591 77.5699 11.4342C77.957 11.2774 78.2473 11.0636 78.4409 10.807L80.4456 12.0756C80.2244 12.375 79.9617 12.6458 79.6713 12.8739C79.3672 13.1162 79.0492 13.3158 78.6897 13.4726C78.3303 13.6436 77.9708 13.7719 77.5837 13.8574C77.1966 13.943 76.8095 14 76.4085 14C75.7449 14 75.1228 13.8717 74.5421 13.6294C73.9614 13.387 73.4637 13.0449 73.0351 12.6173C72.6065 12.1897 72.2747 11.6908 72.0259 11.1206C71.777 10.5504 71.6526 9.95172 71.6526 9.31027C71.6526 8.66882 71.777 8.04163 72.0397 7.47145C72.3024 6.90128 72.6342 6.40237 73.0628 5.97474C73.4914 5.54712 74.0029 5.21926 74.5698 4.97694C75.1366 4.73461 75.7587 4.60633 76.4085 4.60633L76.3809 4.60632ZM76.3809 6.92978C75.8832 6.92978 75.4546 7.07233 75.1089 7.34316C74.7633 7.61399 74.5006 7.94185 74.3209 8.34097H78.4409C78.275 7.9561 78.0123 7.62825 77.6667 7.34316C77.3072 7.07233 76.8924 6.92978 76.3947 6.92978H76.3809Z"
        fill="white" />
      <path
        d="M86.874 4.60632C87.3717 4.60632 87.8418 4.7061 88.2703 4.89141C88.6989 5.09097 89.086 5.34755 89.404 5.68965C89.7358 6.03176 89.9847 6.41663 90.1783 6.85851C90.3718 7.3004 90.4548 7.78505 90.4548 8.29821V13.6579H87.9662V8.79711C87.9662 8.54053 87.9109 8.31246 87.8141 8.08439C87.7173 7.85632 87.5791 7.65676 87.4132 7.48571C87.2473 7.31465 87.0537 7.18636 86.8325 7.08658C86.6113 6.9868 86.3763 6.94404 86.1412 6.94404C85.8924 6.94404 85.6435 7.00106 85.4223 7.10084C85.2011 7.20062 85.0076 7.34316 84.8417 7.51421C84.6757 7.68527 84.5513 7.88483 84.4407 8.1129C84.3301 8.34097 84.2886 8.58329 84.2886 8.85413V13.6721H81.8V4.94843H84.2886V5.94623C84.6343 5.54711 85.0214 5.21926 85.4361 4.97694C85.8509 4.73461 86.3348 4.60632 86.8602 4.60632H86.874Z"
        fill="white" />
      <path
        d="M92.7773 1C93.1782 1 93.5238 1.14254 93.8142 1.44189C94.1045 1.74123 94.2428 2.09759 94.2428 2.52522C94.2428 2.95285 94.1045 3.30921 93.8142 3.60855C93.5238 3.90789 93.1782 4.05044 92.7773 4.05044C92.3763 4.05044 92.0307 3.90789 91.7404 3.60855C91.45 3.30921 91.3118 2.95285 91.3118 2.52522C91.3118 2.09759 91.45 1.74123 91.7404 1.44189C92.0307 1.14254 92.3763 1 92.7773 1ZM91.5468 4.94846H94.0354V13.6579H91.5468V4.94846Z"
        fill="white" />
      <path
        d="M100.796 9.3102L104.087 13.6578H101.211L99.3721 11.206L97.5333 13.6578H94.6438L97.9343 9.3102L94.6438 4.94836H97.5195L99.3721 7.40011L101.211 4.94836H104.087L100.796 9.3102Z"
        fill="white" />
      <path
        d="M114.165 7.31456C114.525 7.68518 114.801 8.0843 115.023 8.52619C115.244 8.96807 115.354 9.48123 115.354 10.0514C115.354 10.5361 115.271 10.9779 115.092 11.3913C114.926 11.8047 114.691 12.1753 114.4 12.4889C114.11 12.8025 113.764 13.0734 113.35 13.2729C112.935 13.4725 112.506 13.6008 112.05 13.6435H106.243V1.68408H111.456C111.898 1.71259 112.313 1.84088 112.714 2.04044C113.115 2.24 113.46 2.49658 113.764 2.82443C114.069 3.13803 114.304 3.50864 114.483 3.93627C114.663 4.3639 114.746 4.82004 114.746 5.30469C114.746 6.01741 114.552 6.68737 114.152 7.32882L114.165 7.31456ZM108.704 6.48781H111.055C111.373 6.48781 111.649 6.37377 111.884 6.1457C112.119 5.91763 112.23 5.63254 112.23 5.29044C112.23 4.94833 112.119 4.6775 111.884 4.44943C111.663 4.22136 111.373 4.09307 111.041 4.07882H108.69V6.48781H108.704ZM111.635 11.263C111.953 11.263 112.23 11.149 112.479 10.9067C112.728 10.6643 112.838 10.3793 112.838 10.0372C112.838 9.69504 112.728 9.42421 112.493 9.18189C112.257 8.93956 111.981 8.81127 111.649 8.81127H108.718V11.263H111.649H111.635Z"
        fill="#FACC53" />
      <path
        d="M120.802 13.9996C120.111 13.9996 119.475 13.8713 118.88 13.629C118.286 13.3867 117.76 13.0446 117.318 12.6169C116.875 12.1893 116.53 11.6904 116.281 11.1202C116.032 10.55 115.894 9.95135 115.894 9.30991C115.894 8.66846 116.018 8.04127 116.281 7.47109C116.544 6.90092 116.889 6.40201 117.345 5.97438C117.788 5.54675 118.313 5.2189 118.908 4.97657C119.502 4.73425 120.124 4.60596 120.802 4.60596C121.479 4.60596 122.115 4.73425 122.71 4.97657C123.304 5.23315 123.83 5.561 124.272 5.98864C124.714 6.41627 125.06 6.91517 125.309 7.48535C125.558 8.05552 125.696 8.65421 125.696 9.29565C125.696 9.9371 125.572 10.55 125.309 11.1202C125.046 11.6904 124.701 12.1893 124.258 12.6027C123.816 13.0303 123.304 13.3581 122.696 13.6005C122.101 13.8428 121.465 13.9711 120.802 13.9711V13.9996ZM120.802 6.92943C120.442 6.92943 120.111 7.0007 119.82 7.12899C119.53 7.27153 119.281 7.44258 119.074 7.67065C118.866 7.89872 118.714 8.1553 118.59 8.44039C118.465 8.72548 118.41 9.01057 118.41 9.29565C118.41 9.58074 118.465 9.88008 118.562 10.1509C118.659 10.4217 118.825 10.6783 119.032 10.9064C119.24 11.1345 119.488 11.3198 119.793 11.4481C120.097 11.5906 120.429 11.6476 120.802 11.6476C121.175 11.6476 121.507 11.5764 121.811 11.4481C122.101 11.3055 122.35 11.1345 122.558 10.9064C122.765 10.6783 122.917 10.4217 123.028 10.1509C123.138 9.86583 123.194 9.58074 123.194 9.29565C123.194 9.01057 123.138 8.72548 123.014 8.44039C122.903 8.1553 122.737 7.89872 122.53 7.67065C122.323 7.44258 122.074 7.25728 121.783 7.12899C121.493 6.98644 121.161 6.92943 120.802 6.92943Z"
        fill="#FACC53" />
      <path
        d="M131.613 4.60596C132.111 4.60596 132.581 4.70574 133.01 4.89105C133.438 5.09061 133.825 5.34719 134.143 5.68929C134.461 6.0314 134.724 6.41627 134.918 6.85815C135.111 7.30004 135.194 7.78469 135.194 8.29785V13.6575H132.705V8.79675C132.705 8.54017 132.65 8.3121 132.553 8.08403C132.457 7.85596 132.318 7.6564 132.152 7.48535C131.987 7.31429 131.793 7.186 131.572 7.08622C131.351 6.98644 131.116 6.94368 130.88 6.94368C130.632 6.94368 130.383 7.0007 130.162 7.10048C129.94 7.20026 129.747 7.3428 129.581 7.51385C129.415 7.68491 129.277 7.88447 129.18 8.11254C129.083 8.34061 129.028 8.58293 129.028 8.85377V13.6717H126.539V4.94806H129.028V5.94587C129.374 5.54675 129.761 5.2189 130.175 4.97657C130.604 4.73425 131.074 4.60596 131.599 4.60596H131.613Z"
        fill="#FACC53" />
      <path
        d="M145.411 1.68408V13.6578H142.922V12.9593C142.563 13.2729 142.162 13.5152 141.747 13.7148C141.332 13.9001 140.89 13.9999 140.42 13.9999C139.784 13.9999 139.203 13.8716 138.65 13.6293C138.097 13.387 137.613 13.0448 137.212 12.6172C136.797 12.1896 136.48 11.6907 136.244 11.1205C136.009 10.5503 135.885 9.95162 135.885 9.31018C135.885 8.66873 136.009 8.04154 136.244 7.47136C136.48 6.90118 136.811 6.40228 137.226 5.97465C137.641 5.54702 138.125 5.21917 138.678 4.97684C139.231 4.73452 139.811 4.60623 140.434 4.60623C140.904 4.60623 141.346 4.70601 141.775 4.89132C142.203 5.07662 142.59 5.31895 142.95 5.61829V1.68408H145.438H145.411ZM140.669 11.6764C140.987 11.6764 141.291 11.6194 141.581 11.4911C141.871 11.3628 142.106 11.1918 142.314 10.9922C142.521 10.7926 142.687 10.5361 142.812 10.2367C142.936 9.95162 142.991 9.63803 142.991 9.31018C142.991 8.98232 142.936 8.66873 142.812 8.38364C142.687 8.09855 142.521 7.84197 142.314 7.62816C142.106 7.41434 141.858 7.24329 141.581 7.12926C141.305 7.00097 141 6.94395 140.669 6.94395C140.337 6.94395 140.046 7.00097 139.756 7.12926C139.466 7.25755 139.231 7.4286 139.023 7.62816C138.816 7.84198 138.65 8.0843 138.539 8.38364C138.415 8.66873 138.36 8.98232 138.36 9.31018C138.36 9.63803 138.415 9.95162 138.539 10.2367C138.664 10.5218 138.83 10.7784 139.023 10.9922C139.217 11.206 139.48 11.3628 139.756 11.4911C140.033 11.6194 140.337 11.6764 140.669 11.6764Z"
        fill="#FACC53" />
      <path
        d="M150.65 8.16989C151.065 8.26967 151.48 8.39796 151.908 8.52625C152.337 8.66879 152.724 8.83985 153.084 9.06792C153.443 9.29599 153.72 9.58108 153.941 9.90893C154.162 10.251 154.286 10.6644 154.286 11.1633C154.286 11.705 154.162 12.1469 153.899 12.5032C153.65 12.8596 153.319 13.1589 152.932 13.3727C152.544 13.6008 152.116 13.7576 151.646 13.8431C151.176 13.9287 150.719 13.9857 150.277 13.9857C149.42 13.9857 148.646 13.7861 147.982 13.3727C147.318 12.9736 146.752 12.3892 146.281 11.648L148.438 10.4649C148.659 10.8497 148.95 11.1491 149.309 11.3486C149.669 11.5482 150.028 11.648 150.374 11.648C150.885 11.648 151.245 11.6052 151.48 11.5339C151.701 11.4484 151.825 11.3486 151.825 11.2061C151.825 11.092 151.756 10.9923 151.604 10.9067C151.452 10.8212 151.286 10.7499 151.093 10.6787C150.899 10.6074 150.706 10.5504 150.526 10.5219C150.332 10.4791 150.208 10.4506 150.125 10.4506C149.724 10.3651 149.323 10.2653 148.908 10.137C148.494 10.0087 148.134 9.8234 147.802 9.60958C147.47 9.38151 147.194 9.11068 146.987 8.78283C146.765 8.45498 146.669 8.05586 146.669 7.57121C146.669 7.08656 146.765 6.64467 146.973 6.27406C147.18 5.90344 147.443 5.58985 147.775 5.34752C148.106 5.09095 148.48 4.90564 148.908 4.77735C149.337 4.64906 149.765 4.59204 150.208 4.59204C151.01 4.59204 151.756 4.7916 152.434 5.17647C153.111 5.56134 153.692 6.08875 154.148 6.77296L152.143 8.07011C151.895 7.67099 151.604 7.3859 151.272 7.20059C150.941 7.01529 150.609 6.92976 150.291 6.92976C149.931 6.92976 149.641 6.98678 149.434 7.08656C149.226 7.18634 149.116 7.31463 149.116 7.48568C149.116 7.55695 149.171 7.61397 149.268 7.68524C149.365 7.75651 149.489 7.81353 149.641 7.87055C149.793 7.92757 149.959 7.98458 150.139 8.0416C150.318 8.09862 150.498 8.14138 150.664 8.16989H150.65Z"
        fill="#FACC53" />
    </g>
    <path
      d="M44.847 16.7195C45.289 16.7195 45.6844 16.8224 46.0333 17.0282C46.3821 17.2317 46.6551 17.5152 46.8523 17.8788C47.0494 18.2424 47.148 18.6517 47.148 19.1067C47.148 19.5869 47.0505 20.0122 46.8555 20.3826C46.6605 20.753 46.3897 21.04 46.043 21.2435C45.6964 21.447 45.3042 21.5488 44.8665 21.5488H43.2675V23.7439H42.052V16.7195H44.847ZM44.808 20.3895C45.016 20.3895 45.2056 20.3335 45.3768 20.2214C45.5501 20.1071 45.6855 19.9527 45.783 19.7584C45.8827 19.564 45.9325 19.3468 45.9325 19.1067C45.9325 18.8918 45.8816 18.6905 45.7798 18.503C45.6801 18.3155 45.5436 18.1646 45.3703 18.0503C45.1969 17.936 45.0063 17.8788 44.7983 17.8788H43.2675V20.3895H44.808ZM50.2648 23.8537C49.7665 23.8537 49.3169 23.7313 48.916 23.4867C48.5152 23.242 48.201 22.9104 47.9735 22.492C47.746 22.0736 47.6323 21.6128 47.6323 21.1098C47.6323 20.609 47.746 20.1494 47.9735 19.7309C48.201 19.3102 48.5152 18.9775 48.916 18.7328C49.3169 18.4882 49.7675 18.3659 50.268 18.3659C50.7729 18.3659 51.2268 18.4882 51.6298 18.7328C52.0328 18.9775 52.348 19.3102 52.5755 19.7309C52.803 20.1494 52.9168 20.609 52.9168 21.1098C52.9168 21.6128 52.803 22.0747 52.5755 22.4954C52.348 22.9139 52.0317 23.2454 51.6265 23.4901C51.2214 23.7325 50.7675 23.8537 50.2648 23.8537ZM50.2745 22.6944C50.554 22.6944 50.8043 22.6269 51.0253 22.492C51.2485 22.3571 51.424 22.1696 51.5518 21.9295C51.6818 21.6871 51.7468 21.415 51.7468 21.1132C51.7468 20.8136 51.6818 20.5427 51.5518 20.3003C51.424 20.0579 51.2474 19.8681 51.022 19.7309C50.7989 19.5937 50.5497 19.5252 50.2745 19.5252C49.9972 19.5252 49.7459 19.5937 49.5205 19.7309C49.2974 19.8681 49.1219 20.0579 48.994 20.3003C48.8662 20.5427 48.8023 20.8136 48.8023 21.1132C48.8023 21.415 48.8662 21.6871 48.994 21.9295C49.1219 22.1696 49.2974 22.3571 49.5205 22.492C49.7437 22.6269 49.995 22.6944 50.2745 22.6944ZM53.3751 18.4756H54.6426L55.6241 21.8232L55.7118 22.1353H55.7248L55.8191 21.8232L56.7681 18.4756H57.6423L58.5588 21.7854L58.6596 22.1353H58.6758L58.7928 21.7649L59.7711 18.4756H61.0158L59.3226 23.7439H58.2306L57.1873 20.3517H57.1841L56.1246 23.7439H55.0618L53.3751 18.4756ZM66.4824 20.9314C66.4824 21.0412 66.4748 21.1738 66.4596 21.3293H62.5433C62.5823 21.6105 62.6679 21.854 62.8001 22.0598C62.9322 22.2656 63.0958 22.4234 63.2908 22.5332C63.488 22.6406 63.7025 22.6944 63.9343 22.6944C64.2268 22.6944 64.4663 22.6338 64.6526 22.5126C64.8389 22.3891 64.9765 22.2119 65.0654 21.9809H66.3524C66.2635 22.3171 66.1086 22.628 65.8876 22.9139C65.6666 23.1974 65.3893 23.4249 65.0556 23.5964C64.7241 23.7679 64.3579 23.8537 63.9571 23.8537C63.4674 23.8537 63.0243 23.7313 62.6278 23.4867C62.2313 23.242 61.9204 22.9104 61.6951 22.492C61.4719 22.0713 61.3603 21.6105 61.3603 21.1098C61.3603 20.609 61.4719 20.1494 61.6951 19.7309C61.9204 19.3102 62.2313 18.9775 62.6278 18.7328C63.0243 18.4882 63.4674 18.3659 63.9571 18.3659C64.449 18.3659 64.8866 18.4825 65.2701 18.7157C65.6536 18.9489 65.9516 19.2611 66.1639 19.6521C66.3762 20.0431 66.4824 20.4695 66.4824 20.9314ZM65.2799 20.4512C65.2626 20.2843 65.1921 20.13 65.0686 19.9882C64.9451 19.8464 64.7848 19.7344 64.5876 19.6521C64.3926 19.5675 64.1813 19.5252 63.9538 19.5252C63.6375 19.5252 63.3547 19.604 63.1056 19.7618C62.8586 19.9173 62.6874 20.1471 62.5921 20.4512H65.2799ZM68.6696 18.4756V19.5149C68.7909 19.1902 68.9654 18.9364 69.1929 18.7534C69.4226 18.5682 69.6966 18.4756 70.0151 18.4756H70.5514V19.6349H70.0801C69.8093 19.6349 69.571 19.7024 69.3651 19.8373C69.1614 19.9699 69.0022 20.1654 68.8874 20.4238C68.7747 20.6799 68.7184 20.9886 68.7184 21.3498V23.7439H67.5386V18.4756H68.6696ZM76.2584 20.9314C76.2584 21.0412 76.2508 21.1738 76.2357 21.3293H72.3194C72.3584 21.6105 72.444 21.854 72.5761 22.0598C72.7083 22.2656 72.8719 22.4234 73.0669 22.5332C73.264 22.6406 73.4785 22.6944 73.7104 22.6944C74.0029 22.6944 74.2423 22.6338 74.4286 22.5126C74.615 22.3891 74.7526 22.2119 74.8414 21.9809H76.1284C76.0396 22.3171 75.8847 22.628 75.6637 22.9139C75.4427 23.1974 75.1653 23.4249 74.8316 23.5964C74.5001 23.7679 74.134 23.8537 73.7331 23.8537C73.2434 23.8537 72.8004 23.7313 72.4039 23.4867C72.0074 23.242 71.6964 22.9104 71.4711 22.492C71.248 22.0713 71.1364 21.6105 71.1364 21.1098C71.1364 20.609 71.248 20.1494 71.4711 19.7309C71.6964 19.3102 72.0074 18.9775 72.4039 18.7328C72.8004 18.4882 73.2434 18.3659 73.7331 18.3659C74.225 18.3659 74.6626 18.4825 75.0461 18.7157C75.4296 18.9489 75.7276 19.2611 75.9399 19.6521C76.1522 20.0431 76.2584 20.4695 76.2584 20.9314ZM75.0559 20.4512C75.0386 20.2843 74.9681 20.13 74.8446 19.9882C74.7211 19.8464 74.5608 19.7344 74.3636 19.6521C74.1686 19.5675 73.9574 19.5252 73.7299 19.5252C73.4136 19.5252 73.1308 19.604 72.8816 19.7618C72.6346 19.9173 72.4634 20.1471 72.3681 20.4512H75.0559ZM79.3817 23.8537C78.918 23.8537 78.5009 23.7325 78.1304 23.4901C77.7621 23.2454 77.475 22.9139 77.2692 22.4954C77.0633 22.0747 76.9604 21.6128 76.9604 21.1098C76.9604 20.6067 77.0622 20.146 77.2659 19.7275C77.4718 19.3091 77.7599 18.9775 78.1304 18.7328C78.5009 18.4882 78.9234 18.3659 79.3979 18.3659C79.6579 18.3659 79.8995 18.415 80.1227 18.5133C80.348 18.6117 80.5419 18.7386 80.7044 18.8941C80.8669 19.0495 80.9948 19.2176 81.0879 19.3983L81.0652 18.8323V16.5H82.2384V23.7439H81.1172V22.8076C80.9547 23.1094 80.7228 23.3598 80.4217 23.5587C80.1227 23.7553 79.776 23.8537 79.3817 23.8537ZM79.5962 22.6944C79.867 22.6944 80.1151 22.6246 80.3404 22.4851C80.5657 22.3457 80.7445 22.1547 80.8767 21.9123C81.0088 21.6677 81.0749 21.399 81.0749 21.1063C81.0749 20.8136 81.0099 20.5473 80.8799 20.3072C80.7499 20.0648 80.5712 19.8739 80.3437 19.7344C80.1184 19.5949 79.8692 19.5252 79.5962 19.5252C79.321 19.5252 79.0707 19.5937 78.8454 19.7309C78.6223 19.8659 78.4457 20.0534 78.3157 20.2934C78.1857 20.5335 78.1207 20.8045 78.1207 21.1063C78.1207 21.4036 78.1835 21.6734 78.3092 21.9158C78.437 22.1559 78.6125 22.3457 78.8357 22.4851C79.061 22.6246 79.3145 22.6944 79.5962 22.6944ZM88.9075 23.8537C88.5435 23.8537 88.2066 23.7611 87.8967 23.5758C87.5869 23.3883 87.3453 23.1322 87.172 22.8076V23.7439H86.0507V16.5H87.2305V18.6848L87.2012 19.3983C87.3702 19.085 87.6053 18.8346 87.9065 18.6471C88.2076 18.4596 88.537 18.3659 88.8945 18.3659C89.3582 18.3659 89.7763 18.4893 90.149 18.7363C90.5217 18.9809 90.812 19.3125 91.02 19.7309C91.2301 20.1471 91.3352 20.6056 91.3352 21.1063C91.3352 21.6117 91.229 22.0736 91.0167 22.492C90.8066 22.9082 90.5173 23.2397 90.149 23.4867C89.7807 23.7313 89.3668 23.8537 88.9075 23.8537ZM88.693 22.6944C88.9595 22.6944 89.2043 22.6292 89.4275 22.4989C89.6528 22.3685 89.8316 22.1844 89.9637 21.9466C90.098 21.7066 90.1652 21.4265 90.1652 21.1063C90.1652 20.7976 90.0991 20.5232 89.967 20.2832C89.837 20.0431 89.6582 19.8567 89.4307 19.7241C89.2054 19.5915 88.9584 19.5252 88.6897 19.5252C88.4232 19.5252 88.1762 19.5949 87.9487 19.7344C87.7234 19.8739 87.5446 20.0659 87.4125 20.3106C87.2825 20.553 87.2175 20.8182 87.2175 21.1063C87.2175 21.4082 87.2836 21.6803 87.4157 21.9226C87.55 22.165 87.7299 22.3548 87.9552 22.492C88.1805 22.6269 88.4265 22.6944 88.693 22.6944ZM92.879 24.3407C93.0523 24.3407 93.1942 24.3121 93.3047 24.2549C93.4174 24.2001 93.5116 24.1155 93.5875 24.0011C93.6655 23.8868 93.7413 23.7313 93.815 23.5347L93.8735 23.3632L91.9527 18.4756H93.1975L94.3772 21.5865L94.504 22.1181L94.634 21.5934L95.7942 18.4756H97.052L95.0987 23.5964C94.8994 24.1178 94.7022 24.5133 94.5072 24.7832C94.3122 25.053 94.0901 25.2393 93.841 25.3422C93.594 25.4474 93.2766 25.5 92.8887 25.5H92.047V24.3407H92.879Z"
      fill="#868686" />
    <path
      d="M105.665 21.4712L107.476 21.9566L108.501 18.1325L104.274 17L103.789 18.8114L106.204 19.4586L105.665 21.4712Z"
      fill="url(#paint2_linear_1703_653)" />
    <path
      d="M102.418 20.5288L100.607 20.0434L99.582 23.8675L103.809 25L104.294 23.1886L101.879 22.5414L102.418 20.5288Z"
      fill="url(#paint3_linear_1703_653)" />
  </g>
  <defs>
    <linearGradient id="paint0_linear_1703_653" x1="26.1702" y1="0.0854314" x2="26.1702" y2="25.0832"
      gradientUnits="userSpaceOnUse">
      <stop offset="0.0428571" stop-color="#F1A276" />
      <stop offset="0.07" stop-color="#F6AF5C" />
      <stop offset="0.15" stop-color="#F5AE3B" />
      <stop offset="0.22" stop-color="#F5AE24" />
      <stop offset="0.28" stop-color="#F5AE1C" />
      <stop offset="0.32" stop-color="#F5AE18" />
      <stop offset="0.81" stop-color="#D67027" />
      <stop offset="1" stop-color="#C95919" />
    </linearGradient>
    <linearGradient id="paint1_linear_1703_653" x1="16.7427" y1="2.65792" x2="26.2453" y2="10.6264"
      gradientUnits="userSpaceOnUse">
      <stop stop-color="#D4711B" />
      <stop offset="0.242858" stop-color="#D67027" />
      <stop offset="0.425715" stop-color="#F5AE18" />
      <stop offset="0.65" stop-color="#E4BB56" />
      <stop offset="0.992855" stop-color="#F6D06F" stop-opacity="0" />
      <stop offset="0.996226" stop-color="#F6CF6F" stop-opacity="0.01" />
    </linearGradient>
    <linearGradient id="paint2_linear_1703_653" x1="100.063" y1="17.4607" x2="104.265" y2="22.8989"
      gradientUnits="userSpaceOnUse">
      <stop stop-color="#2FE6FF" />
      <stop offset="0.111111" stop-color="#00DDFF" />
      <stop offset="0.222222" stop-color="#00D3FF" />
      <stop offset="0.333333" stop-color="#44C7FF" />
      <stop offset="0.444444" stop-color="#73B9FF" />
      <stop offset="0.555556" stop-color="#9BA9FF" />
      <stop offset="0.666667" stop-color="#BF96FF" />
      <stop offset="0.777778" stop-color="#DC82EB" />
      <stop offset="0.888889" stop-color="#F26CCC" />
      <stop offset="1" stop-color="#FF58A8" />
    </linearGradient>
    <linearGradient id="paint3_linear_1703_653" x1="100.063" y1="17.4607" x2="104.265" y2="22.8989"
      gradientUnits="userSpaceOnUse">
      <stop stop-color="#2FE6FF" />
      <stop offset="0.111111" stop-color="#00DDFF" />
      <stop offset="0.222222" stop-color="#00D3FF" />
      <stop offset="0.333333" stop-color="#44C7FF" />
      <stop offset="0.444444" stop-color="#73B9FF" />
      <stop offset="0.555556" stop-color="#9BA9FF" />
      <stop offset="0.666667" stop-color="#BF96FF" />
      <stop offset="0.777778" stop-color="#DC82EB" />
      <stop offset="0.888889" stop-color="#F26CCC" />
      <stop offset="1" stop-color="#FF58A8" />
    </linearGradient>
    <clipPath id="clip0_1703_653">
      <rect width="157" height="26" fill="white" transform="translate(0.052002)" />
    </clipPath>
  </defs>
</svg>
