<svg width="47" height="46" viewBox="0 0 47 46" fill="none" xmlns="http://www.w3.org/2000/svg">
  <path
    d="M44.1774 10.0625V21.5625C44.1774 22.1344 43.9502 22.6828 43.5459 23.0872C43.1415 23.4916 42.593 23.7188 42.0212 23.7188C41.4493 23.7188 40.9008 23.4916 40.4965 23.0872C40.0921 22.6828 39.8649 22.1344 39.8649 21.5625V15.2734L26.2967 28.8434C26.0964 29.0445 25.8584 29.204 25.5963 29.3128C25.3342 29.4216 25.0532 29.4776 24.7694 29.4776C24.4856 29.4776 24.2046 29.4216 23.9425 29.3128C23.6804 29.204 23.4423 29.0445 23.242 28.8434L17.5837 23.1797L6.17171 34.588C5.76663 34.9931 5.21723 35.2207 4.64437 35.2207C4.0715 35.2207 3.5221 34.9931 3.11702 34.588C2.71194 34.183 2.48438 33.6336 2.48438 33.0607C2.48437 32.4878 2.71194 31.9384 3.11702 31.5334L16.0545 18.5959C16.2548 18.3948 16.4929 18.2353 16.755 18.1265C17.0171 18.0177 17.2981 17.9617 17.5819 17.9617C17.8657 17.9617 18.1467 18.0177 18.4088 18.1265C18.6709 18.2353 18.9089 18.3948 19.1092 18.5959L24.7712 24.2578L36.8102 12.2188H30.5212C29.9493 12.2188 29.4008 11.9916 28.9965 11.5872C28.5921 11.1828 28.3649 10.6344 28.3649 10.0625C28.3649 9.49063 28.5921 8.94218 28.9965 8.5378C29.4008 8.13343 29.9493 7.90625 30.5212 7.90625H42.0212C42.593 7.90625 43.1415 8.13343 43.5459 8.5378C43.9502 8.94218 44.1774 9.49063 44.1774 10.0625Z"
    fill="white" fill-opacity="0.4" />
</svg>
