<svg width="47" height="46" viewBox="0 0 47 46" fill="none" xmlns="http://www.w3.org/2000/svg">
  <path
    d="M42.1493 19.631L31.0662 15.6006L27.0358 4.51748C26.7844 3.8258 26.3262 3.22826 25.7234 2.806C25.1207 2.38374 24.4026 2.15723 23.6666 2.15723C22.9307 2.15723 22.2126 2.38374 21.6098 2.806C21.0071 3.22826 20.5489 3.8258 20.2975 4.51748L16.2671 15.6006L5.18398 19.631C4.4923 19.8824 3.89476 20.3406 3.4725 20.9433C3.05024 21.5461 2.82373 22.2642 2.82373 23.0001C2.82373 23.7361 3.05024 24.4542 3.4725 25.0569C3.89476 25.6597 4.4923 26.1179 5.18398 26.3693L16.2671 30.3997L20.2975 41.4828C20.5489 42.1745 21.0071 42.772 21.6098 43.1943C22.2126 43.6165 22.9307 43.843 23.6666 43.843C24.4026 43.843 25.1207 43.6165 25.7234 43.1943C26.3262 42.772 26.7844 42.1745 27.0358 41.4828L31.0662 30.3997L42.1493 26.3693C42.841 26.1179 43.4385 25.6597 43.8608 25.0569C44.283 24.4542 44.5095 23.7361 44.5095 23.0001C44.5095 22.2642 44.283 21.5461 43.8608 20.9433C43.4385 20.3406 42.841 19.8824 42.1493 19.631ZM29.2747 26.4591C28.7818 26.6378 28.3341 26.9225 27.9634 27.2933C27.5926 27.664 27.3079 28.1117 27.1292 28.6046L23.6666 38.128L20.2041 28.6046C20.0254 28.1117 19.7406 27.664 19.3699 27.2933C18.9992 26.9225 18.5515 26.6378 18.0586 26.4591L8.53515 23.0001L18.0586 19.5376C18.5515 19.3589 18.9992 19.0741 19.3699 18.7034C19.7406 18.3327 20.0254 17.885 20.2041 17.3921L23.6666 7.86865L27.1292 17.3921C27.3079 17.885 27.5926 18.3327 27.9634 18.7034C28.3341 19.0741 28.7818 19.3589 29.2747 19.5376L38.7981 23.0001L29.2747 26.4591Z"
    fill="white" fill-opacity="0.4" />
</svg>
