<svg width="46" height="46" viewBox="0 0 46 46" fill="none" xmlns="http://www.w3.org/2000/svg">
  <path
    d="M31.9849 14.0159C31.4063 11.3692 30.1261 8.92701 28.2786 6.94558C26.431 4.96415 24.0842 3.5165 21.4844 2.75454C18.8846 1.99258 16.1277 1.9444 13.5028 2.61505C10.878 3.2857 8.48203 4.65046 6.56637 6.56612C4.6507 8.48179 3.28594 10.8777 2.61529 13.5026C1.94465 16.1274 1.99283 18.8844 2.75479 21.4842C3.51674 24.084 4.96439 26.4308 6.94582 28.2783C8.92726 30.1259 11.3694 31.4061 14.0161 31.9846C14.5946 34.6313 15.8748 37.0735 17.7224 39.0549C19.5699 41.0363 21.9167 42.484 24.5165 43.2459C27.1163 44.0079 29.8733 44.0561 32.4981 43.3854C35.123 42.7148 37.5189 41.35 39.4346 39.4343C41.3503 37.5187 42.715 35.1227 43.3857 32.4979C44.0563 29.8731 44.0081 27.1161 43.2462 24.5163C42.4842 21.9165 41.0366 19.5697 39.0551 17.7221C37.0737 15.8746 34.6315 14.5944 31.9849 14.0159ZM39.5317 28.7502C39.5308 29.1495 39.508 29.5484 39.4634 29.9452L31.5572 22.0389C31.9339 20.9101 32.1752 19.7405 32.2759 18.5548C34.3982 19.2843 36.2389 20.6596 37.5401 22.488C38.8413 24.3164 39.5377 26.5061 39.5317 28.7502ZM6.46923 17.2502C6.46923 15.1179 7.10154 13.0335 8.2862 11.2605C9.47085 9.48752 11.1547 8.10566 13.1247 7.28966C15.0947 6.47365 17.2624 6.26015 19.3538 6.67614C21.4452 7.09214 23.3662 8.11895 24.874 9.62674C26.3818 11.1345 27.4086 13.0556 27.8246 15.1469C28.2406 17.2383 28.0271 19.406 27.2111 21.376C26.395 23.3461 25.0132 25.0299 23.2402 26.2145C21.4673 27.3992 19.3828 28.0315 17.2505 28.0315C14.3921 28.0282 11.6518 26.8912 9.63066 24.8701C7.6095 22.8489 6.47256 20.1086 6.46923 17.2502ZM18.5586 32.2829C19.7443 32.1821 20.9139 31.9408 22.0427 31.5641L29.949 39.4704C29.5509 39.5127 29.1508 39.5331 28.7505 39.5315C26.5079 39.5372 24.3196 38.8415 22.492 37.5417C20.6645 36.242 19.2891 34.4032 18.5586 32.2829ZM34.4663 37.8855L26.0695 29.4887C27.3814 28.5389 28.5338 27.3865 29.4836 26.0747L37.8804 34.4715C37.0129 35.8512 35.8461 37.0181 34.4663 37.8855Z"
    fill="white" fill-opacity="0.4" />
</svg>
