<svg width="70" height="70" viewBox="0 0 70 70" fill="none" xmlns="http://www.w3.org/2000/svg">
  <path
    d="M39.8604 29.4355C38.6914 30.6045 38.0488 32.1426 38.0488 33.7764V36.2236C38.0488 37.8574 38.6914 39.3955 39.8604 40.5645C41.0293 41.7334 42.5674 42.376 44.2012 42.376H65.5703V27.624H44.2012C42.5674 27.624 41.0225 28.2666 39.8604 29.4355ZM46.7168 32.2656C48.2275 32.2656 49.4512 33.4893 49.4512 35C49.4512 36.5107 48.2275 37.7344 46.7168 37.7344C45.2061 37.7344 43.9824 36.5107 43.9824 35C43.9824 33.4893 45.2061 32.2656 46.7168 32.2656Z"
    fill="#555DC3" />
  <path
    d="M57.2441 8.25781H12.7559C8.16211 8.25781 4.42285 11.9902 4.42285 16.5908V53.4092C4.42285 58.0029 8.15527 61.7422 12.7559 61.7422H57.2373C61.8311 61.7422 65.5703 58.0098 65.5703 53.4092V45.7939H44.2012C38.9375 45.7939 34.6309 41.4873 34.6309 36.2236V33.7764C34.6309 28.5127 38.9375 24.2061 44.2012 24.2061H65.5703V16.5908C65.5703 11.9971 61.8311 8.25781 57.2441 8.25781Z"
    fill="#555DC3" />
</svg>