<svg width="320" height="120" viewBox="0 0 320 120" fill="none" xmlns="http://www.w3.org/2000/svg">
  <g filter="url(#filter0_b_829_222)">
    <g clip-path="url(#clip0_829_222)">
      <path
        d="M195.119 50.9649C196.926 51.4269 197.695 51.8529 199.074 53.1129C201.488 55.3665 202.383 58.6497 201.506 62.0577C200.504 65.9973 196.962 68.6061 192.739 68.5353C192.142 68.5239 191.545 68.4882 190.951 68.4285C190.074 68.2869 188.552 67.6485 187.622 67.0269C183.06 64.0101 182.45 57.1233 186.405 53.2545C187.615 52.0481 189.152 51.2214 190.825 50.8761C192.471 50.5401 193.49 50.5569 195.119 50.9649ZM157.509 50.9649L158.977 51.0177L160.443 51.0717L160.497 56.0409C160.569 63.3009 160.265 64.9149 158.475 66.6897C157.17 67.9677 156.006 68.4117 153.644 68.4825C152.66 68.5185 151.604 68.4645 151.283 68.3937C148.634 67.7193 146.827 65.6601 146.381 62.8377C146.291 62.2173 146.237 59.3241 146.255 56.3961L146.309 51.0717H149.172L149.261 57.0165C149.351 62.9265 149.351 62.9625 149.798 63.8505C151.158 66.5481 155.487 66.5649 156.919 63.8865L157.401 62.9625L157.509 50.9649ZM135.465 50.9829L135.824 51.9237C136.021 52.4205 136.826 54.5157 137.631 56.5737C138.435 58.6317 139.313 60.9033 139.599 61.6317C139.867 62.3589 140.547 64.0989 141.102 65.4837C141.656 66.8673 142.104 68.0565 142.104 68.1093C142.104 68.1633 141.425 68.1981 140.601 68.1981C139.134 68.1981 139.098 68.1801 138.919 67.7181C138.811 67.4349 137.738 64.6665 136.557 61.5429C133.802 54.3021 133.82 54.3549 133.587 54.3549C133.479 54.3549 133.319 54.6213 133.212 54.9405C133.104 55.2417 132.353 57.2301 131.547 59.3241C130.743 61.4181 129.651 64.2585 129.132 65.6241L128.202 68.1093L126.752 68.1633C125.517 68.1993 125.285 68.1633 125.285 67.9317C125.285 67.6125 131.529 51.5325 131.78 51.2133C131.888 51.0537 132.513 50.9829 133.712 50.9829H135.465ZM170.321 50.9829C174.954 50.9829 175.992 51.1425 177.317 52.1013C177.781 52.4373 178.337 53.0769 178.658 53.6277C179.124 54.4617 179.231 54.8337 179.285 56.1117C179.337 57.3537 179.285 57.8157 178.98 58.6497C178.497 59.8737 177.405 60.9393 176.118 61.4013C175.616 61.5777 175.206 61.7553 175.206 61.8093C175.206 61.8621 176.261 63.2289 177.531 64.8621C178.819 66.4941 179.857 67.8969 179.857 68.0025C179.857 68.2689 177.317 68.2509 176.761 68.0025C176.511 67.8969 175.277 66.4593 174.025 64.8081L171.716 61.8273L170.427 61.8093H169.122V68.1981H166.259L166.295 63.8145L166.349 59.4129L170.463 59.3241C173.433 59.2533 174.704 59.1645 175.044 58.9881C176.349 58.3305 176.887 56.2713 176.064 55.0821C175.241 53.8581 174.811 53.7513 170.964 53.6445L167.511 53.5557L166.957 53.0061C166.602 52.6665 166.375 52.2153 166.313 51.7281L166.205 50.9829H170.321ZM210.329 51.0189C214.586 51.0717 214.89 51.0897 215.731 51.4797C217.627 52.3497 218.647 53.8929 218.773 56.0589C218.916 58.7913 217.753 60.6729 215.427 61.4361C215.051 61.5609 214.747 61.7385 214.747 61.8273C214.747 61.9149 215.767 63.2817 217.002 64.8621C218.235 66.4413 219.291 67.8429 219.345 67.9857C219.489 68.3397 216.375 68.2161 215.91 67.8429C215.731 67.7013 214.586 66.2817 213.351 64.7013L211.133 61.8093H209.916C208.968 61.8093 208.681 61.8801 208.592 62.0925C208.538 62.2521 208.484 63.6897 208.484 65.2881V68.1981H205.622V64.0461C205.622 61.7553 205.675 59.7681 205.73 59.6085C205.819 59.3601 206.355 59.3241 209.719 59.3241C214.067 59.3241 214.675 59.1825 215.48 58.0641C216.053 57.2661 216.053 55.7217 215.498 54.9405C214.765 53.9289 214.121 53.7525 210.452 53.6445C207.751 53.5737 207.036 53.5029 206.66 53.2545C206.087 52.8825 205.568 51.7989 205.712 51.3201C205.837 50.9649 205.926 50.9649 210.327 51.0177L210.329 51.0189ZM234.107 51.0717L235.127 53.6445C235.663 54.9734 236.194 56.3046 236.719 57.6381C237.023 58.4181 238.043 61.0461 238.973 63.4593C239.921 65.8737 240.691 67.9317 240.691 68.0205C240.691 68.1273 240.047 68.1981 239.205 68.1981H237.739L236.414 64.7013C233.606 57.3009 232.478 54.4437 232.317 54.3909C232.157 54.3369 231.763 55.2597 229.884 60.1233C229.562 61.0113 228.739 63.1041 228.095 64.7913C227.45 66.4593 226.914 67.9317 226.914 68.0205C226.914 68.1273 226.287 68.1981 225.393 68.1981C224.516 68.1981 223.872 68.1261 223.872 68.0205C223.872 67.8969 228.506 55.8993 230.117 51.8697L230.42 51.0717H234.107ZM192.721 53.4669C188.481 53.4669 185.708 57.4257 187.014 61.6497C187.353 62.7669 187.55 63.0873 188.516 64.0449C189.428 64.9509 189.841 65.2161 190.789 65.5185C191.563 65.7767 192.38 65.8799 193.193 65.822C194.007 65.7641 194.801 65.5464 195.53 65.1813C198.894 63.5493 199.968 59.2173 197.839 56.0049C196.729 54.3369 194.976 53.4669 192.721 53.4669Z"
        fill="white" />
      <path
        d="M97.0001 44.7504C97.7431 44.7481 98.472 44.9537 99.1041 45.3442C99.7363 45.7346 100.247 46.2942 100.577 46.9596L111.827 69.4596C112.133 70.0694 112.277 70.7472 112.246 71.4285C112.216 72.1098 112.012 72.772 111.653 73.3522C111.295 73.9324 110.794 74.4113 110.198 74.7434C109.603 75.0755 108.932 75.2497 108.25 75.2496H85.7501C85.0682 75.2495 84.3976 75.0751 83.8021 74.7429C83.2066 74.4107 82.706 73.9318 82.3477 73.3517C81.9893 72.7715 81.7853 72.1094 81.7549 71.4282C81.7245 70.747 81.8688 70.0693 82.1741 69.4596L93.4229 46.9596C93.7535 46.2942 94.2638 45.7346 94.896 45.3442C95.5282 44.9537 96.257 44.7481 97.0001 44.7504ZM97.0001 42C95.7467 41.9999 94.5181 42.3487 93.4518 43.0074C92.3855 43.6661 91.5237 44.6087 90.9629 45.7296L79.7129 68.2296C79.1979 69.2588 78.9546 70.4025 79.0062 71.5521C79.0577 72.7018 79.4023 73.8192 80.0072 74.7982C80.6121 75.7771 81.4573 76.5852 82.4624 77.1456C83.4675 77.706 84.5993 78.0001 85.7501 78H108.25C109.401 77.9999 110.532 77.7057 111.537 77.1452C112.542 76.5847 113.387 75.7766 113.992 74.7976C114.597 73.8187 114.941 72.7014 114.993 71.5518C115.044 70.4023 114.801 69.2587 114.286 68.2296L103.037 45.7296C102.476 44.6087 101.615 43.6661 100.548 43.0074C99.482 42.3487 98.2534 41.9999 97.0001 42Z"
        fill="white" />
    </g>
  </g>
  <defs>
    <filter id="filter0_b_829_222" x="-70" y="-70" width="460" height="260" filterUnits="userSpaceOnUse"
      color-interpolation-filters="sRGB">
      <feFlood flood-opacity="0" result="BackgroundImageFix" />
      <feGaussianBlur in="BackgroundImageFix" stdDeviation="35" />
      <feComposite in2="SourceAlpha" operator="in" result="effect1_backgroundBlur_829_222" />
      <feBlend mode="normal" in="SourceGraphic" in2="effect1_backgroundBlur_829_222" result="shape" />
    </filter>
    <clipPath id="clip0_829_222">
      <rect width="162" height="36" fill="white" transform="translate(79 42)" />
    </clipPath>
  </defs>
</svg>
