<svg width="87" height="25" viewBox="0 0 87 25" fill="none" xmlns="http://www.w3.org/2000/svg">
  <path
    d="M66.1029 24.543H86.8057L84.3145 18.7576H73.1643V14.8662H81.8223V9.50156H73.1653V5.78452H84.3116L86.8105 0.0385185L66.1029 0V24.543ZM22.3854 0L24.6117 5.66896H29.415V24.543H35.9911V5.66896H40.8685L43.0929 0H22.3854ZM12.1568 18.8953C14.1145 18.8953 15.2421 18.1095 15.2421 16.7093V16.6419C15.2421 15.3439 14.2464 14.4907 12.0903 14.4907H7.18019V18.8953H12.1568ZM11.2275 9.84726C13.1852 9.84726 14.2801 9.16356 14.2801 7.76437V7.696C14.2801 6.39889 13.2844 5.64681 11.3604 5.64681H7.18115V9.84726H11.2275ZM43.0207 20.6103L46.6376 16.2375C48.9487 18.1018 51.5266 19.085 54.2392 19.085C55.9812 19.085 56.9192 18.4744 56.9192 17.4576V17.3901C56.9192 16.4079 56.1488 15.8648 52.9672 15.1185C47.9771 13.9668 44.1262 12.5426 44.1262 7.66133V7.59393C44.1252 3.18548 47.5755 0 53.2012 0C57.1869 0 60.3011 1.08526 62.8462 3.15274L59.5981 7.79711C57.4546 6.27081 55.1107 5.45711 53.0336 5.45711C51.4601 5.45711 50.6897 6.136 50.6897 6.98341V7.05082C50.6897 8.13607 51.4938 8.61082 54.7419 9.35615C60.1345 10.5425 63.4827 12.3047 63.4827 16.7459V16.8133C63.4827 21.6619 59.6983 24.543 54.0052 24.543C49.8529 24.543 45.9009 23.2209 43.0207 20.6103ZM0.910339 0.320667H12.8203C15.739 0.320667 17.7959 1.07178 19.1566 2.47193C20.0849 3.42815 20.6492 4.69156 20.6492 6.33052V6.39793C20.6492 9.16452 19.1229 10.8025 17.0669 11.725C19.8865 12.6813 21.6776 14.3202 21.6776 17.5635V17.6319C21.6776 21.7293 18.4266 24.2224 12.8857 24.2224H0.911302V0.32163L0.910339 0.320667Z"
    fill="white" />
</svg>
