<svg width="320" height="120" viewBox="0 0 320 120" fill="none" xmlns="http://www.w3.org/2000/svg">
  <g filter="url(#filter0_b_829_711)">
    <path fill-rule="evenodd" clip-rule="evenodd"
      d="M106 80C117.046 80 126 71.0457 126 60C126 48.9543 117.046 40 106 40C94.9543 40 86 48.9543 86 60C86 68.21 90.9469 75.2647 98.0227 78.3457C96.0546 75.6085 94.0305 71.931 92.7796 68.0368C91.1902 63.0888 90.758 57.4842 93.7102 53.0561C97.3352 47.6189 103.01 45.814 107.793 46.0954C110.177 46.2356 112.403 46.8956 114.097 47.939C115.767 48.967 117.1 50.4929 117.247 52.4036C117.39 54.2685 116.388 56.0069 115.089 57.3915C113.762 58.8045 111.957 60.036 110.074 60.9222C108.197 61.8057 106.144 62.3915 104.302 62.4212C102.477 62.4506 100.591 61.9223 99.5289 60.2539C99.1369 59.6378 98.9053 58.9633 98.9428 58.2548C98.9808 57.5379 99.2866 56.9335 99.7045 56.4535C100.489 55.5527 101.767 54.9708 103.026 54.569C105.615 53.7431 109.041 53.4042 111.379 53.3334C112.069 53.3125 112.645 53.8549 112.666 54.5449C112.687 55.235 112.145 55.8113 111.455 55.8322C109.209 55.9003 106.052 56.2281 103.786 56.9507C102.619 57.3233 101.902 57.7362 101.59 58.0949C101.46 58.2447 101.442 58.3363 101.439 58.3871C101.436 58.4463 101.447 58.6111 101.638 58.9117C102.035 59.535 102.857 59.9442 104.261 59.9215C105.648 59.8991 107.345 59.4433 109.01 58.6601C110.668 57.8796 112.197 56.8194 113.266 55.6804C114.362 54.5128 114.819 53.4388 114.754 52.5953C114.693 51.7977 114.098 50.8757 112.786 50.0678C111.499 49.2753 109.688 48.7112 107.646 48.5911C103.574 48.3516 98.8324 49.88 95.7903 54.4429C93.4667 57.9281 93.6594 62.6013 95.1598 67.2722C96.6495 71.9098 99.3387 76.243 101.527 78.7633C101.729 78.9953 101.83 79.2804 101.833 79.5654C103.177 79.8502 104.571 80 106 80ZM118.925 55.7412C118.414 55.2768 117.623 55.3145 117.159 55.8253C116.695 56.3361 116.732 57.1267 117.243 57.5911C118.943 59.1362 119.277 62.1973 116.989 64.7991C114.717 67.3832 109.697 69.5639 100.753 68.3443C100.069 68.251 99.4387 68.7299 99.3454 69.4139C99.2521 70.098 99.731 70.7281 100.415 70.8214C109.805 72.1017 115.826 69.9075 118.866 66.4499C121.891 63.01 121.809 58.3628 118.925 55.7412Z"
      fill="white" />
    <path
      d="M146.412 60.4956H140.849L140.819 57.4316H145.489C146.312 57.4316 146.987 57.3275 147.512 57.1193C148.038 56.9011 148.43 56.5888 148.687 56.1822C148.955 55.7658 149.089 55.2601 149.089 54.6651C149.089 53.9908 148.96 53.4455 148.702 53.029C148.454 52.6125 148.063 52.3101 147.527 52.1217C147.002 51.9333 146.322 51.8391 145.489 51.8391H142.396V70H137.934V48.3438H145.489C146.749 48.3438 147.874 48.4627 148.866 48.7007C149.867 48.9387 150.715 49.3006 151.409 49.7865C152.103 50.2724 152.634 50.8872 153.001 51.6309C153.368 52.3646 153.551 53.2372 153.551 54.2486C153.551 55.1411 153.348 55.9641 152.941 56.7177C152.545 57.4713 151.915 58.0861 151.052 58.562C150.2 59.038 149.084 59.3008 147.706 59.3504L146.412 60.4956ZM146.218 70H139.629L141.369 66.5195H146.218C147.002 66.5195 147.641 66.3956 148.137 66.1477C148.633 65.8899 149 65.5428 149.238 65.1065C149.476 64.6702 149.595 64.1695 149.595 63.6043C149.595 62.9697 149.486 62.4193 149.267 61.9533C149.059 61.4872 148.722 61.1303 148.256 60.8824C147.79 60.6245 147.175 60.4956 146.412 60.4956H142.113L142.143 57.4316H147.497L148.524 58.6364C149.843 58.6166 150.904 58.8496 151.707 59.3355C152.52 59.8114 153.11 60.4312 153.477 61.1947C153.854 61.9582 154.042 62.7763 154.042 63.6489C154.042 65.0371 153.739 66.2072 153.135 67.1591C152.53 68.1011 151.642 68.8101 150.472 69.2861C149.312 69.762 147.894 70 146.218 70ZM166.64 66.1477V53.9066H170.924V70H166.893L166.64 66.1477ZM167.116 62.8457L168.38 62.816C168.38 63.8869 168.256 64.8834 168.008 65.8056C167.761 66.7178 167.389 67.5111 166.893 68.1854C166.397 68.8498 165.772 69.3703 165.019 69.7471C164.265 70.114 163.378 70.2975 162.356 70.2975C161.573 70.2975 160.849 70.1884 160.185 69.9703C159.53 69.7422 158.965 69.3902 158.489 68.9142C158.023 68.4283 157.656 67.8086 157.389 67.055C157.131 66.2915 157.002 65.3742 157.002 64.3033V53.9066H161.285V64.3331C161.285 64.809 161.34 65.2106 161.449 65.5379C161.568 65.8651 161.732 66.1328 161.94 66.341C162.148 66.5493 162.391 66.698 162.669 66.7873C162.956 66.8765 163.274 66.9211 163.621 66.9211C164.503 66.9211 165.197 66.7426 165.703 66.3857C166.219 66.0287 166.581 65.5428 166.789 64.928C167.007 64.3033 167.116 63.6092 167.116 62.8457ZM178.48 57.4168V70H174.196V53.9066H178.227L178.48 57.4168ZM183.328 53.8024L183.254 57.7737C183.046 57.744 182.793 57.7192 182.495 57.6994C182.208 57.6696 181.945 57.6547 181.707 57.6547C181.102 57.6547 180.577 57.7341 180.131 57.8927C179.694 58.0415 179.327 58.2646 179.03 58.562C178.742 58.8595 178.524 59.2215 178.375 59.6478C178.237 60.0742 178.157 60.5601 178.137 61.1055L177.275 60.8377C177.275 59.7966 177.379 58.8397 177.587 57.9671C177.795 57.0846 178.098 56.3161 178.494 55.6617C178.901 55.0072 179.397 54.5015 179.982 54.1445C180.567 53.7876 181.236 53.6091 181.99 53.6091C182.228 53.6091 182.471 53.6289 182.719 53.6686C182.966 53.6983 183.17 53.7429 183.328 53.8024ZM189.635 57.4168V70H185.351V53.9066H189.382L189.635 57.4168ZM194.484 53.8024L194.409 57.7737C194.201 57.744 193.948 57.7192 193.651 57.6994C193.363 57.6696 193.101 57.6547 192.863 57.6547C192.258 57.6547 191.732 57.7341 191.286 57.8927C190.85 58.0415 190.483 58.2646 190.185 58.562C189.898 58.8595 189.68 59.2215 189.531 59.6478C189.392 60.0742 189.313 60.5601 189.293 61.1055L188.43 60.8377C188.43 59.7966 188.534 58.8397 188.742 57.9671C188.951 57.0846 189.253 56.3161 189.65 55.6617C190.056 55.0072 190.552 54.5015 191.137 54.1445C191.722 53.7876 192.392 53.6091 193.145 53.6091C193.383 53.6091 193.626 53.6289 193.874 53.6686C194.122 53.6983 194.325 53.7429 194.484 53.8024ZM195.376 62.1169V61.8045C195.376 60.6245 195.545 59.5388 195.882 58.5472C196.219 57.5457 196.71 56.678 197.354 55.9443C197.999 55.2105 198.792 54.6403 199.734 54.2338C200.676 53.8173 201.757 53.6091 202.977 53.6091C204.196 53.6091 205.282 53.8173 206.234 54.2338C207.186 54.6403 207.984 55.2105 208.629 55.9443C209.283 56.678 209.779 57.5457 210.116 58.5472C210.453 59.5388 210.622 60.6245 210.622 61.8045V62.1169C210.622 63.287 210.453 64.3727 210.116 65.3742C209.779 66.3658 209.283 67.2335 208.629 67.9772C207.984 68.7109 207.191 69.2811 206.249 69.6877C205.307 70.0942 204.226 70.2975 203.006 70.2975C201.787 70.2975 200.701 70.0942 199.749 69.6877C198.807 69.2811 198.009 68.7109 197.354 67.9772C196.71 67.2335 196.219 66.3658 195.882 65.3742C195.545 64.3727 195.376 63.287 195.376 62.1169ZM199.66 61.8045V62.1169C199.66 62.7912 199.719 63.4208 199.838 64.0059C199.957 64.5909 200.146 65.1065 200.404 65.5527C200.671 65.989 201.018 66.3311 201.445 66.579C201.871 66.8269 202.392 66.9509 203.006 66.9509C203.601 66.9509 204.112 66.8269 204.538 66.579C204.965 66.3311 205.307 65.989 205.565 65.5527C205.823 65.1065 206.011 64.5909 206.13 64.0059C206.259 63.4208 206.323 62.7912 206.323 62.1169V61.8045C206.323 61.1501 206.259 60.5353 206.13 59.9602C206.011 59.3752 205.818 58.8595 205.55 58.4133C205.292 57.9572 204.95 57.6002 204.524 57.3424C204.097 57.0846 203.582 56.9557 202.977 56.9557C202.372 56.9557 201.856 57.0846 201.43 57.3424C201.013 57.6002 200.671 57.9572 200.404 58.4133C200.146 58.8595 199.957 59.3752 199.838 59.9602C199.719 60.5353 199.66 61.1501 199.66 61.8045ZM217.851 65.8353L221.197 53.9066H223.919L223.041 58.5918L219.695 70H217.419L217.851 65.8353ZM216.155 53.9066L218.55 65.8205L218.773 70H216.095L212.02 53.9066H216.155ZM226.983 65.6271L229.318 53.9066H233.468L229.393 70H226.73L226.983 65.6271ZM224.291 53.9066L227.623 65.7461L228.084 70H225.793L222.447 58.6067L221.599 53.9066H224.291Z"
      fill="white" />
  </g>
  <defs>
    <filter id="filter0_b_829_711" x="-70" y="-70" width="460" height="260" filterUnits="userSpaceOnUse"
      color-interpolation-filters="sRGB">
      <feFlood flood-opacity="0" result="BackgroundImageFix" />
      <feGaussianBlur in="BackgroundImageFix" stdDeviation="35" />
      <feComposite in2="SourceAlpha" operator="in" result="effect1_backgroundBlur_829_711" />
      <feBlend mode="normal" in="SourceGraphic" in2="effect1_backgroundBlur_829_711" result="shape" />
    </filter>
  </defs>
</svg>
