<svg width="320" height="120" viewBox="0 0 320 120" fill="none" xmlns="http://www.w3.org/2000/svg">
  <g filter="url(#filter0_b_829_188)">
    <g clip-path="url(#clip0_829_188)">
      <mask id="mask0_829_188" style="mask-type:luminance" maskUnits="userSpaceOnUse" x="97" y="45" width="39"
        height="30">
        <path d="M135.478 45.5H97.5V74.5H135.478V45.5Z" fill="white" />
      </mask>
      <g mask="url(#mask0_829_188)">
        <path fill-rule="evenodd" clip-rule="evenodd"
          d="M132.472 48.2223C134.893 50.6757 134.893 54.6164 134.893 62.4977V71.9547C134.893 73.1123 133.963 74.0507 132.815 74.0507C131.668 74.0507 130.738 73.1123 130.738 71.9547V67.8462C130.738 66.6886 129.808 65.7501 128.66 65.7501C127.513 65.7501 126.583 66.6886 126.583 67.8462V71.9547C126.583 73.1123 125.643 74.0507 124.495 74.0507C123.36 74.0507 122.428 73.1217 122.428 71.9756C122.428 70.8295 121.508 69.9004 120.372 69.9004H120.33C119.194 69.9004 118.274 70.8295 118.274 71.9756C118.274 73.1217 117.353 74.0507 116.217 74.0507H116.176C115.04 74.0507 114.119 73.1217 114.119 71.9756C114.119 70.8295 113.198 69.9004 112.062 69.9004H112.021C110.885 69.9004 109.964 70.8295 109.964 71.9756C109.964 73.1217 109.043 74.0507 107.908 74.0507H107.866C106.73 74.0507 105.809 73.1217 105.809 71.9756C105.809 70.8295 104.889 69.9004 103.753 69.9004H103.711C102.576 69.9004 101.655 70.8295 101.655 71.9756C101.655 73.1217 100.724 74.0507 99.5878 74.0507C98.4405 74.0507 97.5 73.1123 97.5 71.9547V62.4977C97.5 54.6164 97.5 50.6757 99.9204 48.2223C99.9293 48.2132 99.9383 48.2042 99.9472 48.1952C102.379 45.7529 106.284 45.7529 114.095 45.7529H118.298C126.109 45.7529 130.014 45.7529 132.445 48.1952C132.454 48.2042 132.463 48.2132 132.472 48.2223ZM128.66 61.6416C129.808 61.6416 130.738 60.7032 130.738 59.5455C130.738 58.3878 129.808 57.4494 128.66 57.4494C127.513 57.4494 126.583 58.3878 126.583 59.5455C126.583 60.7032 127.513 61.6416 128.66 61.6416Z"
          fill="white" />
      </g>
      <path
        d="M153.359 53.3166V68.4005C153.359 69.9748 152.943 71.2006 152.111 72.0778C151.285 72.955 150.089 73.3936 148.524 73.3936C147.867 73.3936 147.242 73.318 146.648 73.167V70.1781C147.102 70.2536 147.5 70.2914 147.844 70.2914C148.99 70.2914 149.563 69.6785 149.563 68.4528V53.3166H153.359ZM149.257 49.6829C149.257 49.1136 149.447 48.6459 149.825 48.2799C150.209 47.9139 150.726 47.731 151.378 47.731C152.035 47.731 152.553 47.9139 152.931 48.2799C153.31 48.6459 153.499 49.1136 153.499 49.6829C153.499 50.258 153.304 50.7286 152.914 51.0945C152.53 51.4605 152.018 51.6435 151.378 51.6435C150.744 51.6435 150.232 51.4605 149.842 51.0945C149.452 50.7286 149.257 50.258 149.257 49.6829ZM164.538 66.1087C163.601 67.2473 162.31 67.8166 160.663 67.8166C159.145 67.8166 157.984 67.378 157.181 66.5008C156.384 65.6236 155.977 64.3397 155.959 62.6493V53.3166H159.747V62.5273C159.747 64.0144 160.419 64.758 161.763 64.758C163.043 64.758 163.924 64.3107 164.407 63.4161V53.3166H168.203V67.8166H164.642L164.538 66.1087ZM174.678 53.3166L174.8 55.1727C175.801 53.9353 177.156 53.3166 178.867 53.3166C180.694 53.3166 181.947 54.0399 182.628 55.4864C183.623 54.0399 185.039 53.3166 186.878 53.3166C188.414 53.3166 189.557 53.7668 190.307 54.6673C191.058 55.5677 191.433 56.9213 191.433 58.728V67.8166H187.637V58.728C187.637 57.9205 187.48 57.3308 187.166 56.959C186.852 56.5814 186.299 56.3926 185.508 56.3926C184.373 56.3926 183.588 56.9358 183.152 58.0222L183.16 67.8166H179.382V58.7367C179.382 57.9117 179.219 57.3163 178.893 56.9503C178.573 56.5785 178.023 56.3926 177.244 56.3926C176.173 56.3926 175.397 56.8399 174.914 57.7346V67.8166H171.135V53.3166H174.678ZM207.35 60.6973C207.35 62.9339 206.865 64.6796 205.893 65.9344C204.927 67.1892 203.578 67.8166 201.844 67.8166C200.308 67.8166 199.081 67.3112 198.161 66.3004L197.996 67.8166H194.592V47.7397H198.371V54.859C199.243 53.8307 200.392 53.3166 201.818 53.3166C203.546 53.3166 204.898 53.944 205.876 55.1988C206.859 56.4536 207.35 58.2167 207.35 60.4882V60.6973ZM203.572 60.4272C203.572 59.0272 203.345 58.0047 202.891 57.3599C202.437 56.715 201.76 56.3926 200.858 56.3926C199.654 56.3926 198.825 56.8748 198.371 57.8392V63.3028C198.836 64.2788 199.674 64.7668 200.884 64.7668C202.106 64.7668 202.909 64.1771 203.293 62.9978C203.479 62.4343 203.572 61.5774 203.572 60.4272ZM209.078 60.4359C209.078 59.0475 209.349 57.813 209.89 56.7325C210.431 55.6461 211.211 54.8067 212.229 54.2141C213.247 53.6158 214.428 53.3166 215.772 53.3166C217.68 53.3166 219.239 53.8946 220.449 55.0507C221.659 56.2009 222.334 57.7694 222.474 59.7562L222.5 60.7061C222.5 62.8555 221.892 64.5779 220.676 65.8734C219.466 67.1688 217.84 67.8166 215.798 67.8166C213.756 67.8166 212.124 67.1717 210.902 65.8821C209.686 64.5866 209.078 62.8264 209.078 60.6015V60.4359ZM212.866 60.7061C212.866 62.0189 213.119 63.0239 213.625 63.7211C214.131 64.4182 214.855 64.7668 215.798 64.7668C216.711 64.7668 217.424 64.424 217.936 63.7385C218.454 63.0472 218.713 61.9463 218.713 60.4359C218.713 59.1462 218.454 58.147 217.936 57.4383C217.424 56.7296 216.703 56.3752 215.772 56.3752C214.847 56.3752 214.131 56.7296 213.625 57.4383C213.119 58.1412 212.866 59.2305 212.866 60.7061Z"
        fill="white" />
    </g>
  </g>
  <defs>
    <filter id="filter0_b_829_188" x="-70" y="-70" width="460" height="260" filterUnits="userSpaceOnUse"
      color-interpolation-filters="sRGB">
      <feFlood flood-opacity="0" result="BackgroundImageFix" />
      <feGaussianBlur in="BackgroundImageFix" stdDeviation="35" />
      <feComposite in2="SourceAlpha" operator="in" result="effect1_backgroundBlur_829_188" />
      <feBlend mode="normal" in="SourceGraphic" in2="effect1_backgroundBlur_829_188" result="shape" />
    </filter>
    <clipPath id="clip0_829_188">
      <rect width="125" height="29" fill="white" transform="translate(97.5 45.5)" />
    </clipPath>
  </defs>
</svg>
