<svg width="320" height="120" viewBox="0 0 320 120" fill="none" xmlns="http://www.w3.org/2000/svg">
  <g filter="url(#filter0_b_829_93)">
    <g clip-path="url(#clip0_829_93)">
      <path
        d="M96.0609 59.4927C97.6254 59.4927 98.8943 58.2016 98.8943 56.6083V52.0149C98.8943 50.3427 99.8832 48.8983 101.303 48.2627C102.047 47.9314 102.875 47.8356 103.675 47.9883C105.601 48.346 106.946 50.1527 106.946 52.1449V59.4927H114.975V52.0149C114.975 50.3427 115.965 48.8983 117.384 48.2627C118.129 47.9314 118.956 47.8356 119.756 47.9883C121.682 48.346 123.028 50.1527 123.028 52.1449V56.6083C123.028 58.2016 124.296 59.4927 125.861 59.4927H130.811V52.0149C130.812 50.4085 130.495 48.8176 129.88 47.3338C129.291 45.9101 128.433 44.6134 127.353 43.5149C126.283 42.4217 125.009 41.5482 123.603 40.9438C122.589 40.5044 121.516 40.2147 120.419 40.0838C119.952 40.0283 119.483 40.0005 119.008 40.0005C117.416 40.0005 115.87 40.3205 114.41 40.9483C113.189 41.4724 112.068 42.2014 111.093 43.1038C111.048 43.1449 111.006 43.1872 110.961 43.2283C109.96 42.2705 108.797 41.4981 107.525 40.9472C106.511 40.5078 105.438 40.2181 104.341 40.0872C103.874 40.032 103.404 40.0042 102.933 40.0038C101.341 40.0038 99.7943 40.3249 98.3332 40.9516C97.1132 41.4758 95.9918 42.2048 95.0176 43.1072C93.7336 44.2865 92.7227 45.732 92.0554 47.3427C91.4389 48.8266 91.1224 50.418 91.1243 52.0249V59.5027H96.0609V59.4927Z"
        fill="white" />
      <path
        d="M125.856 60.5005C124.292 60.5005 123.023 61.7928 123.023 63.385V67.835C123.023 69.9672 121.485 71.8483 119.401 72.0572C118.71 72.129 118.013 72.0167 117.379 71.7316C116.66 71.4042 116.049 70.876 115.622 70.2105C115.195 69.545 114.969 68.7703 114.971 67.9794V60.5016H106.942V67.8305C106.942 69.9628 105.404 71.8439 103.319 72.0528C102.628 72.1247 101.931 72.0124 101.297 71.7272C100.577 71.3995 99.9673 70.8711 99.5403 70.2054C99.1132 69.5396 98.8872 68.7648 98.8895 67.9739V63.3805C98.8895 61.7872 97.6206 60.4961 96.0562 60.4961H91.1106V67.9739C91.1106 69.5961 91.425 71.1694 92.0417 72.6561C92.7083 74.2666 93.7185 75.7121 95.0017 76.8916C97.1549 78.8866 99.9819 79.995 102.917 79.995C103.392 79.995 103.862 79.9672 104.327 79.9117C105.422 79.7761 106.489 79.4894 107.512 79.0516C108.782 78.4993 109.945 77.7275 110.947 76.7717L111.079 76.8972C112.054 77.7996 113.176 78.5287 114.396 79.0528C115.848 79.6788 117.414 80.001 118.995 79.9994C119.469 79.9994 119.939 79.9716 120.404 79.9161C121.499 79.7805 122.567 79.4939 123.588 79.0561C124.994 78.4514 126.268 77.5776 127.338 76.4839C128.419 75.3855 129.277 74.0888 129.866 72.665C130.483 71.1814 130.799 69.5904 130.797 67.9839V60.5061H125.847L125.856 60.5005Z"
        fill="white" />
      <path
        d="M156.633 55.7775V61.7275H153.672V56.2419C153.672 54.5608 152.933 53.7897 151.738 53.7897C150.409 53.7897 149.479 54.6586 149.479 56.5119V61.7275H146.518V56.2419C146.518 54.5608 145.816 53.7897 144.584 53.7897C143.275 53.7897 142.344 54.6586 142.344 56.5119V61.7275H139.383V51.333H142.212V52.5308C142.968 51.6441 144.109 51.1797 145.418 51.1797C146.842 51.1797 148.056 51.7419 148.776 52.8797C149.593 51.8152 150.92 51.1797 152.458 51.1797C154.885 51.1797 156.633 52.6097 156.633 55.7775Z"
        fill="white" />
      <path
        d="M168.873 57.3797H161.149C161.432 58.6764 162.514 59.4652 164.074 59.4652C165.155 59.4652 165.935 59.1364 166.633 58.4619L168.207 60.1997C167.258 61.2997 165.835 61.8808 163.996 61.8808C160.465 61.8808 158.171 59.6186 158.171 56.5297C158.171 53.4408 160.506 51.1797 163.617 51.1797C166.728 51.1797 168.928 53.2275 168.928 56.5675C168.928 56.7997 168.892 57.1297 168.868 57.3797H168.873ZM161.113 55.6241H166.141C165.929 54.3097 164.963 53.4597 163.636 53.4597C162.308 53.4597 161.323 54.2919 161.113 55.6241Z"
        fill="white" />
      <path
        d="M177.012 61.2217C176.405 61.6661 175.512 61.8761 174.603 61.8761C172.194 61.8761 170.79 60.6217 170.79 58.1461V53.8772H169.215V51.5605H170.79V49.0283H173.75V51.5605H176.291V53.8772H173.75V58.1105C173.75 58.9972 174.224 59.4805 175.023 59.4805C175.461 59.4805 175.894 59.3461 176.218 59.095L177.016 61.2172L177.012 61.2217Z"
        fill="white" />
      <path
        d="M187.241 55.7962V61.7273H184.471V60.4329C183.924 61.3807 182.86 61.8818 181.36 61.8818C178.97 61.8818 177.545 60.5307 177.545 58.7329C177.545 56.9351 178.818 55.6218 181.93 55.6218H184.284C184.284 54.3251 183.526 53.5729 181.93 53.5729C180.848 53.5729 179.731 53.9396 178.987 54.5396L177.924 52.434C179.042 51.6218 180.694 51.1807 182.327 51.1807C185.438 51.1807 187.241 52.6473 187.241 55.7973V55.7962ZM184.28 58.444V57.3796H182.25C180.862 57.3796 180.429 57.9007 180.429 58.5973C180.429 59.3496 181.054 59.8507 182.098 59.8507C183.084 59.8507 183.937 59.3862 184.28 58.4396V58.444Z"
        fill="white" />
      <path
        d="M205.644 51.3331L201.944 61.722H199.098L196.803 55.272L194.431 61.7231H191.584L187.902 51.3331H190.69L193.099 58.3654L195.603 51.332H198.108L200.535 58.3654L203.021 51.332L205.644 51.3331Z"
        fill="white" />
      <path
        d="M216.215 57.3797H208.491C208.774 58.6764 209.855 59.4652 211.415 59.4652C212.496 59.4652 213.276 59.1364 213.975 58.4619L215.549 60.1997C214.6 61.2997 213.176 61.8808 211.337 61.8808C207.806 61.8808 205.512 59.6186 205.512 56.5297C205.512 53.4408 207.847 51.1797 210.96 51.1797C214.071 51.1797 216.27 53.2275 216.27 56.5675C216.27 56.7997 216.233 57.1297 216.211 57.3797H216.215ZM208.454 55.6241H213.482C213.272 54.3097 212.304 53.4597 210.977 53.4597C209.65 53.4597 208.663 54.2919 208.454 55.6241Z"
        fill="white" />
      <path
        d="M228.889 56.5291C228.889 59.7958 226.672 61.8802 223.806 61.8802C222.442 61.8802 221.339 61.4347 220.599 60.5291V61.7269H217.771V47.3936H220.732V52.4324C221.489 51.5824 222.533 51.1791 223.806 51.1791C226.672 51.1791 228.889 53.2647 228.889 56.5291ZM225.891 56.5291C225.891 54.7324 224.773 53.6502 223.291 53.6502C221.809 53.6502 220.691 54.7324 220.691 56.5291C220.691 58.3269 221.809 59.4091 223.291 59.4091C224.773 59.4091 225.891 58.3269 225.891 56.5291Z"
        fill="white" />
      <path
        d="M189.193 66.8828L186.816 72.5273H185.48L183.102 66.8828H184.453L186.177 71.0673L187.952 66.8828H189.197H189.193Z"
        fill="white" />
      <path
        d="M194.777 70.125H190.429C190.585 70.9473 191.259 71.4761 192.227 71.4761C192.847 71.4761 193.335 71.2761 193.733 70.8639L194.426 71.6761C193.928 72.2806 193.148 72.5961 192.195 72.5961C190.338 72.5961 189.134 71.3795 189.134 69.7017C189.134 68.025 190.347 66.8184 191.998 66.8184C193.65 66.8184 194.799 67.9695 194.799 69.735C194.799 69.8417 194.79 69.9995 194.777 70.1239V70.125ZM190.42 69.2472H193.564C193.458 68.4339 192.847 67.8717 191.998 67.8717C191.15 67.8717 190.548 68.4206 190.42 69.2472Z"
        fill="white" />
      <path
        d="M201.242 69.2936V72.5269H199.947V69.4603C199.947 68.4569 199.458 67.9692 198.628 67.9692C197.707 67.9692 197.081 68.5403 197.081 69.6692V72.5214H195.785V66.8769H197.022V67.6069C197.447 67.0914 198.122 66.8125 198.933 66.8125C200.261 66.8125 201.247 67.5836 201.247 69.2836L201.242 69.2936Z"
        fill="white" />
      <path
        d="M205.964 72.2196C205.653 72.4752 205.184 72.6007 204.718 72.6007C203.505 72.6007 202.807 71.9452 202.807 70.7007V67.984H201.894V66.9285H202.806V65.644H204.101V66.9307H205.585V67.9852H204.101V70.6696C204.101 71.2174 204.371 71.514 204.868 71.514C205.137 71.514 205.398 71.4407 205.594 71.2829L205.959 72.2207H205.964V72.2196Z"
        fill="white" />
      <path
        d="M212.136 66.8828V72.5273H210.901V71.8061C210.485 72.3217 209.833 72.6006 209.116 72.6006C207.693 72.6006 206.731 71.8061 206.731 70.1061V66.8839H208.026V69.925C208.026 70.9517 208.504 71.435 209.322 71.435C210.225 71.435 210.836 70.8639 210.836 69.735V66.8828H212.136Z"
        fill="white" />
      <path
        d="M216.785 66.8184V68.0761C216.686 68.0552 216.586 68.0444 216.485 68.0439C215.498 68.0439 214.874 68.6339 214.874 69.7861V72.5217H213.578V66.8772H214.814V67.705C215.188 67.1161 215.864 66.8184 216.785 66.8184Z"
        fill="white" />
      <path
        d="M222.766 70.125H218.418C218.574 70.9473 219.248 71.4761 220.216 71.4761C220.84 71.4761 221.325 71.2761 221.721 70.8639L222.415 71.6761C221.917 72.2806 221.137 72.5961 220.184 72.5961C218.327 72.5961 217.123 71.3795 217.123 69.7017C217.123 68.025 218.336 66.8184 219.988 66.8184C221.639 66.8184 222.788 67.9695 222.788 69.735C222.788 69.8417 222.779 69.9995 222.766 70.1239V70.125ZM218.409 69.2472H221.553C221.448 68.4339 220.836 67.8717 219.988 67.8717C219.139 67.8717 218.537 68.4206 218.409 69.2472Z"
        fill="white" />
      <path
        d="M223.135 71.9634L223.633 70.96C224.122 71.29 224.869 71.5223 225.563 71.5223C226.384 71.5223 226.726 71.29 226.726 70.9C226.726 69.8223 223.299 70.8345 223.299 68.5867C223.299 67.5189 224.244 66.8223 225.741 66.8223C226.479 66.8223 227.318 67.0034 227.816 67.31L227.319 68.3134C226.839 68.0275 226.289 67.8813 225.731 67.8912C224.942 67.8912 224.568 68.1545 224.568 68.5267C224.568 69.6689 227.994 68.6523 227.994 70.8634C227.994 71.9167 227.041 72.6045 225.481 72.6045C224.554 72.6045 223.633 72.33 223.136 71.9678L223.135 71.9634Z"
        fill="white" />
    </g>
  </g>
  <defs>
    <filter id="filter0_b_829_93" x="-70" y="-70" width="460" height="260" filterUnits="userSpaceOnUse"
      color-interpolation-filters="sRGB">
      <feFlood flood-opacity="0" result="BackgroundImageFix" />
      <feGaussianBlur in="BackgroundImageFix" stdDeviation="35" />
      <feComposite in2="SourceAlpha" operator="in" result="effect1_backgroundBlur_829_93" />
      <feBlend mode="normal" in="SourceGraphic" in2="effect1_backgroundBlur_829_93" result="shape" />
    </filter>
    <clipPath id="clip0_829_93">
      <rect width="137.778" height="40" fill="white" transform="translate(91.1111 40)" />
    </clipPath>
  </defs>
</svg>
