<svg width="320" height="120" viewBox="0 0 320 120" fill="none" xmlns="http://www.w3.org/2000/svg">
  <g filter="url(#filter0_b_829_24)">
    <g clip-path="url(#clip0_829_24)">
      <path
        d="M113.535 59.4119C112.868 58.7476 111.778 58.7441 111.105 59.4013L108.428 62.0654C107.756 62.7337 106.657 62.7337 105.985 62.0654C105.985 62.0654 105.981 62.0606 105.979 62.0582C105.835 61.9261 105.705 61.7704 105.643 61.6389C105.542 61.4376 105.453 61.0985 105.453 60.8843C105.453 60.6832 105.517 60.3817 105.592 60.2307C105.595 60.2254 105.6 60.2183 105.603 60.2118C105.687 60.0012 105.814 59.8047 105.984 59.6348L109.948 55.6912C110.059 55.5773 110.174 55.4611 110.294 55.3414L113.608 52.0425C114.28 51.3741 114.28 50.2804 113.608 49.612C112.937 48.9437 111.837 48.9437 111.166 49.612L105.665 55.0854C105.654 55.096 105.645 55.1078 105.635 55.119C105.631 55.1219 105.626 55.1237 105.622 55.1266L105.342 55.4057C104.67 56.0741 103.571 56.0741 102.899 55.4057C102.227 54.7373 102.227 53.6436 102.899 52.9752L105.158 50.7276C105.164 50.7211 105.169 50.7152 105.175 50.7087L105.873 50.0138C106.043 49.8445 106.17 49.6474 106.254 49.4368C106.258 49.4303 106.263 49.4233 106.266 49.418C106.341 49.2669 106.404 48.9655 106.404 48.7643C106.404 48.5508 106.316 48.211 106.215 48.0098C106.152 47.8782 106.022 47.7225 105.879 47.5904C105.877 47.588 105.875 47.5856 105.872 47.5833C105.201 46.9149 104.102 46.9149 103.43 47.5833L98.8586 52.1316C98.8515 52.1381 98.8456 52.1434 98.8385 52.1499L98.4727 52.5139C97.8009 53.1823 96.7018 53.1823 96.03 52.5139C95.3583 51.8455 95.3583 50.7518 96.03 50.0834L96.177 49.9318C96.8488 49.2634 96.8488 48.1697 96.177 47.5013C95.5053 46.8329 94.4061 46.8329 93.7344 47.5013L93.3609 47.8729L91.2182 49.9837C90.6235 50.5701 90.0318 51.1671 89.5261 51.6886L88.9913 52.2207C88.9214 52.2903 88.8609 52.3652 88.8057 52.4425C88.4921 52.777 88.2609 53.0336 88.1613 53.164C87.8583 53.5409 87.403 54.2199 87.1504 54.6724C86.8854 55.1249 86.5314 55.8286 86.3548 56.244C86.1781 56.6587 85.9255 57.4256 85.7862 57.9412C85.6599 58.4568 85.5081 59.4496 85.4702 60.141C85.4198 60.8955 85.4577 61.8253 85.5585 62.4665C85.6344 63.0576 85.8235 63.8994 85.9629 64.3519C86.1016 64.8044 86.4431 65.6214 86.7212 66.1747C86.9992 66.7281 87.4919 67.5451 87.8328 67.9976C88.1737 68.4501 88.7174 69.0789 89.0583 69.3928C89.3868 69.7072 89.8919 70.1343 90.17 70.3479C90.448 70.5614 90.9911 70.9136 91.3699 71.1396C91.7488 71.3661 92.4057 71.6799 92.8231 71.8563C93.2399 72.0321 94.1115 72.3088 94.7435 72.4722C95.666 72.7111 96.247 72.7736 97.4345 72.7736C98.6221 72.7736 99.2031 72.7106 100.113 72.4722C100.757 72.3088 101.654 72.0197 102.109 71.831C102.564 71.6422 103.296 71.2652 103.751 70.9886C104.206 70.7119 104.85 70.2718 105.204 70.0081C105.545 69.7314 107.668 67.695 109.904 65.4574L113.537 61.8429C113.537 61.8429 113.54 61.837 113.543 61.8347C114.207 61.1657 114.205 60.0779 113.536 59.4119H113.535Z"
        fill="white" />
      <path
        d="M127.71 72.7024C127.056 72.7024 126.553 72.5122 126.202 72.132C125.851 71.7517 125.676 71.2289 125.676 70.5635V49.1389C125.676 48.4497 125.863 47.9269 126.237 47.5704C126.611 47.1901 127.126 47 127.78 47C128.365 47 128.821 47.1188 129.148 47.3565C129.499 47.5704 129.814 47.9506 130.095 48.4972L138.757 64.7885H137.635L146.298 48.4972C146.579 47.9506 146.882 47.5704 147.21 47.3565C147.537 47.1188 147.993 47 148.578 47C149.232 47 149.735 47.1901 150.086 47.5704C150.436 47.9269 150.612 48.4497 150.612 49.1389V70.5635C150.612 71.2289 150.436 71.7517 150.086 72.132C149.758 72.5122 149.256 72.7024 148.578 72.7024C147.923 72.7024 147.42 72.5122 147.07 72.132C146.719 71.7517 146.544 71.2289 146.544 70.5635V54.0584H147.315L139.95 67.7116C139.716 68.1156 139.471 68.4127 139.213 68.6028C138.956 68.7929 138.606 68.888 138.161 68.888C137.717 68.888 137.355 68.7929 137.074 68.6028C136.794 68.3889 136.548 68.0918 136.338 67.7116L128.903 54.0227H129.744V70.5635C129.744 71.2289 129.569 71.7517 129.218 72.132C128.891 72.5122 128.388 72.7024 127.71 72.7024Z"
        fill="white" />
      <path
        d="M163.306 72.7738C161.366 72.7738 159.694 72.4055 158.291 71.6687C156.888 70.932 155.801 69.8863 155.03 68.5317C154.281 67.1771 153.907 65.5729 153.907 63.7192C153.907 61.913 154.27 60.3326 154.995 58.978C155.743 57.6234 156.76 56.5658 158.046 55.8053C159.355 55.021 160.84 54.6289 162.5 54.6289C163.716 54.6289 164.803 54.8309 165.761 55.2349C166.743 55.6389 167.573 56.2212 168.251 56.9817C168.953 57.7422 169.479 58.669 169.829 59.7623C170.204 60.8317 170.391 62.0437 170.391 63.3984C170.391 63.8261 170.239 64.1589 169.935 64.3965C169.654 64.6104 169.245 64.7173 168.707 64.7173H157.449V62.1507H167.304L166.743 62.6854C166.743 61.5922 166.579 60.6772 166.253 59.9405C165.949 59.2037 165.492 58.6453 164.885 58.265C164.3 57.861 163.563 57.659 162.675 57.659C161.693 57.659 160.851 57.8967 160.15 58.372C159.472 58.8235 158.946 59.4771 158.572 60.3326C158.221 61.1644 158.046 62.1625 158.046 63.3271V63.5766C158.046 65.5253 158.49 66.987 159.378 67.9613C160.29 68.9119 161.623 69.3872 163.377 69.3872C163.984 69.3872 164.662 69.316 165.41 69.1734C166.182 69.007 166.907 68.7337 167.585 68.3535C168.076 68.0683 168.509 67.9494 168.883 67.997C169.257 68.0208 169.549 68.1515 169.759 68.3891C169.993 68.6268 170.133 68.9238 170.18 69.2803C170.227 69.613 170.157 69.9577 169.97 70.3141C169.806 70.6706 169.514 70.9796 169.093 71.2409C168.275 71.7638 167.328 72.1559 166.253 72.4174C165.2 72.655 164.218 72.7738 163.306 72.7738Z"
        fill="white" />
      <path
        d="M180.869 72.7734C179.35 72.7734 178.076 72.512 177.047 71.9891C176.041 71.4663 175.293 70.7058 174.802 69.7077C174.311 68.6858 174.066 67.4261 174.066 65.929V58.3358H172.242C171.681 58.3358 171.248 58.1933 170.944 57.9081C170.64 57.5991 170.488 57.1833 170.488 56.6604C170.488 56.1138 170.64 55.6979 170.944 55.4127C171.248 55.1276 171.681 54.9849 172.242 54.9849H174.066V51.741C174.066 51.0042 174.253 50.4457 174.627 50.0655C175.024 49.6852 175.574 49.4951 176.275 49.4951C176.977 49.4951 177.514 49.6852 177.888 50.0655C178.262 50.4457 178.45 51.0042 178.45 51.741V54.9849H182.167C182.728 54.9849 183.161 55.1276 183.465 55.4127C183.769 55.6979 183.921 56.1138 183.921 56.6604C183.921 57.1833 183.769 57.5991 183.465 57.9081C183.161 58.1933 182.728 58.3358 182.167 58.3358H178.45V65.6794C178.45 66.8201 178.695 67.6757 179.186 68.2461C179.677 68.8164 180.472 69.1017 181.571 69.1017C181.968 69.1017 182.319 69.066 182.623 68.9947C182.927 68.9234 183.196 68.8759 183.43 68.8521C183.71 68.8283 183.944 68.9234 184.131 69.1373C184.318 69.3274 184.412 69.7314 184.412 70.3493C184.412 70.8246 184.33 71.2524 184.166 71.6327C184.026 71.9891 183.757 72.2387 183.359 72.3813C183.055 72.4763 182.658 72.5595 182.167 72.6308C181.676 72.7258 181.243 72.7734 180.869 72.7734Z"
        fill="white" />
      <path
        d="M193.974 72.7738C192.034 72.7738 190.362 72.4055 188.959 71.6687C187.556 70.932 186.469 69.8863 185.698 68.5317C184.949 67.1771 184.575 65.5729 184.575 63.7192C184.575 61.913 184.938 60.3326 185.663 58.978C186.411 57.6234 187.427 56.5658 188.714 55.8053C190.023 55.021 191.508 54.6289 193.168 54.6289C194.383 54.6289 195.47 54.8309 196.429 55.2349C197.411 55.6389 198.241 56.2212 198.919 56.9817C199.621 57.7422 200.147 58.669 200.497 59.7623C200.871 60.8317 201.059 62.0437 201.059 63.3984C201.059 63.8261 200.907 64.1589 200.602 64.3965C200.322 64.6104 199.913 64.7173 199.375 64.7173H188.117V62.1507H197.972L197.411 62.6854C197.411 61.5922 197.247 60.6772 196.92 59.9405C196.617 59.2037 196.16 58.6453 195.553 58.265C194.968 57.861 194.231 57.659 193.343 57.659C192.361 57.659 191.519 57.8967 190.818 58.372C190.14 58.8235 189.613 59.4771 189.239 60.3326C188.889 61.1644 188.714 62.1625 188.714 63.3271V63.5766C188.714 65.5253 189.158 66.987 190.046 67.9613C190.958 68.9119 192.291 69.3872 194.045 69.3872C194.652 69.3872 195.33 69.316 196.078 69.1734C196.85 69.007 197.575 68.7337 198.253 68.3535C198.744 68.0683 199.177 67.9494 199.551 67.997C199.925 68.0208 200.217 68.1515 200.427 68.3891C200.661 68.6268 200.801 68.9238 200.848 69.2803C200.895 69.613 200.825 69.9577 200.638 70.3141C200.474 70.6706 200.182 70.9796 199.761 71.2409C198.943 71.7638 197.996 72.1559 196.92 72.4174C195.868 72.655 194.886 72.7738 193.974 72.7738Z"
        fill="white" />
      <path
        d="M211.572 72.7738C209.795 72.7738 208.252 72.4055 206.943 71.6687C205.633 70.932 204.616 69.8863 203.891 68.5317C203.166 67.1533 202.804 65.5372 202.804 63.6835C202.804 62.2814 203.003 61.0337 203.4 59.9405C203.821 58.8235 204.417 57.8729 205.189 57.0886C205.96 56.2806 206.884 55.6746 207.959 55.2706C209.035 54.8428 210.239 54.6289 211.572 54.6289C213.349 54.6289 214.892 54.9973 216.201 55.734C217.51 56.4707 218.527 57.5164 219.252 58.871C219.977 60.2257 220.34 61.8298 220.34 63.6835C220.34 65.0857 220.129 66.3453 219.708 67.4622C219.311 68.5792 218.726 69.5417 217.955 70.3498C217.183 71.134 216.26 71.74 215.184 72.1678C214.109 72.5718 212.905 72.7738 211.572 72.7738ZM211.572 69.3872C212.437 69.3872 213.197 69.1734 213.851 68.7456C214.506 68.3178 215.009 67.688 215.36 66.8562C215.734 66.0007 215.921 64.9431 215.921 63.6835C215.921 61.7823 215.523 60.3683 214.728 59.4414C213.933 58.4908 212.881 58.0155 211.572 58.0155C210.707 58.0155 209.947 58.2294 209.292 58.6572C208.637 59.0612 208.123 59.6909 207.749 60.5465C207.398 61.3783 207.223 62.424 207.223 63.6835C207.223 65.561 207.62 66.987 208.416 67.9613C209.21 68.9119 210.263 69.3872 211.572 69.3872Z"
        fill="white" />
      <path
        d="M225.424 72.7023C224.699 72.7023 224.138 72.5121 223.741 72.1319C223.367 71.7279 223.18 71.1575 223.18 70.4208V56.9458C223.18 56.2091 223.367 55.6506 223.741 55.2703C224.115 54.8901 224.641 54.7 225.319 54.7C225.997 54.7 226.523 54.8901 226.897 55.2703C227.271 55.6506 227.458 56.2091 227.458 56.9458V59.1916H227.107C227.435 57.7657 228.078 56.6843 229.037 55.9476C229.995 55.2109 231.27 54.7712 232.859 54.6286C233.35 54.5811 233.736 54.7118 234.017 55.0208C234.321 55.306 234.496 55.7575 234.543 56.3754C234.59 56.9696 234.449 57.4568 234.122 57.837C233.818 58.1935 233.35 58.4074 232.719 58.4787L231.948 58.5499C230.521 58.6926 229.446 59.1441 228.721 59.9046C227.996 60.6413 227.634 61.687 227.634 63.0416V70.4208C227.634 71.1575 227.446 71.7279 227.072 72.1319C226.698 72.5121 226.149 72.7023 225.424 72.7023Z"
        fill="white" />
    </g>
  </g>
  <defs>
    <filter id="filter0_b_829_24" x="-70" y="-70" width="460" height="260" filterUnits="userSpaceOnUse"
      color-interpolation-filters="sRGB">
      <feFlood flood-opacity="0" result="BackgroundImageFix" />
      <feGaussianBlur in="BackgroundImageFix" stdDeviation="35" />
      <feComposite in2="SourceAlpha" operator="in" result="effect1_backgroundBlur_829_24" />
      <feBlend mode="normal" in="SourceGraphic" in2="effect1_backgroundBlur_829_24" result="shape" />
    </filter>
    <clipPath id="clip0_829_24">
      <rect width="149.102" height="26" fill="white" transform="translate(85.449 47)" />
    </clipPath>
  </defs>
</svg>
