<svg width="320" height="120" viewBox="0 0 320 120" fill="none" xmlns="http://www.w3.org/2000/svg">
  <g filter="url(#filter0_b_829_823)">
    <g clip-path="url(#clip0_829_823)">
      <path
        d="M148.698 48.9487C146.35 48.9487 144.643 49.501 143.192 50.7789L140.632 52.988C140.42 53.1558 139.991 53.2858 139.692 53.0313C139.393 52.7768 139.35 52.4357 139.605 52.0946L140.969 50.0533C141.181 49.7555 141.013 49.3711 140.627 49.3711H137.344C136.958 49.3711 136.659 49.6689 136.659 50.0533V69.9464C136.659 70.3308 136.958 70.6286 137.344 70.6286H140.757C141.143 70.6286 141.442 70.3308 141.442 69.9464V58.7274C141.442 53.5836 145.752 52.7768 147.372 52.7768C150.828 52.7768 152.062 55.2405 152.062 57.1139V69.9518C152.062 70.3362 152.361 70.634 152.747 70.634H156.16C156.546 70.634 156.845 70.3362 156.845 69.9518V56.6916C156.845 51.9322 153.731 48.9542 148.698 48.9542V48.9487Z"
        fill="white" />
      <path
        d="M170.753 48.8619C164.139 48.8619 159.916 52.9011 159.916 58.3806V61.3965C159.916 67.1793 164.139 71.1319 170.753 71.1319C176.596 71.1319 180.694 68.116 181.118 64.0334C181.161 63.6056 180.862 63.3133 180.433 63.3133H177.107C176.808 63.3133 176.552 63.4811 176.465 63.7789C176.036 65.138 174.036 67.1793 170.748 67.1793C167.459 67.1793 164.389 64.7969 164.432 61.3965L164.476 57.6117C164.519 54.7637 167.503 52.8091 170.748 52.8091C173.693 52.8091 176.547 54.4659 176.846 57.184C176.867 57.498 176.655 57.7796 176.34 57.8446L166.775 59.6963C166.389 59.783 166.09 60.1187 166.09 60.5464V60.5897C166.09 60.9742 166.476 61.3099 167.03 61.3099H180.764C181.139 61.3099 181.449 61.0067 181.449 60.6276V57.9529C181.449 52.8957 177.058 48.8564 170.742 48.8564L170.753 48.8619Z"
        fill="white" />
      <path
        d="M194.553 48.8623C189.222 48.8623 184.613 51.9648 184.613 56.0474C184.613 56.3885 184.912 56.643 185.297 56.643H188.754C189.097 56.643 189.352 56.3885 189.395 56.0474C189.738 54.1794 191.999 52.8149 194.428 52.8149C197.331 52.8149 199.293 54.6017 199.293 57.661V61.3591C199.293 65.1439 196.477 67.0552 192.977 67.0552C190.249 67.0552 188.667 66.0373 188.667 64.375C188.667 62.9293 189.434 61.6948 192.591 60.9747L197.157 59.7401C197.624 59.6102 197.798 59.2312 197.711 58.8034C197.668 58.4623 197.287 58.2945 196.945 58.2945H192.211C188.2 58.2945 184.151 60.8447 184.151 64.5862V65.1818C184.151 69.0044 187.776 71.0024 191.917 71.0024C194.564 71.0024 196.825 69.9845 198.233 68.7933L200.325 67.0065C200.668 66.7087 201.01 66.7087 201.309 67.0065C201.564 67.261 201.477 67.6454 201.266 67.9432L199.988 69.9412C199.776 70.239 199.945 70.6234 200.331 70.6234H203.401C203.787 70.6234 204.086 70.3256 204.086 69.9412V57.0653C204.086 52.1327 200.548 48.8623 194.575 48.8623H194.553Z"
        fill="white" />
      <path
        d="M222.495 49.3712H217.717C216.054 49.3712 214.435 50.3891 213.282 51.3692L211.407 52.9827C211.195 53.1505 210.809 53.2805 210.554 53.0693C210.255 52.8582 210.125 52.4304 210.385 52.0893L211.75 50.048C211.962 49.7502 211.793 49.3658 211.407 49.3658H208.206C207.82 49.3658 207.521 49.6636 207.521 50.048V69.9411C207.521 70.3255 207.82 70.6233 208.206 70.6233H211.706C212.092 70.6233 212.391 70.3255 212.391 69.9411V59.74C212.391 55.3651 214.185 53.405 218.065 53.405H222.5C222.886 53.405 223.185 53.1072 223.185 52.7228V50.0426C223.185 49.6582 222.886 49.3604 222.5 49.3604L222.495 49.3712Z"
        fill="white" />
      <path
        d="M124.697 44C123.507 44 122.403 44.6173 121.778 45.6244L115.066 55.5547C114.849 55.8795 114.936 56.3235 115.267 56.5401C115.533 56.7188 115.887 56.6971 116.126 56.486L122.735 50.7736C122.844 50.6761 123.012 50.687 123.115 50.7953C123.159 50.844 123.186 50.909 123.186 50.9739V68.8528C123.186 68.999 123.066 69.1181 122.92 69.1181C122.838 69.1181 122.767 69.0856 122.713 69.0206L102.734 45.2075C102.082 44.444 101.125 44 100.12 44H99.4241C97.5327 44 96 45.5269 96 47.4112V72.5943C96 74.4785 97.5327 76.0054 99.4241 76.0054C100.614 76.0054 101.718 75.3882 102.343 74.3811L109.055 64.4508C109.272 64.1259 109.185 63.6819 108.859 63.4653C108.593 63.2866 108.24 63.3083 108 63.5195L101.392 69.2318C101.283 69.3293 101.114 69.3184 101.011 69.2102C100.968 69.1614 100.94 69.0965 100.94 69.0315V51.1364C100.94 50.9902 101.06 50.8711 101.207 50.8711C101.288 50.8711 101.359 50.9036 101.413 50.9685L121.387 74.798C122.039 75.5614 122.99 76.0054 124.001 76.0054H124.697C126.588 76.0054 128.121 74.4839 128.121 72.5997V47.4112C128.121 45.5269 126.588 44 124.697 44Z"
        fill="white" />
    </g>
  </g>
  <defs>
    <filter id="filter0_b_829_823" x="-70" y="-70" width="460" height="260" filterUnits="userSpaceOnUse"
      color-interpolation-filters="sRGB">
      <feFlood flood-opacity="0" result="BackgroundImageFix" />
      <feGaussianBlur in="BackgroundImageFix" stdDeviation="35" />
      <feComposite in2="SourceAlpha" operator="in" result="effect1_backgroundBlur_829_823" />
      <feBlend mode="normal" in="SourceGraphic" in2="effect1_backgroundBlur_829_823" result="shape" />
    </filter>
    <clipPath id="clip0_829_823">
      <rect width="128" height="32" fill="white" transform="translate(96 44)" />
    </clipPath>
  </defs>
</svg>
