<svg width="320" height="120" viewBox="0 0 320 120" fill="none" xmlns="http://www.w3.org/2000/svg">
  <g filter="url(#filter0_b_829_296)">
    <g clip-path="url(#clip0_829_296)">
      <path
        d="M69.3071 67.6012H73.8346V61.5902C73.8346 57.9781 75.9603 56.9579 77.9479 56.9579C78.3069 56.9579 78.6381 56.9855 79.1075 57.0406V53.2355C78.6658 53.1252 78.3069 53.0977 78.0032 53.0977C75.8223 53.0977 74.4695 54.559 73.9174 56.82H73.8346V53.2631H69.3071V67.6012Z"
        fill="white" />
      <path
        d="M86.8734 67.8768C88.999 67.8768 90.4623 66.7463 90.8487 65.671V67.6012H95.3762V48.2998H90.8487V55.1931C90.4623 54.1178 88.999 52.9873 86.8734 52.9873C83.9471 52.9873 80.6343 55.138 80.6343 60.4321C80.6343 65.7537 83.9471 67.8768 86.8734 67.8768ZM84.8857 60.4321C84.8857 57.8953 86.404 56.7372 88.0053 56.7372C89.5788 56.7372 91.042 57.8953 91.042 60.4321C91.042 62.9688 89.5788 64.1269 88.0053 64.1269C86.404 64.1269 84.8857 62.9688 84.8857 60.4321Z"
        fill="white" />
      <path
        d="M105.655 67.8769C109.189 67.8769 111.756 66.0571 112.419 62.7483H108.443C108.195 63.6857 107.588 64.4578 105.738 64.4578C103.971 64.4578 102.867 63.6582 102.618 61.5626H112.529C112.584 61.2318 112.612 60.956 112.612 60.4321C112.612 54.8347 109.354 52.9873 105.655 52.9873C101.818 52.9873 98.3394 55.0277 98.3394 60.3769C98.3394 65.9467 102.094 67.8769 105.655 67.8769ZM102.646 58.9431C102.922 57.2887 103.861 56.4064 105.545 56.4064C107.615 56.4064 108.25 57.7024 108.333 58.9431H102.646Z"
        fill="white" />
      <path
        d="M115.547 67.6012H120.075V61.5902C120.075 57.9781 122.201 56.9579 124.188 56.9579C124.547 56.9579 124.878 56.9855 125.348 57.0406V53.2355C124.906 53.1252 124.547 53.0977 124.243 53.0977C122.062 53.0977 120.71 54.559 120.158 56.82H120.075V53.2631H115.547V67.6012Z"
        fill="white" />
      <path d="M127.996 67.6012H132.523V48.2998H127.996V67.6012Z" fill="white" />
      <path
        d="M136.463 69.3655V73.1706C140.908 73.6394 142.758 72.1504 144.69 67.4354L150.487 53.2627H145.85L142.702 61.838L139.638 53.2627H135.028L140.246 66.1395C140.604 66.9942 140.632 67.4354 140.328 68.1247C140.08 68.6762 139.445 69.7516 136.463 69.3655Z"
        fill="white" />
      <path
        d="M160.325 67.6012H164.934V56.0755H165.045L172.002 67.6012H176.971V48.2998H172.333V60.1288H172.222L165.1 48.2998H160.325V67.6012Z"
        fill="white" />
      <path
        d="M187.216 67.8769C190.748 67.8769 193.316 66.0571 193.979 62.7483H190.004C189.755 63.6857 189.148 64.4578 187.298 64.4578C185.531 64.4578 184.427 63.6582 184.179 61.5626H194.09C194.144 61.2318 194.172 60.956 194.172 60.4321C194.172 54.8347 190.914 52.9873 187.216 52.9873C183.378 52.9873 179.899 55.0277 179.899 60.3769C179.899 65.9467 183.654 67.8769 187.216 67.8769ZM184.206 58.9431C184.482 57.2887 185.421 56.4064 187.105 56.4064C189.176 56.4064 189.81 57.7024 189.893 58.9431H184.206Z"
        fill="white" />
      <path
        d="M203.679 67.7948C204.536 67.7948 205.364 67.6845 206.053 67.4915V64.1551C205.419 64.2103 205.17 64.2103 204.867 64.2103C203.403 64.2103 203.127 63.4107 203.127 62.4179V56.7655H205.943V53.2636H203.127V49.5137H198.6V53.2636H196.143V56.7655H198.6V63.0521C198.6 66.3886 200.588 67.7948 203.679 67.7948Z"
        fill="white" />
      <path
        d="M211.866 67.6008H216.973L219.264 59.2736L221.555 67.6008H226.635L230.391 53.2627H226.111L223.875 63.2443H223.764L221.197 53.2627H217.304L214.737 63.2443H214.627L212.39 53.2627H208.139L211.866 67.6008Z"
        fill="white" />
      <path
        d="M239.095 67.8769C242.712 67.8769 246.383 65.6986 246.383 60.4321C246.383 55.1656 242.712 52.9873 239.095 52.9873C235.452 52.9873 231.807 55.1656 231.807 60.4321C231.807 65.6986 235.452 67.8769 239.095 67.8769ZM236.032 60.4321C236.032 57.8953 237.329 56.7373 239.095 56.7373C240.835 56.7373 242.132 57.8953 242.132 60.4321C242.132 62.9688 240.835 64.127 239.095 64.127C237.329 64.127 236.032 62.9688 236.032 60.4321Z"
        fill="white" />
      <path
        d="M249.312 67.6012H253.84V61.5902C253.84 57.9781 255.966 56.9579 257.953 56.9579C258.312 56.9579 258.643 56.9855 259.112 57.0406V53.2355C258.671 53.1252 258.312 53.0977 258.009 53.0977C255.827 53.0977 254.475 54.559 253.923 56.82H253.84V53.2631H249.312V67.6012Z"
        fill="white" />
      <path
        d="M261.761 67.6012H266.289V63.4651L267.42 62.2519L271.7 67.6012H276.668L270.181 59.3291L275.923 53.263H270.982L266.289 58.6122V48.2998H261.761V67.6012Z"
        fill="white" />
      <path fill-rule="evenodd" clip-rule="evenodd"
        d="M54.6064 46.748H54.6601C57.4931 46.7546 60.0812 47.8025 62.0609 49.5289C62.2013 49.6512 62.1124 49.8757 61.9262 49.8757H47.3403C47.1541 49.8757 47.0652 49.6512 47.2055 49.5289C49.1853 47.8025 51.7734 46.7546 54.6064 46.748Z"
        fill="white" />
      <path fill-rule="evenodd" clip-rule="evenodd"
        d="M50.2381 61.1055C50.1572 60.9903 50.0271 60.918 49.8862 60.918H44.0418C43.8725 60.918 43.749 61.0784 43.7971 61.2406C45.1808 65.9108 49.5087 69.3184 54.6334 69.3184C59.7582 69.3184 64.086 65.9108 65.4698 61.2406C65.5177 61.0784 65.3943 60.918 65.225 60.918H59.3807C59.2399 60.918 59.1097 60.9903 59.0289 61.1055C58.0585 62.4874 56.4517 63.3908 54.6335 63.3908C52.8153 63.3908 51.2083 62.4874 50.2381 61.1055Z"
        fill="white" />
      <path fill-rule="evenodd" clip-rule="evenodd"
        d="M58.887 54.7685C58.9903 54.9027 59.1476 54.9868 59.3171 54.9868H65.1746C65.3455 54.9868 65.4692 54.8239 65.4182 54.661C64.9756 53.2466 64.2618 51.9519 63.3377 50.8375C63.2607 50.7448 63.1458 50.6924 63.0253 50.6924H46.2381C46.1175 50.6924 46.0026 50.7448 45.9257 50.8375C45.0015 51.9519 44.2877 53.2466 43.8451 54.661C43.7941 54.8239 43.9178 54.9868 44.0887 54.9868H49.9462C50.1157 54.9868 50.273 54.9027 50.3763 54.7685C51.3571 53.4946 52.8984 52.6736 54.6317 52.6736C56.365 52.6736 57.9063 53.4946 58.887 54.7685Z"
        fill="white" />
      <path fill-rule="evenodd" clip-rule="evenodd"
        d="M59.816 60.102C59.7053 60.102 59.6302 59.9894 59.6684 59.8857C59.881 59.3088 59.9971 58.6853 59.9971 58.0348C59.9971 57.3255 59.8591 56.6484 59.6086 56.0289C59.5662 55.9244 59.6416 55.8076 59.7544 55.8076H65.5C65.623 55.8076 65.7293 55.8943 65.7512 56.0152C65.8697 56.6705 65.9316 57.3455 65.9316 58.0349C65.9316 58.667 65.8795 59.287 65.7796 59.8908C65.7593 60.0134 65.6522 60.102 65.5278 60.102H59.816ZM49.5962 59.8857C49.6344 59.9894 49.5593 60.102 49.4486 60.102H43.7369C43.6124 60.102 43.5054 60.0134 43.485 59.8908C43.385 59.287 43.333 58.667 43.333 58.0349C43.333 57.3455 43.3949 56.6705 43.5134 56.0152C43.5353 55.8943 43.6416 55.8076 43.7646 55.8076H49.5102C49.623 55.8076 49.6983 55.9244 49.6561 56.0289C49.4055 56.6484 49.2675 57.3255 49.2675 58.0348C49.2675 58.6853 49.3836 59.3088 49.5962 59.8857Z"
        fill="white" />
    </g>
  </g>
  <defs>
    <filter id="filter0_b_829_296" x="-70" y="-70" width="460" height="260" filterUnits="userSpaceOnUse"
      color-interpolation-filters="sRGB">
      <feFlood flood-opacity="0" result="BackgroundImageFix" />
      <feGaussianBlur in="BackgroundImageFix" stdDeviation="35" />
      <feComposite in2="SourceAlpha" operator="in" result="effect1_backgroundBlur_829_296" />
      <feBlend mode="normal" in="SourceGraphic" in2="effect1_backgroundBlur_829_296" result="shape" />
    </filter>
    <clipPath id="clip0_829_296">
      <rect width="233.333" height="28" fill="white" transform="translate(43.3333 46)" />
    </clipPath>
  </defs>
</svg>
