<svg width="320" height="120" viewBox="0 0 320 120" fill="none" xmlns="http://www.w3.org/2000/svg">
  <g filter="url(#filter0_b_829_318)">
    <g clip-path="url(#clip0_829_318)">
      <mask id="mask0_829_318" style="mask-type:luminance" maskUnits="userSpaceOnUse" x="56" y="20" width="208"
        height="81">
        <path d="M263.498 20.001H56.4982V100.001H263.498V20.001Z" fill="white" />
      </mask>
      <g mask="url(#mask0_829_318)">
        <path fill-rule="evenodd" clip-rule="evenodd"
          d="M65.4955 69.5762C66.9336 71.1305 68.3799 72.6683 70.7354 72.7923C70.5701 72.8749 70.4544 72.9328 70.3305 72.9907C70.2312 73.0403 70.066 73.0486 70.0577 73.1726C70.0494 73.2966 70.1569 73.338 70.256 73.3793C70.2808 73.3876 70.3056 73.3958 70.3305 73.4124C72.8429 74.6608 75.5125 75.1899 78.2729 74.9005C82.5127 74.4623 86.1327 72.6848 88.9097 69.3447C91.6701 66.0212 92.8437 62.1521 92.3892 57.8199C91.9841 53.8929 90.2816 50.6106 87.3807 47.9733C85.3806 46.1627 83.0665 45.0053 80.4548 44.4514C80.1325 44.3852 79.9176 44.286 79.7358 43.9801C79.463 43.5089 78.7771 43.4262 78.3556 43.7652C77.9258 44.1124 77.8514 44.7655 78.2067 45.1872C78.5622 45.6088 79.2316 45.675 79.6035 45.2781C79.8349 45.0301 80.0581 45.0384 80.3226 45.1045C85.1492 46.2289 88.5874 49.0729 90.6535 53.6448C90.8932 54.1822 91.1164 54.7444 91.2155 55.3396C90.8436 54.6452 90.4552 53.959 89.9676 53.3389C89.4882 52.7189 88.9758 52.1236 88.3725 51.611C84.6285 48.4611 80.5044 47.8328 76 49.6351C75.7934 49.7178 75.6199 49.7674 75.3967 49.6516C74.8595 49.3788 74.2645 49.6433 74.0496 50.2055C73.8595 50.7016 74.1405 51.2886 74.6446 51.4622C75.2066 51.6524 75.7687 51.3547 75.9092 50.7512C75.9753 50.4453 76.1406 50.2882 76.405 50.1725C78.339 49.354 80.3474 49.0977 82.4053 49.4615C86.3476 50.1559 89.1659 52.3881 90.8105 56.1085C91.6949 58.1092 91.9677 60.2257 91.5379 62.3753C90.8354 65.9551 89.0254 68.8653 86.1823 71.0809C83.3723 73.2718 80.2647 73.6852 76.9836 72.4037C75.2314 71.7175 73.8595 70.4691 72.752 68.9314C72.2644 68.2534 71.8842 67.5176 71.5537 66.7157C71.6859 66.7488 71.6941 66.8397 71.7272 66.8976C72.2065 67.7905 72.7851 68.6172 73.5124 69.3199C75.6529 71.3786 78.1738 72.3624 81.1408 72.073C85.6285 71.6266 89.232 67.6582 89.2816 63.0532C89.3064 60.854 88.67 58.8616 87.3229 57.1337C87.1576 56.9187 87.0584 56.7203 87.0997 56.431C87.1824 55.8109 86.7526 55.3314 86.1575 55.3148C85.6037 55.2983 85.1327 55.7696 85.1575 56.3152C85.1823 56.9187 85.6616 57.3569 86.2567 57.2742C86.5294 57.2329 86.6782 57.3321 86.8269 57.5305C88.0501 59.1675 88.6535 61.0029 88.6121 63.0697C88.5709 65.3185 87.7609 67.2365 86.2567 68.8487C84.7194 70.4857 82.802 71.3455 80.5871 71.4778C79.1242 71.5605 77.7026 71.3207 76.4629 70.4526C74.5951 69.138 73.8099 66.4015 74.7191 64.1528C76.0083 60.9698 78.4299 59.2832 81.7689 58.9442C82.5458 58.8616 83.2152 59.1675 83.7442 59.771C84.0004 60.0604 84.1078 60.4324 84.2979 60.8292C84.4301 60.6473 84.4467 60.4986 84.4797 60.3498C84.8517 58.3738 83.7442 56.4806 81.835 55.8357C80.6945 55.4471 79.8597 54.7279 79.3969 53.5952C79.3556 53.5043 79.3473 53.3885 79.2316 53.3472C79.0911 53.4381 79.1076 53.5952 79.0746 53.7275C78.8514 54.7031 78.868 55.6786 79.0746 56.6542C79.1407 56.9766 79.0663 57.0923 78.7523 57.1502C77.777 57.3486 76.7935 57.3817 75.8265 57.1502C72.8181 56.4475 70.5205 53.5208 70.4709 50.3792C70.4379 48.4363 71.0825 46.7828 72.4545 45.4187C72.5949 45.2781 72.7933 45.1624 72.8677 44.9061C72.4379 44.9805 72.0908 45.1458 71.7355 45.2781C69.4048 46.171 67.4295 47.5351 66.1402 49.7591C64.7765 52.1236 64.512 54.579 65.7683 57.1006C65.7683 57.1089 65.7765 57.1171 65.7848 57.1337C65.8096 57.175 65.8427 57.2246 65.7848 57.2742C65.6856 57.2412 65.6526 57.1502 65.603 57.0841C64.6443 55.6373 64.1318 54.05 64.0988 52.3054C64.0988 52.2806 64.0988 52.2476 64.0988 52.2145C64.1071 52.1071 64.1153 51.9831 64.0161 51.9583C63.8839 51.9169 63.8426 52.0409 63.8013 52.1484C63.793 52.1814 63.7765 52.2145 63.7599 52.2393C63.2227 53.281 62.8508 54.3723 62.6525 55.5381C62.3136 57.5471 62.4541 59.4899 63.3467 61.3419C63.7599 62.1934 64.3467 62.9127 65.0575 63.5327C63.7682 62.7969 62.793 61.7138 61.9334 60.3746C61.9251 60.4572 61.9086 60.5151 61.9086 60.5565C61.9004 60.6308 61.8921 60.6639 61.8921 60.7052C62.0243 62.2265 62.3301 63.7063 62.9582 65.1036C63.8343 67.0547 65.0658 68.609 67.289 69.0306C66.6278 69.0637 65.9832 68.9645 65.3054 68.857C65.1649 68.8322 65.0162 68.8157 64.8757 68.7909C65.0327 69.1711 65.2724 69.3943 65.4873 69.6259L65.4955 69.5762ZM82.6201 57.7703L81.4796 56.3731L81.4466 56.5632C81.3969 56.8608 81.5127 57.1667 81.7359 57.2825L82.6201 57.7703Z"
          fill="white" />
        <path fill-rule="evenodd" clip-rule="evenodd"
          d="M79.2674 53.9294C79.4063 55.9252 79.5452 57.0217 79.684 57.2191C77.9728 57.7071 76.3061 57.7071 74.6838 57.2191C72.2504 56.4872 67.6002 52.2845 71.5087 45.7051C65.8473 48.4465 64.2 52.5587 66.5668 58.0416C65.0334 57.6194 64.1556 56.0924 63.9333 53.4606C61.9332 56.9696 62.636 60.4951 66.0418 64.0371C65.3251 64.1632 64.1806 63.4559 62.6083 61.9152C62.8694 65.7587 64.6528 68.0807 67.9585 68.8812C67.164 69.0786 66.4473 69.1581 65.8084 69.1197C66.764 70.6714 68.0585 71.7269 69.6919 72.2861C69.7086 72.2861 69.7253 72.3026 69.7503 72.3026C71.4003 72.8509 71.9865 69.7174 71.5087 62.9021L75.4005 62.6637C77.0451 60.1306 79.2341 58.8174 81.9675 58.7242L79.2674 53.9294Z"
          fill="white" />
        <mask id="mask1_829_318" style="mask-type:luminance" maskUnits="userSpaceOnUse" x="101" y="51" width="163"
          height="19">
          <path d="M263.494 51.2266H101.494V69.2266H263.494V51.2266Z" fill="white" />
        </mask>
        <g mask="url(#mask1_829_318)">
          <path
            d="M108.233 52.1768C109.031 52.1768 109.771 52.3347 110.492 52.6307C111.193 52.9465 111.816 53.361 112.342 53.8939C112.868 54.4268 113.297 55.0583 113.608 55.7689C113.92 56.4794 114.076 57.2491 114.076 58.0781C114.076 58.907 113.92 59.657 113.628 60.3675C113.316 61.0978 112.907 61.7294 112.381 62.2623C111.855 62.7952 111.232 63.2294 110.531 63.5452C109.83 63.861 109.07 64.0189 108.252 64.0189H105V68.736H101.494V52.1768H108.233ZM107.843 60.7228C108.194 60.7228 108.545 60.6439 108.856 60.5057C109.168 60.3675 109.44 60.1702 109.674 59.9333C109.908 59.6965 110.083 59.4202 110.219 59.1044C110.356 58.7886 110.414 58.4531 110.414 58.0781C110.414 57.7031 110.356 57.407 110.219 57.0912C110.083 56.7754 109.908 56.4991 109.674 56.2623C109.44 56.0254 109.168 55.8281 108.856 55.6899C108.545 55.5518 108.213 55.4728 107.843 55.4728H105V60.7031H107.824L107.843 60.7228Z"
            fill="white" />
          <path
            d="M122.664 56.2228C123.365 56.2228 124.028 56.361 124.631 56.6175C125.235 56.8939 125.781 57.2491 126.228 57.7228C126.696 58.1965 127.046 58.7294 127.319 59.3412C127.592 59.9531 127.709 60.6241 127.709 61.3347V68.7557H124.203V62.0254C124.203 61.6702 124.125 61.3544 123.989 61.0386C123.852 60.7228 123.658 60.4465 123.424 60.2097C123.19 59.9728 122.918 59.7952 122.606 59.657C122.294 59.5189 121.963 59.4597 121.632 59.4597C121.301 59.4597 120.931 59.5386 120.619 59.6768C120.308 59.8149 120.035 60.0123 119.801 60.2491C119.568 60.486 119.373 60.7623 119.237 61.0781C119.1 61.3939 119.022 61.7294 119.022 62.1044V68.7755H115.517V52.1768H119.022V58.0781C119.509 57.5254 120.055 57.0715 120.639 56.736C121.243 56.4004 121.905 56.2228 122.645 56.2228H122.664Z"
            fill="white" />
          <path
            d="M135.578 69.2273C134.604 69.2273 133.708 69.0496 132.871 68.7141C132.033 68.3786 131.293 67.9049 130.67 67.3128C130.047 66.7207 129.56 66.0299 129.209 65.2404C128.859 64.451 128.664 63.622 128.664 62.7339C128.664 61.8457 128.839 60.9773 129.209 60.1878C129.579 59.3983 130.066 58.7075 130.709 58.1154C131.332 57.5233 132.072 57.0694 132.91 56.7339C133.747 56.3983 134.623 56.2207 135.578 56.2207C136.532 56.2207 137.428 56.3983 138.265 56.7339C139.103 57.0891 139.843 57.5431 140.466 58.1352C141.089 58.7273 141.576 59.4181 141.927 60.2075C142.277 60.997 142.472 61.826 142.472 62.7141C142.472 63.6023 142.297 64.451 141.927 65.2404C141.557 66.0299 141.07 66.7207 140.447 67.2931C139.823 67.8852 139.103 68.3391 138.246 68.6746C137.408 69.0102 136.513 69.1878 135.578 69.1878V69.2273ZM135.578 59.4378C135.071 59.4378 134.604 59.5365 134.195 59.7141C133.786 59.9115 133.435 60.1483 133.143 60.4641C132.851 60.7799 132.637 61.1352 132.462 61.5299C132.286 61.9247 132.208 62.3194 132.208 62.7141C132.208 63.1089 132.286 63.5233 132.423 63.8983C132.578 64.2931 132.793 64.6286 133.085 64.9444C133.377 65.2602 133.728 65.5168 134.156 65.6944C134.584 65.8918 135.052 65.9707 135.578 65.9707C136.104 65.9707 136.571 65.872 136.999 65.6944C137.408 65.497 137.759 65.2602 138.051 64.9444C138.343 64.6286 138.558 64.2733 138.713 63.8983C138.869 63.5233 138.947 63.1089 138.947 62.7141C138.947 62.3194 138.869 61.9247 138.694 61.5299C138.519 61.1352 138.304 60.7799 138.012 60.4641C137.72 60.1483 137.37 59.8918 136.961 59.7141C136.552 59.5168 136.084 59.4378 135.578 59.4378Z"
            fill="white" />
          <path
            d="M149.854 56.2207C150.789 56.2207 151.665 56.3983 152.464 56.7339C153.262 57.0891 153.964 57.5431 154.548 58.1352C155.132 58.7273 155.6 59.4181 155.931 60.2075C156.262 60.997 156.437 61.826 156.437 62.7141C156.437 62.8918 156.437 63.0694 156.418 63.2668C156.398 63.4641 156.379 63.6418 156.34 63.8194H146.874C147.069 64.4115 147.439 64.9247 147.946 65.3589C148.452 65.7931 149.095 66.0102 149.874 66.0102C150.438 66.0102 150.984 65.8918 151.529 65.6747C152.074 65.4575 152.483 65.1615 152.756 64.8062L155.58 66.5628C155.268 66.9773 154.898 67.3523 154.489 67.6681C154.061 68.0036 153.613 68.2799 153.107 68.497C152.6 68.7339 152.094 68.9115 151.549 69.0299C151.003 69.1483 150.458 69.2273 149.893 69.2273C148.958 69.2273 148.082 69.0496 147.264 68.7141C146.446 68.3786 145.745 67.9049 145.141 67.3128C144.537 66.7207 144.07 66.0299 143.719 65.2404C143.369 64.451 143.193 63.622 143.193 62.7339C143.193 61.8457 143.369 60.9773 143.739 60.1878C144.109 59.3983 144.576 58.7075 145.18 58.1154C145.784 57.5233 146.504 57.0694 147.303 56.7339C148.101 56.3983 148.978 56.2207 149.893 56.2207L149.854 56.2207ZM149.854 59.4378C149.153 59.4378 148.549 59.6352 148.062 60.0102C147.576 60.3852 147.206 60.8391 146.952 61.3918H152.756C152.522 60.8589 152.152 60.4049 151.665 60.0102C151.159 59.6352 150.575 59.4378 149.874 59.4378H149.854Z"
            fill="white" />
          <path
            d="M164.636 56.2207C165.337 56.2207 165.999 56.3589 166.603 56.6154C167.207 56.8918 167.752 57.247 168.2 57.7207C168.668 58.1944 169.018 58.7273 169.291 59.3391C169.563 59.951 169.68 60.622 169.68 61.3325V68.7536H166.175V62.0233C166.175 61.6681 166.097 61.3523 165.96 61.0365C165.824 60.7207 165.629 60.4444 165.396 60.2075C165.162 59.9707 164.889 59.7931 164.578 59.6549C164.266 59.5168 163.935 59.4575 163.604 59.4575C163.253 59.4575 162.903 59.5365 162.591 59.6747C162.279 59.8128 162.007 60.0102 161.773 60.247C161.539 60.4839 161.364 60.7602 161.208 61.076C161.052 61.3918 160.994 61.7273 160.994 62.1023V68.7733H157.488V56.6944H160.994V58.076C161.481 57.5233 162.026 57.0694 162.611 56.7339C163.195 56.3983 163.876 56.2207 164.617 56.2207H164.636Z"
            fill="white" />
          <path
            d="M172.952 51.2266C173.517 51.2266 174.004 51.4239 174.413 51.8384C174.822 52.2529 175.017 52.7463 175.017 53.3384C175.017 53.9305 174.822 54.4239 174.413 54.8384C174.004 55.2529 173.517 55.4502 172.952 55.4502C172.387 55.4502 171.901 55.2529 171.492 54.8384C171.083 54.4239 170.888 53.9305 170.888 53.3384C170.888 52.7463 171.083 52.2529 171.492 51.8384C171.901 51.4239 172.387 51.2266 172.952 51.2266ZM171.219 56.6937H174.725V68.7529H171.219V56.6937Z"
            fill="white" />
          <path
            d="M184.247 62.7338L188.882 68.7535H184.831L182.241 65.3588L179.651 68.7535H175.58L180.216 62.7338L175.58 56.6943H179.631L182.241 60.0891L184.831 56.6943H188.882L184.247 62.7338Z"
            fill="white" />
          <path
            d="M203.081 59.9728C203.587 60.486 203.977 61.0386 204.288 61.6504C204.6 62.2623 204.756 62.9729 204.756 63.7623C204.756 64.4334 204.639 65.0452 204.386 65.6176C204.152 66.19 203.821 66.7031 203.412 67.1373C203.003 67.5715 202.516 67.9465 201.932 68.2229C201.348 68.4992 200.744 68.6768 200.101 68.736H191.921V52.1768H199.264C199.887 52.2162 200.471 52.3939 201.036 52.6702C201.601 52.9465 202.088 53.3018 202.516 53.7557C202.945 54.1899 203.276 54.7031 203.529 55.2952C203.782 55.8873 203.899 56.5189 203.899 57.1899C203.899 58.1768 203.626 59.1044 203.061 59.9925L203.081 59.9728ZM195.388 58.8281H198.699C199.147 58.8281 199.536 58.6702 199.867 58.3544C200.198 58.0386 200.354 57.6439 200.354 57.1702C200.354 56.6965 200.198 56.3215 199.867 56.0057C199.556 55.6899 199.147 55.5123 198.679 55.4925H195.368V58.8281H195.388ZM199.517 65.44C199.965 65.44 200.354 65.2821 200.705 64.9465C201.055 64.611 201.211 64.2163 201.211 63.7426C201.211 63.2689 201.055 62.8939 200.724 62.5584C200.393 62.2229 200.004 62.0452 199.536 62.0452H195.407V65.44H199.536H199.517Z"
            fill="white" />
          <path
            d="M212.428 69.2273C211.455 69.2273 210.559 69.0496 209.721 68.7141C208.884 68.3786 208.144 67.9049 207.521 67.3128C206.897 66.7207 206.41 66.0299 206.06 65.2404C205.709 64.451 205.515 63.622 205.515 62.7339C205.515 61.8457 205.69 60.9773 206.06 60.1878C206.43 59.3983 206.917 58.7075 207.559 58.1154C208.183 57.5233 208.923 57.0694 209.76 56.7339C210.598 56.3983 211.474 56.2207 212.428 56.2207C213.383 56.2207 214.279 56.3983 215.116 56.7339C215.954 57.0891 216.694 57.5431 217.317 58.1352C217.94 58.7273 218.427 59.4181 218.778 60.2075C219.128 60.997 219.323 61.826 219.323 62.7141C219.323 63.6023 219.148 64.451 218.778 65.2404C218.408 66.0299 217.921 66.7207 217.297 67.2931C216.674 67.8852 215.954 68.3391 215.097 68.6746C214.259 69.0102 213.363 69.1878 212.428 69.1878V69.2273ZM212.428 59.4378C211.922 59.4378 211.455 59.5365 211.046 59.7141C210.637 59.9115 210.286 60.1483 209.994 60.4641C209.702 60.7799 209.488 61.1352 209.312 61.5299C209.137 61.9247 209.059 62.3194 209.059 62.7141C209.059 63.1089 209.137 63.5233 209.273 63.8983C209.41 64.2733 209.643 64.6286 209.936 64.9444C210.228 65.2602 210.578 65.5168 211.007 65.6944C211.435 65.8918 211.903 65.9707 212.428 65.9707C212.954 65.9707 213.422 65.872 213.85 65.6944C214.259 65.497 214.61 65.2602 214.902 64.9444C215.194 64.6286 215.408 64.2733 215.564 63.8983C215.72 63.5036 215.798 63.1089 215.798 62.7141C215.798 62.3194 215.72 61.9247 215.545 61.5299C215.389 61.1352 215.155 60.7799 214.863 60.4641C214.571 60.1483 214.22 59.8918 213.811 59.7141C213.402 59.5168 212.935 59.4378 212.428 59.4378Z"
            fill="white" />
          <path
            d="M227.658 56.2207C228.359 56.2207 229.021 56.3589 229.625 56.6154C230.229 56.8918 230.774 57.247 231.222 57.7207C231.67 58.1944 232.04 58.7273 232.313 59.3391C232.585 59.951 232.702 60.622 232.702 61.3325V68.7536H229.196V62.0233C229.196 61.6681 229.118 61.3523 228.982 61.0365C228.846 60.7207 228.651 60.4444 228.417 60.2075C228.184 59.9707 227.911 59.7931 227.599 59.6549C227.288 59.5168 226.957 59.4575 226.626 59.4575C226.275 59.4575 225.924 59.5365 225.613 59.6747C225.301 59.8128 225.029 60.0102 224.795 60.247C224.561 60.4839 224.366 60.7602 224.23 61.076C224.094 61.3918 224.016 61.7273 224.016 62.1023V68.7733H220.51V56.6944H224.016V58.076C224.503 57.5233 225.048 57.0694 225.632 56.7339C226.236 56.3983 226.898 56.2207 227.638 56.2207H227.658Z"
            fill="white" />
          <path
            d="M247.095 52.1768V68.7557H243.59V67.7886C243.083 68.2229 242.519 68.5584 241.934 68.8347C241.35 69.0913 240.727 69.2294 240.065 69.2294C239.169 69.2294 238.351 69.0518 237.572 68.7163C236.793 68.3807 236.111 67.9071 235.546 67.315C234.962 66.7229 234.514 66.0321 234.183 65.2426C233.852 64.4531 233.677 63.6242 233.677 62.736C233.677 61.8478 233.852 60.9794 234.183 60.1899C234.514 59.4004 234.982 58.7096 235.566 58.1175C236.15 57.5254 236.832 57.0715 237.611 56.736C238.39 56.4004 239.208 56.2228 240.084 56.2228C240.746 56.2228 241.37 56.361 241.973 56.6175C242.577 56.8741 243.122 57.2096 243.629 57.6241V52.1768H247.134H247.095ZM240.415 66.0123C240.863 66.0123 241.292 65.9334 241.701 65.7557C242.11 65.5781 242.441 65.3413 242.733 65.065C243.025 64.7886 243.259 64.4334 243.434 64.0189C243.609 63.6242 243.687 63.19 243.687 62.736C243.687 62.2821 243.609 61.8478 243.434 61.4531C243.259 61.0583 243.025 60.7031 242.733 60.407C242.441 60.111 242.09 59.8741 241.701 59.7162C241.311 59.5386 240.883 59.4597 240.415 59.4597C239.948 59.4597 239.539 59.5386 239.13 59.7162C238.721 59.8939 238.39 60.1307 238.098 60.407C237.806 60.7031 237.572 61.0386 237.416 61.4531C237.241 61.8478 237.163 62.2821 237.163 62.736C237.163 63.19 237.241 63.6242 237.416 64.0189C237.591 64.4136 237.825 64.7689 238.098 65.065C238.37 65.361 238.74 65.5781 239.13 65.7557C239.519 65.9334 239.948 66.0123 240.415 66.0123Z"
            fill="white" />
          <path
            d="M254.476 61.1571C255.061 61.2952 255.645 61.4729 256.249 61.6505C256.852 61.8479 257.398 62.0847 257.904 62.4005C258.41 62.7163 258.8 63.111 259.111 63.565C259.423 64.0387 259.598 64.611 259.598 65.3018C259.598 66.0518 259.423 66.6636 259.053 67.157C258.703 67.6505 258.235 68.0649 257.69 68.361C257.144 68.6768 256.541 68.8939 255.879 69.0123C255.216 69.1307 254.574 69.2097 253.95 69.2097C252.743 69.2097 251.652 68.9334 250.717 68.361C249.783 67.8084 248.984 66.9992 248.322 65.9729L251.36 64.3347C251.672 64.8676 252.081 65.2821 252.587 65.5584C253.093 65.8347 253.6 65.9729 254.087 65.9729C254.807 65.9729 255.314 65.9137 255.645 65.815C255.956 65.6965 256.132 65.5584 256.132 65.361C256.132 65.2031 256.034 65.065 255.82 64.9465C255.606 64.8281 255.372 64.7294 255.099 64.6308C254.827 64.5321 254.554 64.4531 254.301 64.4137C254.028 64.3544 253.853 64.315 253.736 64.315C253.171 64.1965 252.607 64.0584 252.022 63.8808C251.438 63.7031 250.932 63.4465 250.464 63.1505C249.997 62.8347 249.607 62.4597 249.315 62.0058C249.004 61.5518 248.867 60.9992 248.867 60.3281C248.867 59.6571 249.004 59.0452 249.296 58.5321C249.588 58.0189 249.958 57.5847 250.425 57.2492C250.893 56.8939 251.419 56.6373 252.022 56.4597C252.626 56.2821 253.23 56.2031 253.853 56.2031C254.983 56.2031 256.034 56.4794 256.989 57.0123C257.943 57.5452 258.761 58.2755 259.404 59.2229L256.58 61.0189C256.229 60.4663 255.82 60.0715 255.353 59.815C254.885 59.5584 254.418 59.44 253.97 59.44C253.463 59.44 253.055 59.5189 252.762 59.6571C252.47 59.7952 252.314 59.9729 252.314 60.2097C252.314 60.3084 252.392 60.3873 252.529 60.486C252.665 60.5847 252.84 60.6637 253.055 60.7426C253.269 60.8215 253.502 60.9005 253.756 60.9794C254.009 61.0584 254.262 61.1176 254.496 61.1571H254.476Z"
            fill="white" />
        </g>
      </g>
    </g>
  </g>
  <defs>
    <filter id="filter0_b_829_318" x="-70" y="-70" width="460" height="260" filterUnits="userSpaceOnUse"
      color-interpolation-filters="sRGB">
      <feFlood flood-opacity="0" result="BackgroundImageFix" />
      <feGaussianBlur in="BackgroundImageFix" stdDeviation="35" />
      <feComposite in2="SourceAlpha" operator="in" result="effect1_backgroundBlur_829_318" />
      <feBlend mode="normal" in="SourceGraphic" in2="effect1_backgroundBlur_829_318" result="shape" />
    </filter>
    <clipPath id="clip0_829_318">
      <rect width="207" height="80" fill="white" transform="translate(56.5 20)" />
    </clipPath>
  </defs>
</svg>
