<svg width="320" height="120" viewBox="0 0 320 120" fill="none" xmlns="http://www.w3.org/2000/svg">
  <g filter="url(#filter0_b_829_81)">
    <g clip-path="url(#clip0_829_81)">
      <path
        d="M98.4646 48.472L98.4301 48.4886C95.6346 49.8564 93.7535 51.492 93.7535 51.492L93.0501 52.072C93.0301 52.0886 93.0112 52.1075 92.9946 52.1275L91.7546 53.4486C91.5212 53.6908 91.3901 54.0153 91.3901 54.3531C91.3901 54.6908 91.5212 55.0153 91.7546 55.2575L109.775 73.3253L113.003 76.5731C113.065 76.6297 113.143 76.662 113.227 76.6642H119.315C119.437 76.662 119.556 76.6242 119.656 76.5553C119.757 76.4864 119.835 76.3897 119.881 76.2764C119.927 76.1642 119.94 76.0397 119.917 75.9197C119.893 75.7997 119.836 75.6897 119.75 75.602L113.623 69.4453C113.623 69.4453 113.762 69.1731 113.823 69.0564C114.321 68.1197 114.93 66.8775 115.472 65.442C115.477 65.4253 115.493 65.3442 115.42 65.2997C115.338 65.2497 115.263 65.2997 115.263 65.2997C114.078 66.0908 112.76 66.732 111.343 67.1808L96.9057 52.402C97.2379 51.0864 97.8357 49.8064 98.6324 48.6275C98.639 48.6131 98.6757 48.532 98.6046 48.4808C98.5557 48.4464 98.499 48.4586 98.4646 48.472ZM113.449 50.0542C108.779 45.3631 103.188 46.3553 99.159 48.1486C99.1324 48.1575 99.0901 48.1642 99.059 48.1364C99.0179 48.1008 99.0379 48.0608 99.0468 48.0475C101.471 44.832 105.391 42.502 109.365 42.502C115.615 42.502 121.399 48.3108 121.399 54.5875C121.399 58.5853 119.256 62.3553 115.889 64.8586C115.889 64.8586 115.809 64.9153 115.751 64.8586C115.712 64.8208 115.713 64.7831 115.719 64.762L115.725 64.7464C117.231 60.3942 117.939 54.5586 113.449 50.0542ZM98.059 73.3308C98.059 75.172 96.5657 76.6642 94.7246 76.6642C92.8835 76.6642 91.3901 75.172 91.3901 73.3308C91.3901 71.4908 92.8835 69.9986 94.7246 69.9986C96.5657 69.9986 98.059 71.4908 98.059 73.3308Z"
        fill="white" />
      <path
        d="M137.861 58.4846V73.258H134.794V56.1035H137.63L137.861 58.4846ZM145.906 62.1724V62.4124C145.906 63.3135 145.798 64.1502 145.581 64.9202C145.373 65.6846 145.064 66.3524 144.656 66.9246C144.247 67.4902 143.738 67.9324 143.128 68.2535C142.526 68.5658 141.831 68.7224 141.044 68.7224C140.272 68.7224 139.601 68.578 139.03 68.288C138.459 67.9902 137.977 67.5702 137.583 67.028C137.19 66.4858 136.873 65.8558 136.634 65.138C136.402 64.4135 136.229 63.6235 136.113 62.768V62.0002C136.229 61.0924 136.402 60.268 136.634 59.5269C136.873 58.7791 137.19 58.1335 137.583 57.5913C137.977 57.0424 138.456 56.618 139.019 56.3202C139.59 56.0224 140.257 55.8735 141.021 55.8735C141.816 55.8735 142.514 56.0224 143.116 56.3202C143.726 56.618 144.239 57.0458 144.656 57.6035C145.072 58.1602 145.384 58.8246 145.593 59.5958C145.801 60.3669 145.906 61.2258 145.906 62.1724ZM142.838 62.4124V62.1724C142.838 61.6224 142.788 61.1146 142.688 60.6491C142.588 60.1758 142.433 59.7635 142.224 59.4124C142.017 59.0535 141.747 58.7746 141.414 58.5769C141.083 58.378 140.681 58.2791 140.211 58.2791C139.74 58.2791 139.336 58.3558 138.996 58.508C138.656 58.6602 138.378 58.878 138.162 59.1602C137.946 59.4435 137.777 59.7791 137.653 60.168C137.537 60.5502 137.46 60.9735 137.421 61.4391V63.3402C137.491 63.9058 137.626 64.4135 137.827 64.8635C138.027 65.3135 138.32 65.6724 138.707 65.9402C139.1 66.2069 139.609 66.3413 140.234 66.3413C140.704 66.3413 141.106 66.238 141.438 66.0313C141.77 65.8258 142.04 65.5435 142.248 65.1846C142.457 64.818 142.607 64.398 142.699 63.9246C142.792 63.4513 142.838 62.9469 142.838 62.4124Z"
        fill="white" />
      <path
        d="M151.196 58.6335V68.4935H148.139V56.1035H151.033L151.196 58.6335ZM155.003 56.0224L154.957 58.8402C154.787 58.8091 154.594 58.7869 154.378 58.7713C154.17 58.7558 153.973 58.748 153.788 58.748C153.317 58.748 152.904 58.8135 152.549 58.9435C152.194 59.0658 151.898 59.2446 151.658 59.4813C151.427 59.718 151.249 60.008 151.126 60.3513C151.002 60.688 150.932 61.0691 150.918 61.4969L150.258 61.4169C150.258 60.6302 150.339 59.9013 150.501 59.2291C150.662 58.558 150.898 57.9691 151.207 57.4658C151.516 56.9613 151.901 56.5724 152.364 56.298C152.834 56.0158 153.374 55.8735 153.984 55.8735C154.154 55.8735 154.336 55.8891 154.529 55.9202C154.729 55.9424 154.888 55.9769 155.003 56.0224Z"
        fill="white" />
      <path
        d="M155.813 62.4246V62.1835C155.813 61.2758 155.944 60.4391 156.207 59.6758C156.469 58.9046 156.851 58.2369 157.353 57.6724C157.854 57.1069 158.468 56.668 159.193 56.3546C159.919 56.0346 160.744 55.8735 161.67 55.8735C162.611 55.8735 163.444 56.0346 164.17 56.3546C164.903 56.668 165.521 57.1069 166.022 57.6724C166.523 58.2369 166.905 58.9046 167.168 59.6758C167.431 60.4391 167.561 61.2758 167.561 62.1835V62.4246C167.561 63.3246 167.431 64.1613 167.168 64.9324C166.905 65.6958 166.523 66.3635 166.022 66.9358C165.521 67.5013 164.907 67.9402 164.182 68.2535C163.457 68.5658 162.627 68.7224 161.693 68.7224C160.768 68.7224 159.938 68.5658 159.204 68.2535C158.472 67.9402 157.854 67.5013 157.353 66.9358C156.851 66.3635 156.469 65.6958 156.207 64.9324C155.944 64.1613 155.813 63.3246 155.813 62.4246ZM158.869 62.1835V62.4246C158.869 62.9669 158.923 63.4746 159.031 63.948C159.139 64.4213 159.305 64.8369 159.529 65.1958C159.752 65.5546 160.042 65.8369 160.397 66.0435C160.76 66.2413 161.192 66.3413 161.693 66.3413C162.187 66.3413 162.611 66.2413 162.967 66.0435C163.321 65.8369 163.611 65.5546 163.834 65.1958C164.065 64.8369 164.235 64.4213 164.343 63.948C164.452 63.4746 164.505 62.9669 164.505 62.4246V62.1835C164.505 61.6491 164.452 61.1491 164.343 60.6835C164.235 60.2102 164.065 59.7946 163.834 59.4358C163.611 59.0691 163.318 58.7824 162.954 58.5769C162.6 58.3624 162.172 58.2558 161.67 58.2558C161.177 58.2558 160.752 58.3624 160.397 58.5769C160.042 58.7824 159.752 59.0691 159.529 59.4358C159.305 59.7946 159.139 60.2102 159.031 60.6835C158.923 61.1491 158.869 61.6491 158.869 62.1835Z"
        fill="white" />
      <path
        d="M171.925 56.1025L174.159 60.0425L176.427 56.1025H179.75L176.069 62.1725L179.9 68.4937H176.579L174.182 64.3603L173.58 65.3937L172.979 66.427L171.774 68.4937H168.453L172.272 62.1725L168.615 56.1025H171.925Z"
        fill="white" />
      <path d="M184.761 56.1025V68.4937H181.694V56.1025H184.761Z" fill="white" />
      <path
        d="M190.723 58.6458V68.4935H187.667V56.1035H190.549L190.723 58.6458ZM190.271 61.8513H189.334C189.334 60.9891 189.438 60.1946 189.647 59.4702C189.863 58.7446 190.179 58.1146 190.596 57.5802C191.013 57.038 191.526 56.618 192.135 56.3202C192.753 56.0224 193.466 55.8735 194.276 55.8735C194.839 55.8735 195.357 55.958 195.827 56.1258C196.298 56.2869 196.704 56.5424 197.043 56.8935C197.39 57.2369 197.656 57.6869 197.841 58.2446C198.027 58.7946 198.119 59.4546 198.119 60.2258V68.4935H195.064V60.5346C195.064 59.9546 194.978 59.5002 194.809 59.1724C194.647 58.8435 194.411 58.6146 194.103 58.4846C193.794 58.348 193.424 58.2791 192.991 58.2791C192.514 58.2791 192.1 58.3746 191.754 58.5646C191.414 58.748 191.131 59.0046 190.908 59.3324C190.693 59.6602 190.53 60.0391 190.423 60.4658C190.321 60.8935 190.271 61.3558 190.271 61.8513ZM197.888 61.2902L196.626 61.5191C196.634 60.7413 196.741 60.0124 196.95 59.3324C197.158 58.6458 197.464 58.0458 197.865 57.5346C198.274 57.0158 198.779 56.6113 199.38 56.3202C199.99 56.0224 200.693 55.8735 201.487 55.8735C202.105 55.8735 202.66 55.9613 203.154 56.138C203.656 56.3058 204.084 56.5758 204.439 56.9502C204.794 57.3169 205.064 57.7946 205.249 58.3824C205.443 58.9702 205.538 59.6869 205.538 60.5346V68.4935H202.459V60.5235C202.459 59.9202 202.375 59.458 202.205 59.138C202.043 58.8169 201.808 58.5958 201.499 58.4735C201.19 58.3435 200.828 58.2791 200.411 58.2791C199.986 58.2791 199.616 58.3591 199.299 58.5191C198.991 58.6724 198.728 58.8858 198.513 59.1602C198.305 59.4358 198.146 59.7558 198.038 60.1224C197.938 60.4813 197.888 60.8713 197.888 61.2902Z"
        fill="white" />
      <path d="M211.522 56.1025V68.4937H208.454V56.1025H211.522Z" fill="white" />
      <path
        d="M221.171 56.1036V58.2792H214.45L216.108 56.1036H217.516H221.171ZM214.45 53.9092H217.516V56.1036V64.9203C217.516 65.287 217.566 65.5703 217.666 65.7681C217.767 65.967 217.917 66.1003 218.118 66.1692C218.318 66.2381 218.558 66.2725 218.836 66.2725C219.036 66.2725 219.222 66.2603 219.392 66.2381C219.561 66.2147 219.704 66.1925 219.82 66.1692L219.831 68.437C219.576 68.5203 219.287 68.5892 218.963 68.6425C218.646 68.6958 218.288 68.7225 217.886 68.7225C217.2 68.7225 216.598 68.6081 216.081 68.3792C215.564 68.1425 215.163 67.7647 214.877 67.2458C214.592 66.7192 214.45 66.0236 214.45 65.1614V53.9092Z"
        fill="white" />
      <path
        d="M224.477 67.1191L227.834 56.1035H231.109L226.086 70.3713C225.969 70.6768 225.819 71.0091 225.634 71.368C225.457 71.7268 225.217 72.0668 224.916 72.3868C224.616 72.7157 224.237 72.9824 223.782 73.1891C223.335 73.3946 222.79 73.498 222.15 73.498C221.872 73.498 221.625 73.4791 221.409 73.4402C221.194 73.4024 220.966 73.3524 220.726 73.2913V71.0246C220.804 71.0324 220.892 71.0357 220.992 71.0357C221.1 71.0435 221.194 71.0468 221.27 71.0468C221.718 71.0468 222.088 70.9935 222.381 70.8868C222.675 70.788 222.91 70.6235 223.088 70.3946C223.272 70.1735 223.427 69.8835 223.55 69.5246L224.477 67.1191ZM222.821 56.1035L225.657 65.2302L226.155 68.4246L224.048 68.8024L219.522 56.1035H222.821Z"
        fill="white" />
    </g>
  </g>
  <defs>
    <filter id="filter0_b_829_81" x="-70" y="-70" width="460" height="260" filterUnits="userSpaceOnUse"
      color-interpolation-filters="sRGB">
      <feFlood flood-opacity="0" result="BackgroundImageFix" />
      <feGaussianBlur in="BackgroundImageFix" stdDeviation="35" />
      <feComposite in2="SourceAlpha" operator="in" result="effect1_backgroundBlur_829_81" />
      <feBlend mode="normal" in="SourceGraphic" in2="effect1_backgroundBlur_829_81" result="shape" />
    </filter>
    <clipPath id="clip0_829_81">
      <rect width="142.222" height="40" fill="white" transform="translate(88.8889 40)" />
    </clipPath>
  </defs>
</svg>
