<svg width="320" height="120" viewBox="0 0 320 120" fill="none" xmlns="http://www.w3.org/2000/svg">
  <g filter="url(#filter0_b_829_398)">
    <g clip-path="url(#clip0_829_398)">
      <path d="M84.5522 77.9996H97.6431L84.5522 64.9087V77.9996Z" fill="white" />
      <path d="M97.6431 42L90.0067 42L97.6431 49.6364V42Z" fill="white" />
      <path fill-rule="evenodd" clip-rule="evenodd"
        d="M85.0976 64.9089C84.9147 64.9089 84.7328 64.9041 84.5522 64.8949V56.7002L93.4628 48.4262C94.7193 50.141 95.4613 52.2565 95.4613 54.5453C95.4613 60.269 90.8213 64.9089 85.0976 64.9089ZM91.1355 46.1212L84.5522 52.2341V44.1957C84.7328 44.1864 84.9147 44.1816 85.0976 44.1816C87.3503 44.1816 89.4353 44.9004 91.1355 46.1212Z"
        fill="white" />
      <path fill-rule="evenodd" clip-rule="evenodd"
        d="M83.4621 44.1816H73.6439V53.8676L78.0494 58.273L83.4621 53.247V44.1816ZM83.4621 57.7131L77.9653 62.8173L73.6439 58.4959V77.9999H83.4621V57.7131Z"
        fill="white" />
      <path fill-rule="evenodd" clip-rule="evenodd"
        d="M72.5526 44.1816H61.6436V58.2316L69.826 50.0492L72.5526 52.7758V44.1816ZM72.5526 57.4042L69.826 54.6775L61.6436 62.86V77.9999H72.5526V57.4042Z"
        fill="white" />
      <path
        d="M110.618 68.5715V50.5716H118.358C120.569 50.5716 122.275 51.1715 123.475 52.3715C124.401 53.2973 124.863 54.4801 124.863 55.9201V55.9715C124.863 57.4115 124.418 58.5773 123.526 59.4687C122.635 60.3602 121.452 60.943 119.978 61.2172L125.506 68.5715H123.012L117.792 61.5772H117.741H112.649V68.5715H110.618ZM112.649 59.7515H118.178C119.549 59.7515 120.663 59.4172 121.521 58.7487C122.378 58.0801 122.806 57.1801 122.806 56.0487V55.9972C122.806 54.883 122.395 54.0173 121.572 53.4001C120.766 52.7658 119.643 52.4487 118.203 52.4487H112.649V59.7515ZM129.798 62.7344C129.935 64.0887 130.441 65.1687 131.315 65.9744C132.206 66.763 133.261 67.1572 134.478 67.1572C136.072 67.1572 137.469 66.5316 138.669 65.2801L139.903 66.3858C138.412 68.0487 136.586 68.8801 134.426 68.8801C132.558 68.8801 130.981 68.2372 129.695 66.9515C128.426 65.6487 127.792 63.9773 127.792 61.9372C127.792 60.0002 128.401 58.3629 129.618 57.0258C130.835 55.6716 132.352 54.9944 134.169 54.9944C136.072 54.9944 137.581 55.6629 138.695 57.0001C139.809 58.3372 140.366 60.0173 140.366 62.0401C140.366 62.2972 140.358 62.5287 140.341 62.7344H129.798ZM129.798 61.1401H138.361C138.241 59.8544 137.812 58.7916 137.075 57.9515C136.355 57.0945 135.369 56.6658 134.118 56.6658C132.986 56.6658 132.018 57.0858 131.212 57.9258C130.406 58.7659 129.935 59.8373 129.798 61.1401ZM144.578 68.5715V57.0258H142.752V55.3029H144.578V54.1458C144.578 52.6373 144.964 51.4973 145.735 50.7258C146.421 50.0401 147.373 49.6973 148.59 49.6973C149.43 49.6973 150.158 49.8087 150.775 50.0316V51.7544C149.987 51.5315 149.344 51.4201 148.847 51.4201C147.304 51.4201 146.532 52.363 146.532 54.2487V55.3287H150.75V57.0258H146.558V68.5715H144.578ZM151.888 68.5715V65.8715H154.254V68.5715H151.888Z"
        fill="white" />
      <path
        d="M166.877 68.5715V57.0258H165.052V55.3029H166.877V54.1458C166.877 52.6373 167.263 51.4973 168.035 50.7258C168.72 50.0401 169.672 49.6973 170.889 49.6973C171.729 49.6973 172.457 49.8087 173.075 50.0316V51.7544C172.286 51.5315 171.643 51.4201 171.146 51.4201C169.603 51.4201 168.832 52.363 168.832 54.2487V55.3287H173.049V57.0258H168.857V68.5715H166.877ZM175.625 52.3715V50.1858H177.888V52.3715H175.625ZM175.754 68.5715V55.2772H177.734V68.5715H175.754ZM182.329 68.5715V55.2772H184.309V57.5915C185.354 55.8602 186.872 54.9944 188.86 54.9944C190.437 54.9944 191.681 55.4829 192.588 56.4601C193.497 57.4201 193.951 58.7058 193.951 60.3172V68.5715H191.971V60.8058C191.971 59.5544 191.646 58.5773 190.994 57.8744C190.36 57.1544 189.46 56.7944 188.294 56.7944C187.146 56.7944 186.194 57.1801 185.44 57.9515C184.686 58.7229 184.309 59.7258 184.309 60.9601V68.5715H182.329ZM202.134 68.8544C200.796 68.8544 199.632 68.4859 198.636 67.7487C197.659 67.0116 197.171 66.0001 197.171 64.7144V64.6629C197.171 63.2744 197.685 62.203 198.714 61.4487C199.742 60.6945 201.123 60.3172 202.854 60.3172C204.225 60.3172 205.579 60.5058 206.916 60.8829V60.4715C206.916 59.3059 206.574 58.4144 205.888 57.7972C205.203 57.1801 204.234 56.8715 202.982 56.8715C201.68 56.8715 200.334 57.1887 198.945 57.8229L198.354 56.2029C199.999 55.4487 201.612 55.0715 203.188 55.0715C205.074 55.0715 206.505 55.5601 207.482 56.5372C208.408 57.4629 208.871 58.7659 208.871 60.4458V68.5715H206.916V66.5915C205.734 68.1002 204.139 68.8544 202.134 68.8544ZM202.519 67.2601C203.754 67.2601 204.8 66.9258 205.656 66.2572C206.514 65.5887 206.942 64.7316 206.942 63.6858V62.4515C205.64 62.0744 204.345 61.8858 203.059 61.8858C201.843 61.8858 200.892 62.1345 200.205 62.6315C199.52 63.1116 199.176 63.7545 199.176 64.5601V64.6115C199.176 65.4173 199.494 66.0601 200.128 66.5401C200.78 67.0202 201.577 67.2601 202.519 67.2601ZM213.065 68.5715V55.2772H215.045V57.5915C216.091 55.8602 217.608 54.9944 219.596 54.9944C221.174 54.9944 222.417 55.4829 223.325 56.4601C224.234 57.4201 224.688 58.7058 224.688 60.3172V68.5715H222.708V60.8058C222.708 59.5544 222.382 58.5773 221.73 57.8744C221.097 57.1544 220.197 56.7944 219.03 56.7944C217.882 56.7944 216.931 57.1801 216.176 57.9515C215.423 58.7229 215.045 59.7258 215.045 60.9601V68.5715H213.065ZM234.903 68.8801C232.982 68.8801 231.362 68.203 230.043 66.8487C228.739 65.4944 228.088 63.8744 228.088 61.9887V61.9372C228.088 60.0344 228.739 58.4059 230.043 57.0515C231.362 55.6802 232.982 54.9944 234.903 54.9944C236.96 54.9944 238.734 55.783 240.225 57.3601L238.914 58.7487C237.645 57.4115 236.299 56.7429 234.877 56.7429C233.54 56.7429 232.408 57.2401 231.483 58.2344C230.574 59.2287 230.12 60.4458 230.12 61.8858V61.9372C230.12 63.3772 230.583 64.603 231.508 65.6144C232.451 66.6087 233.617 67.1058 235.005 67.1058C236.479 67.1058 237.834 66.4458 239.068 65.1258L240.328 66.3087C238.785 68.023 236.976 68.8801 234.903 68.8801ZM244.408 62.7344C244.544 64.0887 245.051 65.1687 245.925 65.9744C246.816 66.763 247.87 67.1572 249.088 67.1572C250.682 67.1572 252.078 66.5316 253.279 65.2801L254.514 66.3858C253.022 68.0487 251.196 68.8801 249.036 68.8801C247.167 68.8801 245.591 68.2372 244.305 66.9515C243.036 65.6487 242.402 63.9773 242.402 61.9372C242.402 60.0002 243.01 58.3629 244.228 57.0258C245.444 55.6716 246.961 54.9944 248.779 54.9944C250.682 54.9944 252.19 55.6629 253.305 57.0001C254.418 58.3372 254.976 60.0173 254.976 62.0401C254.976 62.2972 254.967 62.5287 254.951 62.7344H244.408ZM244.408 61.1401H252.971C252.85 59.8544 252.422 58.7916 251.685 57.9515C250.965 57.0945 249.979 56.6658 248.728 56.6658C247.596 56.6658 246.627 57.0858 245.822 57.9258C245.016 58.7659 244.544 59.8373 244.408 61.1401Z"
        fill="white" />
    </g>
  </g>
  <defs>
    <filter id="filter0_b_829_398" x="-70" y="-70" width="460" height="260" filterUnits="userSpaceOnUse"
      color-interpolation-filters="sRGB">
      <feFlood flood-opacity="0" result="BackgroundImageFix" />
      <feGaussianBlur in="BackgroundImageFix" stdDeviation="35" />
      <feComposite in2="SourceAlpha" operator="in" result="effect1_backgroundBlur_829_398" />
      <feBlend mode="normal" in="SourceGraphic" in2="effect1_backgroundBlur_829_398" result="shape" />
    </filter>
    <clipPath id="clip0_829_398">
      <rect width="196.714" height="36" fill="white" transform="translate(61.6428 42)" />
    </clipPath>
  </defs>
</svg>
