<svg width="320" height="120" viewBox="0 0 320 120" fill="none" xmlns="http://www.w3.org/2000/svg">
  <g filter="url(#filter0_b_829_831)">
    <path
      d="M167.018 63.3302C167.018 63.5339 167.004 63.8256 166.972 64.2052H157.138C157.31 65.1358 157.759 65.8673 158.49 66.4136C159.222 66.9598 160.12 67.2284 161.203 67.2284C162.578 67.2284 163.712 66.77 164.606 65.858L166.18 67.6774C165.615 68.3534 164.907 68.8673 164.046 69.2098C163.184 69.5524 162.217 69.7284 161.134 69.7284C159.759 69.7284 158.546 69.4552 157.495 68.9043C156.444 68.3534 155.638 67.5849 155.064 66.6034C154.495 65.6219 154.208 64.5061 154.208 63.2654C154.208 62.0386 154.485 60.9321 155.041 59.9506C155.597 58.9691 156.365 58.2006 157.351 57.6497C158.337 57.0987 159.448 56.8256 160.685 56.8256C161.907 56.8256 162.995 57.0987 163.958 57.6404C164.921 58.1821 165.671 58.946 166.212 59.9274C166.749 60.8997 167.018 62.0386 167.018 63.3302ZM160.68 59.1728C159.74 59.1728 158.948 59.4506 158.296 60.0108C157.643 60.571 157.249 61.3117 157.11 62.2423H164.222C164.097 61.3302 163.712 60.5895 163.073 60.0247C162.434 59.4552 161.634 59.1728 160.68 59.1728ZM176.397 56.8163C177.976 56.8163 179.245 57.2793 180.198 58.2098C181.152 59.1404 181.629 60.5154 181.629 62.3395V69.5617H178.694V62.7191C178.694 61.6173 178.434 60.7886 177.921 60.2284C177.407 59.6682 176.671 59.3904 175.712 59.3904C174.634 59.3904 173.782 59.7191 173.152 60.3719C172.527 61.0247 172.212 61.9645 172.212 63.1913V69.5617H169.277V56.9599H172.069V58.5895C172.555 58.0061 173.166 57.5663 173.897 57.27C174.643 56.9645 175.471 56.8163 176.397 56.8163ZM197.203 52.0478V69.5571H194.388V67.9274C193.902 68.5247 193.305 68.9737 192.592 69.2747C191.879 69.5756 191.092 69.7237 190.231 69.7237C189.027 69.7237 187.944 69.4552 186.981 68.9228C186.018 68.3858 185.263 67.6265 184.717 66.645C184.171 65.6636 183.897 64.5339 183.897 63.2561C183.897 61.9784 184.171 60.858 184.717 59.8811C185.263 58.9043 186.018 58.1497 186.981 57.6173C187.944 57.0802 189.027 56.8163 190.231 56.8163C191.059 56.8163 191.819 56.9599 192.508 57.2423C193.198 57.5247 193.782 57.9506 194.268 58.5154V52.0478H197.203ZM190.587 67.2006C191.291 67.2006 191.925 67.0386 192.49 66.7145C193.055 66.3904 193.499 65.9321 193.828 65.3348C194.157 64.7376 194.319 64.0432 194.319 63.2561C194.319 62.4691 194.157 61.7793 193.828 61.1774C193.499 60.5802 193.055 60.1173 192.49 59.7978C191.925 59.4784 191.291 59.3117 190.587 59.3117C189.883 59.3117 189.249 59.4737 188.684 59.7978C188.12 60.1219 187.675 60.5802 187.346 61.1774C187.018 61.7747 186.856 62.4691 186.856 63.2561C186.856 64.0432 187.018 64.733 187.346 65.3348C187.675 65.9367 188.12 66.395 188.684 66.7145C189.249 67.0339 189.883 67.2006 190.587 67.2006ZM212.286 63.3302C212.286 63.5339 212.272 63.8256 212.24 64.2052H202.407C202.578 65.1358 203.027 65.8673 203.758 66.4136C204.485 66.9552 205.388 67.2284 206.471 67.2284C207.846 67.2284 208.981 66.77 209.874 65.858L211.448 67.6774C210.883 68.3534 210.175 68.8673 209.314 69.2098C208.453 69.5524 207.485 69.7284 206.402 69.7284C205.027 69.7284 203.814 69.4552 202.763 68.9043C201.712 68.3534 200.907 67.5849 200.332 66.6034C199.763 65.6219 199.476 64.5061 199.476 63.2654C199.476 62.0386 199.754 60.9321 200.309 59.9506C200.865 58.9691 201.633 58.2006 202.619 57.6497C203.606 57.0987 204.717 56.8256 205.953 56.8256C207.175 56.8256 208.263 57.0987 209.226 57.6404C210.189 58.1821 210.939 58.946 211.481 59.9274C212.018 60.8997 212.286 62.0386 212.286 63.3302ZM205.948 59.1728C205.008 59.1728 204.217 59.4506 203.564 60.0108C202.916 60.571 202.518 61.3117 202.379 62.2423H209.49C209.365 61.3302 208.981 60.5895 208.342 60.0247C207.703 59.4599 206.902 59.1728 205.948 59.1728ZM217.346 58.7978C218.193 57.4784 219.68 56.8163 221.805 56.8163V59.6265C221.555 59.5802 221.328 59.5571 221.124 59.5571C219.981 59.5571 219.092 59.8904 218.448 60.5617C217.805 61.2284 217.485 62.196 217.485 63.4506V69.5617H214.55V56.9599H217.342V58.7978H217.346ZM144.453 69.7237C143.013 69.7237 141.62 69.5154 140.273 69.1034C138.93 68.6913 137.865 68.1404 137.083 67.4552L138.286 64.7284C139.05 65.3395 139.99 65.8395 141.101 66.2284C142.212 66.6173 143.333 66.8071 144.453 66.8071C145.842 66.8071 146.879 66.5802 147.564 66.1311C148.249 65.6821 148.592 65.0848 148.592 64.3487C148.592 63.8071 148.402 63.3626 148.018 63.0108C147.634 62.6589 147.152 62.3858 146.564 62.1867C145.976 61.9876 145.175 61.7654 144.161 61.5108C142.736 61.1682 141.583 60.8256 140.703 60.483C139.823 60.1404 139.064 59.6034 138.435 58.8765C137.805 58.145 137.486 57.1636 137.486 55.9182C137.486 54.8719 137.768 53.9228 138.328 53.071C138.888 52.2145 139.736 51.5339 140.865 51.0339C141.995 50.5293 143.379 50.2793 145.018 50.2793C146.157 50.2793 147.277 50.4228 148.384 50.7099C149.49 50.9969 150.439 51.4136 151.24 51.9506L150.148 54.6774C149.328 54.1913 148.476 53.821 147.583 53.571C146.694 53.321 145.828 53.1913 144.995 53.1913C143.624 53.1913 142.606 53.4274 141.939 53.895C141.273 54.3626 140.939 54.983 140.939 55.7608C140.939 56.3024 141.129 56.7423 141.513 57.0848C141.898 57.4274 142.379 57.696 142.967 57.895C143.555 58.0941 144.356 58.3163 145.37 58.571C146.759 58.895 147.898 59.233 148.786 59.5848C149.675 59.9367 150.439 60.4737 151.069 61.1913C151.698 61.9136 152.018 62.8858 152.018 64.108C152.018 65.1543 151.735 66.0987 151.175 66.9413C150.615 67.7886 149.763 68.4645 148.624 68.9691C147.476 69.4737 146.087 69.7237 144.453 69.7237Z"
      fill="white" />
    <path fill-rule="evenodd" clip-rule="evenodd"
      d="M119.966 55.713C120.712 55.9861 121.392 56.338 121.999 56.7731C122.804 57.3519 123.476 58.0787 123.976 58.9444C124.23 59.3889 124.434 59.8565 124.582 60.338C124.73 60.8241 124.828 61.3287 124.869 61.8426C125.179 65.4676 122.943 69.6806 118.962 72.8102L118.781 72.9491C118.091 73.4815 117.346 73.9815 116.554 74.4398L98.3369 85C97.8045 81.4491 98.7906 77.8009 101.045 74.9907C102.022 73.7732 103.23 72.713 104.661 71.8889L115.304 65.7176C116.754 64.875 117.679 63.4722 117.953 61.9444C118.17 60.7269 117.98 59.4352 117.318 58.287C116.786 57.3611 116.022 56.6574 115.142 56.1944C114.142 55.6713 112.99 55.4722 111.855 55.6343C111.92 55.6019 111.985 55.5741 112.05 55.5463C113.017 55.3056 113.971 55.1528 114.897 55.088C116.735 54.9537 118.476 55.1667 119.966 55.713ZM125.828 35C126.36 38.5509 125.374 42.1991 123.119 45.0093C122.142 46.2269 120.934 47.287 119.503 48.1111L108.86 54.2824C107.411 55.125 106.485 56.5278 106.212 58.0556C105.994 59.2731 106.184 60.5648 106.846 61.713C107.379 62.6389 108.142 63.3426 109.022 63.8056C110.022 64.3287 111.175 64.5278 112.309 64.3657C112.244 64.3981 112.179 64.4259 112.115 64.4537C111.147 64.6944 110.193 64.8472 109.267 64.912C107.42 65.0417 105.684 64.8333 104.189 64.287C103.443 64.0139 102.763 63.662 102.156 63.2269C101.351 62.6481 100.68 61.9213 100.18 61.0556C99.9249 60.6111 99.7212 60.1435 99.573 59.662C99.4249 59.1759 99.3277 58.6713 99.286 58.1574C98.9758 54.5324 101.212 50.3194 105.193 47.1898L105.374 47.0509C106.064 46.5185 106.809 46.0185 107.601 45.5602L125.828 35Z"
      fill="white" />
  </g>
  <defs>
    <filter id="filter0_b_829_831" x="-70" y="-70" width="460" height="260" filterUnits="userSpaceOnUse"
      color-interpolation-filters="sRGB">
      <feFlood flood-opacity="0" result="BackgroundImageFix" />
      <feGaussianBlur in="BackgroundImageFix" stdDeviation="35" />
      <feComposite in2="SourceAlpha" operator="in" result="effect1_backgroundBlur_829_831" />
      <feBlend mode="normal" in="SourceGraphic" in2="effect1_backgroundBlur_829_831" result="shape" />
    </filter>
  </defs>
</svg>
