<svg width="26" height="26" viewBox="0 0 26 26" fill="none" xmlns="http://www.w3.org/2000/svg">
  <path
    d="M13 26C20.1797 26 26 20.1797 26 13C26 5.8203 20.1797 0 13 0C5.8203 0 0 5.8203 0 13C0 20.1797 5.8203 26 13 26Z"
    fill="white" />
  <path
    d="M20.9548 7.75748C20.9592 7.45957 20.8875 7.16544 20.7464 6.90302C20.6053 6.6406 20.3995 6.41856 20.1486 6.25795C19.8892 6.10234 19.5925 6.02014 19.29 6.02014C18.9875 6.02014 18.6908 6.10234 18.4314 6.25795L14.9003 8.22506C14.8686 8.24454 14.8425 8.2718 14.8243 8.30426C14.8062 8.33672 14.7966 8.37331 14.7966 8.41049C14.7966 8.44768 14.8062 8.48424 14.8243 8.5167C14.8425 8.54916 14.8686 8.57642 14.9003 8.5959L20.6162 11.8207C20.6483 11.8392 20.6848 11.8489 20.722 11.8488C20.7591 11.8486 20.7955 11.8386 20.8275 11.8197C20.8595 11.8008 20.8859 11.7738 20.904 11.7414C20.9221 11.709 20.9313 11.6724 20.9306 11.6353L20.9548 7.75748Z"
    fill="url(#paint0_linear_172_204)" />
  <path
    d="M6.03224 18.2541C6.02486 18.5536 6.09525 18.8499 6.23655 19.1142C6.37784 19.3784 6.58521 19.6015 6.83843 19.7616C7.09592 19.9142 7.38968 19.9947 7.68896 19.9947C7.98823 19.9947 8.28201 19.9142 8.53949 19.7616L12.0303 17.7704C12.0641 17.7526 12.0923 17.7259 12.112 17.6932C12.1317 17.6605 12.1422 17.6231 12.1422 17.5849C12.1422 17.5468 12.1317 17.5093 12.112 17.4767C12.0923 17.444 12.0641 17.4173 12.0303 17.3995L6.32247 14.1748C6.28972 14.1567 6.25289 14.1475 6.21552 14.1478C6.17815 14.1482 6.1415 14.1582 6.1091 14.1768C6.0767 14.1954 6.04964 14.2221 6.03053 14.2542C6.01142 14.2863 6.00091 14.3228 6 14.3602L6.03224 18.2541Z"
    fill="url(#paint1_linear_172_204)" />
  <path
    d="M20.9549 18.3025C20.9557 18.5993 20.8784 18.891 20.7309 19.1485C20.5834 19.4061 20.3708 19.6203 20.1144 19.7697C19.858 19.9192 19.5668 19.9986 19.27 20C18.9732 20.0014 18.6813 19.9248 18.4234 19.7778L6.48376 12.9816C6.34046 12.9018 6.22138 12.7848 6.13908 12.6429C6.05677 12.501 6.01431 12.3394 6.01617 12.1754V7.70107C6.01829 7.25058 6.19819 6.81912 6.51674 6.50057C6.8353 6.18202 7.26674 6.00212 7.71723 6C8.00032 6.00857 8.27705 6.08605 8.52342 6.22573L20.4954 13.0622C20.636 13.1444 20.7526 13.2622 20.8332 13.4037C20.9139 13.5452 20.9559 13.7055 20.9549 13.8684V18.3025Z"
    fill="url(#paint2_linear_172_204)" />
  <defs>
    <linearGradient id="paint0_linear_172_204" x1="17.6494" y1="7.16895" x2="19.3182" y2="12.6591"
      gradientUnits="userSpaceOnUse">
      <stop stop-color="#1BB3CC" />
      <stop offset="0.99" stop-color="#A626CC" />
    </linearGradient>
    <linearGradient id="paint1_linear_172_204" x1="6.4031" y1="14.465" x2="9.07108" y2="19.9947"
      gradientUnits="userSpaceOnUse">
      <stop stop-color="#1CB1CC" />
      <stop offset="1" stop-color="#8B41CC" />
    </linearGradient>
    <linearGradient id="paint2_linear_172_204" x1="6.80626" y1="6.80619" x2="20.1084" y2="20.5114"
      gradientUnits="userSpaceOnUse">
      <stop stop-color="#1BB3CC" />
      <stop offset="1" stop-color="#824ACC" />
    </linearGradient>
  </defs>
</svg>
