<svg width="30" height="30" viewBox="0 0 30 30" fill="none" xmlns="http://www.w3.org/2000/svg">
  <rect x="1" y="1" width="28" height="28" rx="14" fill="black" />
  <rect x="0.5" y="0.5" width="29" height="29" rx="14.5" stroke="white" stroke-opacity="0.03" />
  <path
    d="M19.738 9C19.2917 9 18.8781 9.23143 18.6437 9.60904L16.1271 13.3323C16.0456 13.4541 16.0782 13.6205 16.2025 13.7017C16.3023 13.7687 16.4348 13.7606 16.5245 13.6815L19.0024 11.5397C19.0432 11.5031 19.1063 11.5072 19.145 11.5478C19.1613 11.5661 19.1715 11.5904 19.1715 11.6148V18.3182C19.1715 18.373 19.1267 18.4177 19.0717 18.4177C19.0411 18.4177 19.0146 18.4055 18.9942 18.3811L11.5033 9.45272C11.2588 9.16647 10.9001 9 10.5232 9H10.2623C9.55317 9 8.97852 9.57249 8.97852 10.279V19.7211C8.97852 20.4275 9.55317 21 10.2623 21C10.7086 21 11.1223 20.7686 11.3566 20.391L13.8733 16.6678C13.9548 16.5459 13.9222 16.3795 13.7999 16.2983C13.7001 16.2313 13.5676 16.2394 13.4779 16.3186L11 18.4603C10.9592 18.4969 10.8961 18.4928 10.8574 18.4522C10.8411 18.4339 10.8309 18.4096 10.8309 18.3852V11.6757C10.8309 11.6209 10.8757 11.5762 10.9307 11.5762C10.9613 11.5762 10.9878 11.5884 11.0082 11.6128L18.497 20.5473C18.7416 20.8335 19.0982 21 19.4772 21H19.738C20.4472 21 21.0219 20.4295 21.0219 19.7231V10.279C21.0219 9.57249 20.4472 9 19.738 9Z"
    fill="white" />
</svg>
