<svg width="233" height="40" viewBox="0 0 233 40" fill="none" xmlns="http://www.w3.org/2000/svg">
  <g clip-path="url(#clip0_3146_10562)">
    <path
      d="M39.7582 19.9241V19.8469C39.7196 8.91862 30.9168 0 20.143 0C9.36921 0 0.527832 8.91862 0.527832 19.9241C0.527832 30.931 9.32921 39.8317 20.143 39.8317C25.1051 39.8351 29.8775 37.9252 33.4671 34.4993C33.8207 34.1763 34.0315 33.7261 34.0531 33.2476C34.0747 32.7692 33.9053 32.3018 33.5823 31.9483C33.2593 31.5947 32.8091 31.384 32.3307 31.3624C31.8522 31.3408 31.3848 31.5101 31.0313 31.8331L30.9927 31.8717C29.4438 33.3442 27.6134 34.4884 25.6113 35.2358C23.6092 35.9832 21.4767 36.3184 19.3418 36.2211C17.207 36.1239 15.1138 35.5962 13.1879 34.6698C11.2621 33.7435 9.54329 32.4375 8.13473 30.8303L16.514 17.3931V23.611C16.514 26.5821 17.6727 27.549 18.6465 27.8193C19.6202 28.0897 21.0809 27.8938 22.663 25.3848L27.2602 17.92C27.383 17.7021 27.5251 17.4952 27.6823 17.3007V21.0869C27.6823 23.8662 28.8023 26.1062 30.732 27.1862C31.6227 27.6712 32.6282 27.9059 33.6417 27.8654C34.6551 27.8248 35.6387 27.5105 36.4878 26.9559C38.7168 25.509 39.914 22.9752 39.7582 19.9241ZM34.6602 23.8345C34.3507 24.0477 33.9898 24.1743 33.6149 24.2013C33.24 24.2282 32.8647 24.1544 32.5278 23.9876C31.7554 23.5255 31.2906 22.4841 31.2906 21.0552V16.6786C31.2906 14.5959 30.4796 13.0883 29.0906 12.7048C26.7334 11.9931 24.9596 14.9048 24.3016 15.9862L20.143 22.6648V14.4414C20.1044 12.5503 19.4851 11.4303 18.3265 11.0814C17.554 10.851 16.3954 10.9683 15.2768 12.6676L5.97059 27.571C4.73256 25.212 4.08375 22.5883 4.07956 19.9241C4.07956 10.9269 11.2989 3.62897 20.143 3.62897C28.9871 3.62897 36.2065 10.9269 36.2065 19.9241V20.0028C36.2989 21.7379 35.7416 23.131 34.6616 23.8234L34.6602 23.8345ZM67.0975 13.1283C67.3533 13.2922 67.5671 13.5138 67.7217 13.7755C67.8762 14.0371 67.9671 14.3313 67.9871 14.6345C67.9845 15.0777 67.8098 15.5026 67.5 15.8196C67.1903 16.1366 66.7695 16.3209 66.3265 16.3338C66.1163 16.3178 65.9086 16.2785 65.7071 16.2166C64.6254 15.4051 63.3131 14.9596 61.9609 14.9448C58.6796 14.9448 56.4409 17.6069 56.4409 20.9269C56.4409 24.2469 58.7196 26.8745 61.9609 26.8745C63.519 26.8723 65.0148 26.2627 66.1306 25.1752C66.4147 24.9752 66.7513 24.8676 67.0975 24.8662C67.3746 24.8631 67.6476 24.9337 67.8884 25.0708C68.1293 25.2078 68.3294 25.4064 68.4684 25.6462C68.6073 25.886 68.68 26.1584 68.679 26.4356C68.6781 26.7127 68.6035 26.9846 68.463 27.2234C68.3292 27.4579 68.1389 27.6579 67.9085 27.8028C66.778 28.7427 65.4381 29.397 64.0017 29.7105C62.5653 30.0239 61.0745 29.9873 59.6552 29.6038C58.2359 29.2203 56.9297 28.501 55.8467 27.5068C54.7636 26.5125 53.9356 25.2724 53.4324 23.8909C52.9292 22.5095 52.7656 21.0274 52.9554 19.5695C53.1452 18.1115 53.6828 16.7207 54.5229 15.5141C55.363 14.3076 56.4809 13.3208 57.7824 12.6369C59.0839 11.953 60.5307 11.5922 62.0009 11.5848C63.8189 11.5572 65.6009 12.0952 67.0975 13.1283ZM76.2865 16.9779C74.5542 16.9706 72.8897 17.6503 71.6577 18.868C70.4258 20.0858 69.7268 21.7423 69.714 23.4745C69.7247 25.2163 70.4186 26.8843 71.6464 28.1199C72.8742 29.3554 74.5378 30.0597 76.2796 30.0814C79.6782 30.0814 82.5747 27.0303 82.5747 23.4745C82.5747 19.9214 79.7237 16.9779 76.2865 16.9779ZM76.2478 26.8634C74.6271 26.8634 73.2754 25.3959 73.2754 23.5034C73.2754 21.5352 74.6271 20.3366 76.2478 20.3366C77.7554 20.3366 79.0271 21.5738 79.0271 23.5034C79.0271 25.4345 77.7554 26.8745 76.2478 26.8745V26.8634ZM84.743 28.0717V18.9572C84.7386 18.7209 84.7813 18.4861 84.8687 18.2665C84.9561 18.0469 85.0863 17.8468 85.2518 17.6781C85.4173 17.5094 85.6148 17.3753 85.8327 17.2838C86.0506 17.1922 86.2846 17.145 86.5209 17.1448C86.9965 17.151 87.4504 17.345 87.7835 17.6846C88.1165 18.0241 88.3018 18.4816 88.2989 18.9572V28.0717C88.3022 28.5476 88.1171 29.0054 87.784 29.3453C87.4508 29.6851 86.9968 29.8793 86.5209 29.8855C86.0476 29.8716 85.598 29.675 85.2666 29.3368C84.9351 28.9986 84.7474 28.5452 84.743 28.0717ZM84.4727 13.7076C84.465 13.4325 84.512 13.1585 84.6112 12.9018C84.7103 12.645 84.8595 12.4105 85.0501 12.2119C85.2408 12.0134 85.469 11.8547 85.7215 11.7451C85.974 11.6356 86.2457 11.5773 86.5209 11.5738C86.7978 11.577 87.0714 11.6348 87.3259 11.7438C87.5805 11.8528 87.8111 12.0109 88.0045 12.2091C88.1979 12.4073 88.3504 12.6416 88.4532 12.8987C88.556 13.1558 88.6072 13.4307 88.6037 13.7076C88.6037 14.2552 88.3862 14.7804 87.9989 15.1676C87.6117 15.5549 87.0865 15.7724 86.5389 15.7724C85.9912 15.7724 85.466 15.5549 85.0788 15.1676C84.6916 14.7804 84.4727 14.2552 84.4727 13.7076ZM95.092 23.131V28.0717C95.092 28.5433 94.9047 28.9955 94.5712 29.3289C94.2378 29.6623 93.7856 29.8497 93.314 29.8497C92.8425 29.8497 92.3903 29.6623 92.0568 29.3289C91.7234 28.9955 91.5361 28.5433 91.5361 28.0717V18.5338C91.5361 18.1702 91.6806 17.8214 91.9377 17.5643C92.1948 17.3072 92.5435 17.1628 92.9071 17.1628C93.2708 17.1628 93.6195 17.3072 93.8766 17.5643C94.1337 17.8214 94.2782 18.1702 94.2782 18.5338C94.7849 18.016 95.395 17.6109 96.0687 17.3447C96.7425 17.0785 97.4648 16.9573 98.1885 16.989C101.743 16.989 103.325 19.6538 103.325 22.7048V28.0717C103.325 28.5433 103.138 28.9955 102.804 29.3289C102.471 29.6623 102.019 29.8497 101.547 29.8497C101.076 29.8497 100.623 29.6623 100.29 29.3289C99.9565 28.9955 99.7692 28.5433 99.7692 28.0717V23.131C99.7692 21.5848 99.5775 20.2869 97.3375 20.2869C95.7568 20.2869 95.0989 21.5986 95.0989 23.131H95.092ZM114.824 25.0221C114.644 25.0225 114.466 24.9805 114.305 24.8996C114.143 24.8186 114.004 24.7009 113.896 24.5559L109.765 20.0772V28.0717C109.772 28.3093 109.731 28.5458 109.644 28.7672C109.558 28.9886 109.428 29.1904 109.262 29.3608C109.097 29.5312 108.899 29.6666 108.68 29.7591C108.461 29.8515 108.225 29.8992 107.988 29.8992C107.75 29.8992 107.515 29.8515 107.296 29.7591C107.077 29.6666 106.879 29.5312 106.713 29.3608C106.548 29.1904 106.418 28.9886 106.331 28.7672C106.245 28.5458 106.204 28.3093 106.211 28.0717V12.2386C106.265 12.1073 106.356 11.9942 106.473 11.9124C106.589 11.8307 106.726 11.7836 106.869 11.7766C107.175 11.8285 107.45 11.9934 107.641 12.2386L114.245 19.6538C114.312 19.7493 114.399 19.8302 114.498 19.8913C114.598 19.9525 114.709 19.9928 114.824 20.0097C115.054 19.9651 115.26 19.8386 115.404 19.6538L122.005 12.2386C122.096 12.1143 122.212 12.0094 122.344 11.9301C122.477 11.8507 122.623 11.7985 122.776 11.7766C122.921 11.773 123.063 11.8159 123.181 11.8991C123.3 11.9823 123.388 12.1013 123.434 12.2386V28.0731C123.438 28.3094 123.396 28.5442 123.308 28.7639C123.221 28.9835 123.091 29.1835 122.925 29.3522C122.76 29.521 122.562 29.655 122.344 29.7466C122.126 29.8381 121.892 29.8854 121.656 29.8855C121.181 29.8786 120.727 29.6841 120.394 29.3444C120.062 29.0047 119.877 28.5472 119.88 28.0717V20.0772L115.744 24.5559C115.506 24.8218 115.176 24.9883 114.82 25.0221H114.824ZM148.224 20.2731H147.837C145.598 20.3862 145.175 21.6634 145.175 23.1172V28.0579C145.174 28.5294 144.987 28.9814 144.654 29.3147C144.32 29.6481 143.868 29.8355 143.397 29.8359C142.925 29.8351 142.474 29.6473 142.14 29.3137C141.807 28.9801 141.62 28.528 141.62 28.0566V18.5352C141.621 18.1714 141.766 17.8228 142.023 17.5655C142.28 17.3083 142.629 17.1635 142.993 17.1628C143.356 17.1635 143.705 17.3084 143.962 17.5656C144.219 17.8229 144.363 18.1715 144.364 18.5352C145.675 17.2979 146.757 17.0276 147.837 16.9876H148.193C148.626 16.9991 149.037 17.179 149.34 17.4891C149.643 17.7991 149.812 18.215 149.813 18.6483C149.813 19.0717 149.647 19.4782 149.352 19.7816C149.057 20.0849 148.655 20.2613 148.231 20.2731H148.224ZM161.932 27.2221C162.095 27.4772 162.189 27.7697 162.202 28.0717C162.183 28.5371 161.989 28.9782 161.66 29.3075C161.331 29.6368 160.89 29.8303 160.424 29.8497C159.809 29.8497 159.266 29.3834 158.842 28.8428L154.751 24.0869V28.0317C154.751 28.5031 154.564 28.9551 154.231 29.2884C153.897 29.6217 153.445 29.809 152.974 29.809C152.503 29.809 152.051 29.6217 151.717 29.2884C151.384 28.9551 151.197 28.5031 151.197 28.0317V13.5559C151.196 13.2041 151.3 12.86 151.495 12.5673C151.69 12.2746 151.968 12.0465 152.293 11.9118C152.618 11.7772 152.975 11.7422 153.32 11.8111C153.665 11.8801 153.982 12.05 154.23 12.2993C154.564 12.6317 154.751 13.0855 154.751 13.5545V22.589L158.842 18.0731C159.266 17.6083 159.771 17.1076 160.386 17.1076C160.837 17.1274 161.263 17.3181 161.579 17.6408C161.894 17.9636 162.075 18.3942 162.085 18.8455C162.087 19.132 162.006 19.4129 161.853 19.6552L158.612 23.2097L161.932 27.2276V27.2221ZM183.402 30.0414H182.435C179.733 30.0414 178.149 28.8428 178.149 24.6345V20.2731H177.224C176.789 20.2731 176.371 20.1 176.063 19.792C175.755 19.4839 175.582 19.066 175.582 18.6303C175.582 18.1947 175.755 17.7768 176.063 17.4687C176.371 17.1607 176.789 16.9876 177.224 16.9876H178.135V13.629C178.126 13.2727 178.226 12.9222 178.42 12.6234C178.614 12.3246 178.894 12.0914 179.223 11.9545C179.441 11.8634 179.675 11.8166 179.911 11.8166C180.386 11.8245 180.839 12.0191 181.172 12.3583C181.505 12.6974 181.69 13.1539 181.689 13.629V16.9779H183.154C183.583 16.9909 183.99 17.1723 184.287 17.4827C184.583 17.7932 184.746 18.2079 184.739 18.6372C184.724 19.0568 184.554 19.4559 184.261 19.7564C183.968 20.0569 183.573 20.2372 183.154 20.2621H181.689V23.931C181.689 26.3628 181.802 26.8634 182.884 26.8634H183.389C183.808 26.8653 184.21 27.0331 184.507 27.3303C184.803 27.6275 184.97 28.0299 184.971 28.4497C184.961 28.8663 184.791 29.2632 184.497 29.5579C184.202 29.8525 183.805 30.0222 183.389 30.0317L183.402 30.0414ZM200.583 13.1283C200.838 13.2926 201.052 13.5144 201.206 13.7759C201.36 14.0375 201.451 14.3315 201.471 14.6345C201.469 15.0778 201.294 15.5029 200.985 15.82C200.675 16.137 200.254 16.3213 199.811 16.3338C199.601 16.3169 199.394 16.2776 199.193 16.2166C198.112 15.4045 196.801 14.9589 195.449 14.9448C192.165 14.9448 189.925 17.6069 189.925 20.9269C189.925 24.2469 192.204 26.8745 195.449 26.8745C197.007 26.8723 198.503 26.2627 199.619 25.1752C199.902 24.9766 200.238 24.869 200.583 24.8662C200.792 24.8643 200.998 24.9038 201.192 24.9824C201.385 25.061 201.561 25.1772 201.709 25.3241C201.954 25.5692 202.111 25.8889 202.155 26.233C202.199 26.577 202.127 26.9259 201.951 27.2248C201.816 27.4605 201.624 27.6587 201.393 27.8014C200.263 28.7396 198.924 29.3922 197.489 29.7043C196.054 30.0164 194.565 29.9787 193.147 29.5945C191.007 29.016 189.15 27.6814 187.919 25.838C186.688 23.9947 186.168 21.7677 186.453 19.5697C186.738 17.3713 187.81 15.3507 189.471 13.8824C191.132 12.4142 193.268 11.5978 195.485 11.5848C197.304 11.5502 199.088 12.0903 200.583 13.1283ZM137.066 17.1062C136.885 17.1061 136.706 17.1423 136.539 17.2125C136.373 17.2827 136.222 17.3856 136.096 17.515C135.969 17.6445 135.87 17.7979 135.804 17.9662C135.738 18.1346 135.707 18.3144 135.711 18.4952L135.637 18.9228C135.127 18.3194 134.495 17.8317 133.782 17.492C133.07 17.1524 132.292 16.9686 131.503 16.9531C128.03 16.9531 125.521 19.8855 125.521 23.4359C125.521 26.9876 127.99 30.0414 131.311 30.0414C132.702 30.0414 134.902 29.4221 135.598 28.0717L135.677 28.4952C135.673 28.677 135.707 28.8576 135.776 29.0258C135.845 29.194 135.948 29.3463 136.078 29.4733C136.208 29.6002 136.363 29.6991 136.533 29.7639C136.703 29.8286 136.884 29.8578 137.066 29.8497C137.248 29.85 137.429 29.8143 137.598 29.7446C137.767 29.6748 137.921 29.5724 138.05 29.4432C138.179 29.3141 138.281 29.1607 138.351 28.9918C138.421 28.823 138.456 28.642 138.456 28.4593V18.5062C138.451 18.1382 138.303 17.7866 138.044 17.5255C137.784 17.2643 137.434 17.114 137.066 17.1062ZM131.891 26.8745C130.309 26.8745 129.071 25.371 129.071 23.5145C129.071 21.6593 130.344 20.3145 131.891 20.3145C133.435 20.3145 134.827 21.5876 134.827 23.5145C134.827 25.4414 133.474 26.8745 131.891 26.8745ZM174.907 23.2055C174.829 19.2276 172.241 16.9876 168.806 16.9876C164.542 16.9876 162.742 20.0772 162.742 23.6317C162.742 28.1503 165.718 30.08 169.309 30.08C170.659 30.08 172.088 29.8855 173.168 29.0745C173.392 28.9431 173.58 28.7579 173.715 28.5356C173.85 28.3134 173.927 28.061 173.94 27.8014C173.943 27.4192 173.795 27.0512 173.529 26.7767C173.263 26.5022 172.9 26.3432 172.518 26.3338C172.191 26.3366 171.871 26.4303 171.594 26.6041C170.861 26.9169 170.072 27.0743 169.275 27.0662C168.387 27.0662 166.34 26.7103 166.34 24.5959H173.513C173.88 24.5888 174.23 24.4402 174.489 24.1811C174.749 23.922 174.899 23.5724 174.907 23.2055ZM166.332 22.309C166.332 20.8055 167.918 20.3048 168.881 20.3048C169.845 20.3048 171.43 20.8055 171.469 22.309H166.332ZM214.749 17.1062C214.568 17.1063 214.389 17.1425 214.223 17.2126C214.056 17.2827 213.905 17.3853 213.779 17.5145C213.653 17.6439 213.554 17.7974 213.488 17.9659C213.422 18.1344 213.391 18.3144 213.397 18.4952L213.32 18.9228C212.811 18.3194 212.179 17.8315 211.467 17.4918C210.754 17.1522 209.978 16.9685 209.189 16.9531C205.713 16.9531 203.202 19.8855 203.202 23.4359C203.202 26.9876 205.691 30.0414 208.993 30.0414C210.383 30.0414 212.587 29.4221 213.28 28.0717L213.358 28.4952C213.356 28.6767 213.39 28.8569 213.46 29.0247C213.529 29.1925 213.631 29.3446 213.761 29.4717C213.891 29.5988 214.046 29.698 214.216 29.763C214.385 29.828 214.567 29.8575 214.749 29.8497C215.024 29.8495 215.292 29.768 215.521 29.6153C215.75 29.4626 215.928 29.2457 216.034 28.9917C216.103 28.8234 216.139 28.6428 216.139 28.4593V18.5062C216.133 18.1384 215.985 17.7872 215.726 17.5262C215.466 17.2652 215.116 17.1147 214.749 17.1062ZM209.572 26.8745C208.03 26.8745 206.754 25.371 206.754 23.5145C206.754 21.6593 207.991 20.3145 209.572 20.3145C211.154 20.3145 212.509 21.5876 212.509 23.5145C212.509 25.4414 211.165 26.8745 209.58 26.8745H209.572ZM226.262 16.9779C225.488 16.9638 224.719 17.1071 224.002 17.3993C223.285 17.6914 222.636 18.1262 222.092 18.6772C222.092 17.7917 221.513 17.1338 220.742 17.1338C220.559 17.1332 220.378 17.1688 220.208 17.2385C220.039 17.3081 219.886 17.4105 219.756 17.5396C219.627 17.6688 219.524 17.8223 219.454 17.9912C219.384 18.1602 219.348 18.3413 219.349 18.5241V33.5076C219.35 33.9784 219.537 34.4297 219.87 34.7626C220.203 35.0955 220.654 35.283 221.125 35.2841C221.596 35.2838 222.048 35.0965 222.381 34.7635C222.715 34.4304 222.902 33.9788 222.903 33.5076V29C223.866 29.731 225.412 30.0414 226.457 30.0662C229.817 30.0662 232.252 27.0166 232.252 23.4621C232.252 19.9062 229.7 16.9779 226.262 16.9779ZM225.835 26.8634C224.253 26.8634 222.903 25.4428 222.903 23.5048C222.903 21.5669 224.253 20.3048 225.835 20.3048C227.418 20.3048 228.655 21.5779 228.655 23.5048C228.655 25.3697 227.422 26.8745 225.835 26.8745V26.8634Z"
      fill="white" />
  </g>
  <defs>
    <clipPath id="clip0_3146_10562">
      <rect width="231.724" height="40" fill="white" transform="translate(0.527832)" />
    </clipPath>
  </defs>
</svg>
