<svg width="152" height="40" viewBox="0 0 152 40" fill="none" xmlns="http://www.w3.org/2000/svg">
  <path
    d="M62.7642 15.7048C62.3608 14.0915 61.3273 12.9319 59.2854 12.9319C56.2856 12.9319 55.0504 15.5787 55.0504 18.2508C55.0504 20.9229 56.3108 23.5698 59.2854 23.5698C61.4533 23.5698 62.6381 21.9564 62.8398 19.9146H65.2346C65.0329 23.2673 62.6633 25.5612 59.2854 25.5612C55.1008 25.5612 52.6052 22.2337 52.6052 18.2508C52.6052 14.2679 55.1008 10.9404 59.2854 10.9404C62.4364 10.9656 64.9069 12.705 65.2094 15.7048H62.7642ZM66.6966 20.1667C66.6966 17.066 68.5621 14.8477 71.7887 14.8477C75.0154 14.8477 76.8808 17.066 76.8808 20.1667C76.8808 23.2673 75.0154 25.5108 71.7887 25.5108C68.5621 25.5108 66.6966 23.2673 66.6966 20.1667ZM74.6624 20.1667C74.6624 18.4273 73.7802 16.6123 71.7887 16.6123C69.7973 16.6123 68.915 18.4273 68.915 20.1667C68.915 21.906 69.7973 23.7462 71.7887 23.7462C73.7802 23.7462 74.6624 21.9312 74.6624 20.1667ZM78.7966 11.2681H81.0149V13.3856H78.7966V11.2681ZM78.7966 15.125H81.0149V25.2335H78.7966V15.125ZM83.4601 15.125H85.5776V16.6123L85.628 16.6627C86.2835 15.5535 87.4682 14.8477 88.7791 14.8729C90.9722 14.8729 92.3586 16.0577 92.3586 18.3012V25.2335H90.1403V18.881C90.0899 17.2929 89.4849 16.6123 88.1741 16.6123C86.6868 16.6123 85.7289 17.7719 85.7289 19.2592V25.2335H83.5105V15.125H83.4601ZM107.181 25.2335H105.618L105.24 23.595C103.929 25.0823 102.744 25.5612 101.03 25.5612C96.8457 25.5612 94.3501 22.2337 94.3501 18.2508C94.3501 14.2679 96.8457 10.9404 101.03 10.9404C104.08 10.9404 106.652 12.5538 107.005 15.7048H104.61C104.383 13.8646 102.77 12.9319 101.005 12.9319C98.0053 12.9319 96.7701 15.5787 96.7701 18.2508C96.7701 20.9229 98.0305 23.5698 101.005 23.5698C103.501 23.6202 104.887 22.1077 104.912 19.7381H101.207V17.8727H107.156L107.181 25.2335ZM111.265 20.7464C111.265 22.3346 112.122 23.7462 113.987 23.7462C115.273 23.7462 116.054 23.1916 116.458 22.0573H118.575C118.096 24.2756 116.206 25.5108 113.987 25.5108C110.811 25.5108 109.047 23.2925 109.047 20.1919C109.047 17.3181 110.937 14.8477 113.937 14.8477C117.113 14.8477 119.079 17.7215 118.701 20.7464H111.265ZM116.458 19.2844C116.382 17.8727 115.424 16.6123 113.912 16.6123C112.374 16.6123 111.315 17.7719 111.24 19.2844H116.458ZM127.222 18.5029C127.045 17.2677 126.138 16.6123 124.902 16.6123C123.743 16.6123 122.13 17.2173 122.13 20.2927C122.13 21.9816 122.861 23.7462 124.802 23.7462C126.087 23.7462 126.995 22.8891 127.196 21.4271H129.415C129.011 24.0487 127.398 25.4856 124.776 25.4856C121.6 25.4856 119.861 23.2421 119.861 20.2675C119.861 17.2173 121.525 14.8225 124.852 14.8225C127.196 14.8225 129.188 16.0073 129.415 18.4777H127.222V18.5029ZM131.331 11.2681H133.549V19.2087L137.582 15.125H140.33L136.448 18.8306L140.683 25.2335H137.96L134.86 20.3179L133.524 21.6035V25.2335H131.305V11.2681H131.331ZM141.288 20.1667C141.288 17.066 143.153 14.8477 146.38 14.8477C149.632 14.8477 151.472 17.066 151.472 20.1667C151.472 23.2673 149.607 25.5108 146.38 25.5108C143.153 25.5108 141.288 23.2673 141.288 20.1667ZM149.279 20.1667C149.279 18.4273 148.397 16.6123 146.405 16.6123C144.414 16.6123 143.531 18.4273 143.531 20.1667C143.531 21.906 144.414 23.7462 146.405 23.7462C148.397 23.7462 149.279 21.9312 149.279 20.1667Z"
    fill="white" />
  <path
    d="M40.2281 19.9146C40.2533 28.0064 35.4385 35.3168 27.9769 38.4426C20.5152 41.5685 11.9192 39.9047 6.17174 34.2077C0.424263 28.5106 -1.31511 19.9146 1.73509 12.4277C4.78529 4.94088 12.0705 0.0504699 20.1371 5.34264e-05C31.2035 -0.0251548 40.1777 8.87336 40.2281 19.9146Z"
    fill="#8DC63F" />
  <path
    d="M38.7408 19.9146C38.766 27.4015 34.3041 34.1573 27.3971 37.0563C20.49 39.9552 12.5494 38.3923 7.23048 33.149C1.91154 27.8805 0.298209 19.9399 3.12153 13.0328C5.94486 6.10052 12.6755 1.58824 20.1371 1.53783C30.3717 1.48741 38.6904 9.7053 38.7408 19.9146Z"
    fill="#F9E988" />
  <path
    d="M20.5908 2.72254C21.7756 2.52087 22.9604 2.52087 24.1452 2.72254C25.33 2.899 26.4896 3.30233 27.5483 3.85691C28.607 4.4367 29.5145 5.21816 30.422 5.9492C31.3295 6.68024 32.237 7.43649 33.0941 8.26836C33.9764 9.07502 34.7326 10.0077 35.3629 11.0161C36.0183 12.0244 36.5476 13.1083 36.951 14.2175C37.7324 16.4862 37.9845 18.9315 37.6064 21.2506H37.4803C37.1022 18.9315 36.5729 16.7383 35.741 14.646C35.3629 13.5873 34.8839 12.5538 34.3797 11.5706C33.8252 10.5875 33.2454 9.60439 32.5899 8.69689C31.9345 7.76419 31.1027 6.93232 30.17 6.2517C29.2372 5.57108 28.1533 5.14254 27.1198 4.7392C26.0862 4.33587 25.0275 3.90733 23.9435 3.57962C22.8596 3.27712 21.7504 3.02504 20.5908 2.79816V2.72254Z"
    fill="white" />
  <path
    d="M29.6155 13.3858C28.2795 13.0077 26.893 12.4531 25.4814 11.8985C25.4057 11.5456 25.078 11.1171 24.4478 10.5625C23.5403 9.75582 21.801 9.78103 20.3137 10.1339C18.6751 9.75582 17.0366 9.60457 15.4737 9.9827C2.6931 13.5119 9.92787 22.0827 5.23914 30.7291C5.89455 32.1407 13.1041 40.4091 23.5151 38.1907C23.5151 38.1907 19.9608 29.6451 28.0022 25.5362C34.5311 22.2087 39.2199 16.0075 29.6155 13.3858Z"
    fill="#8BC53F" />
  <path
    d="M20.3136 10.1342C21.2463 10.2098 24.6242 11.2937 25.4813 11.8987C24.7503 9.80646 22.3303 9.52917 20.3136 10.1342Z"
    fill="#009345" />
  <path
    d="M31.2037 19.0073C31.2037 19.6879 30.3718 20.0408 29.8929 19.5619C29.4139 19.0829 29.7416 18.251 30.4222 18.2258C30.8508 18.251 31.2037 18.5787 31.2037 19.0073ZM21.196 15.4529C21.196 16.8898 20.3137 18.2006 18.9777 18.7552C17.6416 19.3098 16.1039 19.0073 15.0704 17.9738C14.0369 16.9402 13.7344 15.4025 14.2889 14.0665C14.8435 12.7304 16.1544 11.8481 17.5912 11.8481C18.5491 11.8481 19.4566 12.2263 20.1121 12.8817C20.8179 13.5875 21.196 14.495 21.196 15.4529Z"
    fill="white" />
  <path
    d="M20.1371 15.4782C20.1371 16.4865 19.5321 17.4192 18.5742 17.7973C17.6415 18.1754 16.5576 17.9738 15.8265 17.2427C15.0955 16.5117 14.8938 15.4529 15.2719 14.495C15.6501 13.5623 16.5828 12.9321 17.5911 12.9321C19.0028 12.9573 20.1371 14.0917 20.1371 15.4782Z"
    fill="#58595B" />
  <path
    d="M34.1025 20.5956C31.2035 22.6375 27.9012 24.1752 23.2377 24.1752C21.0446 24.1752 20.6161 21.856 19.154 22.9904C18.3977 23.5702 15.7761 24.881 13.6838 24.8054C11.5915 24.7046 8.21359 23.4694 7.28089 19.0327C6.90276 23.4946 6.72631 26.7717 5.03735 30.5277C8.36484 35.8718 16.3054 39.9808 23.515 38.2162C22.7335 32.7964 27.4727 27.5027 30.1196 24.8054C31.1531 23.7467 33.0941 22.0829 34.1025 20.5956Z"
    fill="#8BC53F" />
  <path
    d="M33.9765 20.7217C33.069 21.5536 32.0103 22.1585 30.9263 22.6879C29.8172 23.2173 28.6828 23.6206 27.498 23.9483C26.3132 24.2508 25.078 24.4777 23.8428 24.3769C22.5824 24.276 21.322 23.8475 20.4901 22.9148L20.5405 22.8644C21.5489 23.5198 22.7336 23.7467 23.8932 23.7971C25.078 23.8223 26.2628 23.7467 27.4224 23.5198C28.582 23.2677 29.7415 22.9148 30.8507 22.461C31.9599 22.0073 33.0438 21.4779 34.0017 20.7217H33.9765Z"
    fill="#58595B" />
</svg>
