<svg width="28" height="28" viewBox="0 0 28 28" fill="none" xmlns="http://www.w3.org/2000/svg">
  <path
    d="M14 2.625C8.11234 2.625 3.5 5.31562 3.5 8.75V19.25C3.5 22.6844 8.11234 25.375 14 25.375C19.8877 25.375 24.5 22.6844 24.5 19.25V8.75C24.5 5.31562 19.8877 2.625 14 2.625ZM22.75 14C22.75 15.0522 21.8881 16.1252 20.3864 16.9444C18.6955 17.8664 16.427 18.375 14 18.375C11.573 18.375 9.30453 17.8664 7.61359 16.9444C6.11188 16.1252 5.25 15.0522 5.25 14V12.18C7.11594 13.8206 10.3064 14.875 14 14.875C17.6936 14.875 20.8841 13.8162 22.75 12.18V14ZM20.3864 22.1944C18.6955 23.1164 16.427 23.625 14 23.625C11.573 23.625 9.30453 23.1164 7.61359 22.1944C6.11188 21.3752 5.25 20.3022 5.25 19.25V17.43C7.11594 19.0706 10.3064 20.125 14 20.125C17.6936 20.125 20.8841 19.0662 22.75 17.43V19.25C22.75 20.3022 21.8881 21.3752 20.3864 22.1944Z"
    fill="white" />
</svg>
