<svg width="28" height="28" viewBox="0 0 28 28" fill="none" xmlns="http://www.w3.org/2000/svg">
  <path
    d="M23.625 4.375H4.375C3.91087 4.375 3.46575 4.55937 3.13756 4.88756C2.80937 5.21575 2.625 5.66087 2.625 6.125V21.875C2.625 22.3391 2.80937 22.7842 3.13756 23.1124C3.46575 23.4406 3.91087 23.625 4.375 23.625H23.625C24.0891 23.625 24.5342 23.4406 24.8624 23.1124C25.1906 22.7842 25.375 22.3391 25.375 21.875V6.125C25.375 5.66087 25.1906 5.21575 24.8624 4.88756C24.5342 4.55937 24.0891 4.375 23.625 4.375ZM21.875 21H6.125C5.89294 21 5.67038 20.9078 5.50628 20.7437C5.34219 20.5796 5.25 20.3571 5.25 20.125V7.875C5.25 7.64294 5.34219 7.42038 5.50628 7.25628C5.67038 7.09219 5.89294 7 6.125 7C6.35706 7 6.57962 7.09219 6.74372 7.25628C6.90781 7.42038 7 7.64294 7 7.875V16.263L10.7559 12.5059C10.8372 12.4246 10.9337 12.36 11.0399 12.316C11.1462 12.272 11.26 12.2493 11.375 12.2493C11.49 12.2493 11.6038 12.272 11.7101 12.316C11.8163 12.36 11.9128 12.4246 11.9941 12.5059L14 14.513L18.888 9.625H16.625C16.3929 9.625 16.1704 9.53281 16.0063 9.36872C15.8422 9.20462 15.75 8.98206 15.75 8.75C15.75 8.51794 15.8422 8.29538 16.0063 8.13128C16.1704 7.96719 16.3929 7.875 16.625 7.875H21C21.2321 7.875 21.4546 7.96719 21.6187 8.13128C21.7828 8.29538 21.875 8.51794 21.875 8.75V13.125C21.875 13.3571 21.7828 13.5796 21.6187 13.7437C21.4546 13.9078 21.2321 14 21 14C20.7679 14 20.5454 13.9078 20.3813 13.7437C20.2172 13.5796 20.125 13.3571 20.125 13.125V10.862L14.6191 16.3691C14.5378 16.4504 14.4413 16.515 14.3351 16.559C14.2288 16.603 14.115 16.6257 14 16.6257C13.885 16.6257 13.7712 16.603 13.6649 16.559C13.5587 16.515 13.4622 16.4504 13.3809 16.3691L11.375 14.362L7 18.737V19.25H21.875C22.1071 19.25 22.3296 19.3422 22.4937 19.5063C22.6578 19.6704 22.75 19.8929 22.75 20.125C22.75 20.3571 22.6578 20.5796 22.4937 20.7437C22.3296 20.9078 22.1071 21 21.875 21Z"
    fill="white" />
</svg>
