<svg width="28" height="28" viewBox="0 0 28 28" fill="none" xmlns="http://www.w3.org/2000/svg">
  <path
    d="M25.7392 11.3751L19.8909 17.2431C20.3897 18.6289 20.5964 20.9498 18.4483 23.8056C18.298 24.0064 18.1062 24.1724 17.8859 24.2923C17.6656 24.4121 17.4221 24.483 17.1719 24.5001C17.1303 24.5001 17.0898 24.5001 17.0483 24.5001C16.8183 24.5001 16.5906 24.4549 16.3782 24.3668C16.1657 24.2788 15.9727 24.1498 15.8101 23.9871L10.5317 18.7032L5.86905 23.3692C5.70486 23.5334 5.48218 23.6256 5.24999 23.6256C5.01779 23.6256 4.79511 23.5334 4.63093 23.3692C4.46674 23.205 4.3745 22.9823 4.3745 22.7501C4.3745 22.5179 4.46674 22.2952 4.63093 22.131L9.29686 17.4684L4.01405 12.1856C3.84041 12.0117 3.70532 11.8032 3.61759 11.5737C3.52986 11.3442 3.49145 11.0987 3.50487 10.8534C3.51828 10.608 3.58321 10.3682 3.69544 10.1496C3.80767 9.93105 3.96468 9.73853 4.15624 9.58464C6.93655 7.34136 9.59764 7.78214 10.7625 8.14745L16.625 2.26417C16.7875 2.10162 16.9804 1.97268 17.1928 1.88471C17.4051 1.79674 17.6327 1.75146 17.8626 1.75146C18.0924 1.75146 18.32 1.79674 18.5324 1.88471C18.7447 1.97268 18.9376 2.10162 19.1001 2.26417L25.7381 8.90104C26.0662 9.22905 26.2506 9.67392 26.2508 10.1378C26.251 10.6018 26.067 11.0468 25.7392 11.3751Z"
    fill="white" />
</svg>
