<svg width="28" height="28" viewBox="0 0 28 28" fill="none" xmlns="http://www.w3.org/2000/svg">
  <path
    d="M16.625 10.5V8.75H15.75C15.2859 8.75 14.8408 8.93437 14.5126 9.26256C14.1844 9.59075 14 10.0359 14 10.5V17.5C14 17.9641 14.1844 18.4092 14.5126 18.7374C14.8408 19.0656 15.2859 19.25 15.75 19.25H16.625V17.5C16.625 17.0359 16.8094 16.5908 17.1376 16.2626C17.4658 15.9344 17.9109 15.75 18.375 15.75H23.625C24.0891 15.75 24.5342 15.9344 24.8624 16.2626C25.1906 16.5908 25.375 17.0359 25.375 17.5V22.75C25.375 23.2141 25.1906 23.6592 24.8624 23.9874C24.5342 24.3156 24.0891 24.5 23.625 24.5H18.375C17.9109 24.5 17.4658 24.3156 17.1376 23.9874C16.8094 23.6592 16.625 23.2141 16.625 22.75V21H15.75C14.8217 21 13.9315 20.6313 13.2751 19.9749C12.6187 19.3185 12.25 18.4283 12.25 17.5V14.875H8.75V15.75C8.75 16.2141 8.56563 16.6592 8.23744 16.9874C7.90925 17.3156 7.46413 17.5 7 17.5H3.5C3.03587 17.5 2.59075 17.3156 2.26256 16.9874C1.93437 16.6592 1.75 16.2141 1.75 15.75V12.25C1.75 11.7859 1.93437 11.3408 2.26256 11.0126C2.59075 10.6844 3.03587 10.5 3.5 10.5H7C7.46413 10.5 7.90925 10.6844 8.23744 11.0126C8.56563 11.3408 8.75 11.7859 8.75 12.25V13.125H12.25V10.5C12.25 9.57174 12.6187 8.6815 13.2751 8.02513C13.9315 7.36875 14.8217 7 15.75 7H16.625V5.25C16.625 4.78587 16.8094 4.34075 17.1376 4.01256C17.4658 3.68437 17.9109 3.5 18.375 3.5H23.625C24.0891 3.5 24.5342 3.68437 24.8624 4.01256C25.1906 4.34075 25.375 4.78587 25.375 5.25V10.5C25.375 10.9641 25.1906 11.4092 24.8624 11.7374C24.5342 12.0656 24.0891 12.25 23.625 12.25H18.375C17.9109 12.25 17.4658 12.0656 17.1376 11.7374C16.8094 11.4092 16.625 10.9641 16.625 10.5Z"
    fill="white" />
</svg>
