<svg width="160" height="46" fill="none" xmlns="http://www.w3.org/2000/svg"><rect width="160" height="46" rx="8" fill="#100f0d"/><path d="M35.21 22.741c-.034-3.852 3.164-5.726 3.31-5.813-1.81-2.633-4.618-2.992-5.604-3.02-2.358-.248-4.644 1.406-5.845 1.406-1.225 0-3.074-1.383-5.068-1.342-2.564.039-4.964 1.52-6.28 3.82-2.716 4.688-.69 11.577 1.912 15.367 1.301 1.856 2.822 3.928 4.813 3.855 1.948-.08 2.675-1.238 5.025-1.238 2.33 0 3.012 1.238 5.043 1.192 2.09-.034 3.406-1.865 4.662-3.737 1.504-2.128 2.108-4.223 2.132-4.33-.05-.017-4.06-1.543-4.1-6.16ZM31.376 11.414c1.047-1.306 1.764-3.083 1.565-4.887-1.516.067-3.412 1.046-4.504 2.324-.966 1.125-1.829 2.97-1.606 4.706 1.703.127 3.452-.857 4.545-2.143ZM63.393 36.748H60.67l-1.49-4.671h-5.183l-1.42 4.671h-2.65l5.134-15.904h3.171l5.16 15.904Zm-4.662-6.631-1.349-4.153c-.142-.425-.41-1.424-.804-2.996h-.048c-.157.676-.41 1.675-.757 2.996l-1.325 4.153h4.283ZM76.597 30.872c0 1.95-.529 3.492-1.586 4.623-.947 1.008-2.122 1.511-3.526 1.511-1.515 0-2.603-.543-3.266-1.628h-.048v6.041h-2.555V29.054c0-1.226-.032-2.485-.094-3.775h2.247l.142 1.817h.048c.852-1.37 2.146-2.053 3.881-2.053 1.357 0 2.49.534 3.395 1.604.909 1.07 1.362 2.479 1.362 4.225Zm-2.603.093c0-1.116-.252-2.037-.758-2.76-.552-.756-1.294-1.134-2.224-1.134-.63 0-1.204.21-1.715.625a2.897 2.897 0 0 0-1.006 1.641c-.079.316-.118.574-.118.777v1.912c0 .834.256 1.538.769 2.113s1.18.862 2 .862c.962 0 1.71-.37 2.246-1.11.537-.74.806-1.714.806-2.926ZM89.824 30.872c0 1.95-.528 3.492-1.587 4.623-.945 1.008-2.121 1.511-3.524 1.511-1.515 0-2.604-.543-3.265-1.628H81.4v6.041h-2.555V29.054c0-1.226-.033-2.485-.095-3.775h2.247l.143 1.817h.048c.85-1.37 2.144-2.053 3.88-2.053 1.356 0 2.489.534 3.397 1.604.905 1.07 1.36 2.479 1.36 4.225Zm-2.603.093c0-1.116-.253-2.037-.759-2.76-.552-.756-1.292-1.134-2.223-1.134-.632 0-1.203.21-1.716.625a2.896 2.896 0 0 0-1.004 1.641 3.392 3.392 0 0 0-.12.777v1.912c0 .834.257 1.538.768 2.113.513.574 1.18.862 2.001.862.963 0 1.712-.37 2.248-1.11.537-.74.805-1.714.805-2.926ZM104.614 32.287c0 1.353-.471 2.453-1.417 3.303-1.039.929-2.486 1.392-4.345 1.392-1.716 0-3.092-.33-4.133-.99l.592-2.124a7.02 7.02 0 0 0 3.694 1.016c.962 0 1.711-.218 2.249-.65.536-.433.803-1.014.803-1.738 0-.646-.22-1.19-.663-1.63-.439-.441-1.174-.851-2.2-1.23-2.793-1.038-4.188-2.56-4.188-4.56 0-1.308.49-2.38 1.469-3.214.975-.835 2.277-1.252 3.904-1.252 1.452 0 2.657.252 3.62.755l-.639 2.077c-.899-.488-1.915-.732-3.053-.732-.898 0-1.6.221-2.104.661a1.886 1.886 0 0 0-.639 1.44c0 .629.243 1.149.732 1.558.426.377 1.199.786 2.321 1.227 1.372.55 2.38 1.195 3.028 1.934.646.736.969 1.657.969 2.757ZM113.063 27.192h-2.817v5.568c0 1.416.496 2.123 1.491 2.123.457 0 .835-.04 1.135-.118l.071 1.935c-.504.187-1.166.282-1.987.282-1.009 0-1.798-.307-2.367-.92-.567-.615-.853-1.645-.853-3.092v-5.78h-1.677v-1.913h1.677v-2.1l2.51-.755v2.855h2.817v1.915ZM125.771 30.917c0 1.763-.506 3.21-1.515 4.342-1.059 1.165-2.463 1.746-4.214 1.746-1.688 0-3.031-.558-4.033-1.675-1.002-1.116-1.503-2.525-1.503-4.223 0-1.777.515-3.233 1.55-4.364 1.031-1.133 2.424-1.7 4.175-1.7 1.688 0 3.045.558 4.07 1.676.981 1.083 1.47 2.483 1.47 4.198Zm-2.652.082c0-1.057-.226-1.964-.685-2.72-.536-.916-1.302-1.373-2.294-1.373-1.027 0-1.807.458-2.343 1.372-.459.758-.686 1.68-.686 2.77 0 1.057.227 1.964.686 2.72.552.915 1.324 1.371 2.32 1.371.976 0 1.742-.466 2.294-1.396.471-.77.708-1.687.708-2.744ZM134.075 27.52a4.453 4.453 0 0 0-.805-.071c-.899 0-1.594.338-2.083 1.016-.426.597-.639 1.352-.639 2.264v6.018h-2.554l.024-7.857c0-1.322-.033-2.525-.096-3.61h2.226l.093 2.194h.071c.269-.754.695-1.361 1.277-1.817.57-.41 1.184-.614 1.847-.614.236 0 .45.017.639.047v2.43ZM145.502 30.472c0 .456-.03.841-.093 1.156h-7.666c.03 1.133.4 1.999 1.112 2.597.646.534 1.482.801 2.507.801 1.135 0 2.171-.18 3.102-.542l.4 1.769c-1.088.473-2.373.708-3.855.708-1.783 0-3.183-.523-4.202-1.569-1.016-1.046-1.526-2.45-1.526-4.211 0-1.73.474-3.17 1.422-4.318.992-1.226 2.333-1.84 4.021-1.84 1.657 0 2.912.614 3.764 1.84.675.974 1.014 2.178 1.014 3.609Zm-2.436-.66c.016-.756-.15-1.409-.497-1.96-.442-.708-1.121-1.062-2.036-1.062-.835 0-1.515.345-2.034 1.038-.425.551-.678 1.212-.756 1.982h5.323v.001ZM57.888 11.061c0 1.407-.423 2.466-1.268 3.177-.783.656-1.895.985-3.335.985-.715 0-1.326-.031-1.838-.094V7.445a13.595 13.595 0 0 1 2.164-.163c1.372 0 2.406.298 3.104.893.781.673 1.173 1.635 1.173 2.887Zm-1.324.035c0-.912-.242-1.611-.727-2.099-.484-.486-1.19-.73-2.122-.73a5.33 5.33 0 0 0-1.012.081v5.843c.155.024.438.035.849.035.961 0 1.703-.267 2.226-.8.522-.533.786-1.31.786-2.33ZM64.91 12.291c0 .866-.248 1.576-.744 2.133-.52.573-1.21.858-2.07.858-.829 0-1.49-.273-1.982-.823-.491-.549-.737-1.24-.737-2.075 0-.872.253-1.588.761-2.144s1.191-.834 2.052-.834c.83 0 1.496.274 2 .822.48.533.72 1.222.72 2.063Zm-1.302.04c0-.52-.113-.965-.337-1.337-.264-.45-.639-.674-1.127-.674-.504 0-.888.225-1.151.674-.226.372-.337.825-.337 1.36 0 .52.112.966.337 1.338.272.449.65.674 1.14.674.479 0 .855-.229 1.126-.686.232-.38.349-.829.349-1.348ZM74.326 9.52l-1.767 5.633h-1.151l-.732-2.446a18.268 18.268 0 0 1-.454-1.82h-.023a13.28 13.28 0 0 1-.454 1.82l-.778 2.446h-1.164L66.14 9.52h1.29l.64 2.678c.154.633.28 1.237.383 1.808h.023c.093-.47.248-1.07.466-1.796l.802-2.69h1.023l.768 2.632c.186.642.337 1.26.453 1.855h.035c.085-.58.213-1.197.384-1.855l.685-2.631h1.233V9.52ZM80.837 15.154h-1.256v-3.227c0-.994-.379-1.491-1.139-1.491-.372 0-.673.136-.907.41a1.452 1.452 0 0 0-.349.965v3.342H75.93V11.13c0-.495-.015-1.031-.045-1.612h1.104l.058.88h.035c.146-.273.364-.499.65-.68.341-.21.722-.316 1.14-.316.527 0 .965.17 1.314.51.434.417.651 1.04.651 1.867v3.375ZM84.3 15.152h-1.253V6.934H84.3v8.218ZM91.696 12.291c0 .866-.248 1.576-.745 2.133-.52.573-1.21.858-2.07.858-.83 0-1.49-.273-1.982-.823-.491-.549-.737-1.24-.737-2.075 0-.872.253-1.588.761-2.144s1.192-.834 2.05-.834c.831 0 1.496.274 2.002.822.48.533.72 1.222.72 2.063Zm-1.304.04c0-.52-.113-.965-.337-1.337-.263-.45-.639-.674-1.126-.674-.505 0-.889.225-1.151.674-.226.372-.337.825-.337 1.36 0 .52.113.966.337 1.338.272.449.65.674 1.14.674.479 0 .854-.229 1.125-.686.234-.38.349-.829.349-1.348ZM97.775 15.154h-1.128l-.093-.649h-.035c-.386.518-.936.777-1.65.777-.534 0-.965-.17-1.29-.51-.295-.308-.442-.692-.442-1.147 0-.689.287-1.213.866-1.577.578-.363 1.39-.541 2.437-.533v-.105c0-.742-.39-1.112-1.174-1.112-.557 0-1.048.14-1.473.417l-.255-.823c.525-.323 1.174-.486 1.938-.486 1.477 0 2.217.777 2.217 2.33v2.075c0 .563.028 1.011.082 1.343Zm-1.304-1.936v-.868c-1.386-.024-2.078.354-2.078 1.135 0 .294.079.514.24.66a.88.88 0 0 0 .614.22c.276 0 .534-.087.769-.26a1.067 1.067 0 0 0 .455-.887ZM104.911 15.152h-1.115l-.059-.904h-.034c-.356.688-.963 1.032-1.815 1.032-.681 0-1.247-.266-1.697-.8-.45-.532-.673-1.224-.673-2.074 0-.912.243-1.65.732-2.215.473-.525 1.053-.788 1.744-.788.758 0 1.289.254 1.591.764h.024V6.934h1.257v6.7c0 .55.015 1.055.045 1.518Zm-1.302-2.376v-.939c0-.162-.012-.294-.035-.394a1.417 1.417 0 0 0-.454-.76 1.234 1.234 0 0 0-.84-.306c-.469 0-.835.185-1.105.557-.267.371-.403.846-.403 1.425 0 .557.129 1.009.386 1.357.272.37.639.556 1.098.556.412 0 .742-.155.993-.464.242-.286.36-.63.36-1.032ZM115.653 12.291c0 .866-.248 1.576-.745 2.133-.52.573-1.208.858-2.069.858-.829 0-1.489-.273-1.983-.823-.491-.549-.737-1.24-.737-2.075 0-.872.253-1.588.761-2.144s1.191-.834 2.053-.834c.828 0 1.496.274 1.999.822.48.533.721 1.222.721 2.063Zm-1.302.04c0-.52-.113-.965-.337-1.337-.265-.45-.639-.674-1.128-.674-.503 0-.886.225-1.151.674-.226.372-.337.825-.337 1.36 0 .52.113.966.337 1.338.272.449.651.674 1.139.674.48 0 .857-.229 1.128-.686.232-.38.349-.829.349-1.348ZM122.406 15.154h-1.255v-3.227c0-.994-.378-1.491-1.14-1.491-.372 0-.673.136-.906.41a1.448 1.448 0 0 0-.348.965v3.342h-1.258V11.13c0-.495-.014-1.031-.044-1.612h1.103l.058.88h.035c.148-.273.366-.499.651-.68.342-.21.721-.316 1.14-.316.526 0 .965.17 1.313.51.435.417.651 1.04.651 1.867v3.375ZM130.861 10.458h-1.383v2.737c0 .696.245 1.043.732 1.043.225 0 .412-.019.56-.058l.032.95c-.248.093-.574.14-.975.14-.497 0-.883-.15-1.162-.452-.28-.301-.419-.808-.419-1.519v-2.84h-.826V9.52h.826V8.488l1.231-.37v1.401h1.383v.94h.001ZM137.508 15.152h-1.257V11.95c0-1.01-.379-1.515-1.137-1.515-.583 0-.981.293-1.199.878a1.574 1.574 0 0 0-.059.451v3.388h-1.254V6.934h1.254v3.395h.024c.396-.618.963-.926 1.697-.926.521 0 .951.17 1.292.51.426.424.639 1.055.639 1.89v3.35ZM144.369 12.07c0 .225-.017.414-.047.568h-3.767c.017.557.197.981.545 1.275.319.263.73.394 1.234.394.557 0 1.065-.088 1.523-.266l.196.87c-.535.232-1.166.348-1.896.348-.875 0-1.564-.257-2.062-.771-.501-.514-.749-1.204-.749-2.069 0-.85.231-1.557.697-2.121.487-.602 1.145-.904 1.975-.904.813 0 1.43.302 1.847.904.337.478.504 1.07.504 1.772Zm-1.199-.324a1.68 1.68 0 0 0-.243-.962c-.218-.348-.55-.522-1-.522-.41 0-.744.17-.999.51a1.891 1.891 0 0 0-.373.974h2.615Z" fill="#F3EBEA"/></svg>